<svg width="370" height="560" viewBox="0 0 370 560" fill="none" xmlns="http://www.w3.org/2000/svg">
<path d="M43.2101 141.5C43.2101 63.3517 106.562 0 184.71 0C262.858 0 326.21 63.3517 326.21 141.5V418.5C326.21 496.648 262.858 560 184.71 560C106.562 560 43.2101 496.648 43.2101 418.5V141.5Z" fill="#DEF7E5"/>
<path d="M274.511 124.687C272.138 119.977 269.521 115.395 266.671 110.958C233.346 60.1616 144.116 32.5017 99.9023 85.018C89.36 97.5329 85.6893 112.663 78.5793 127.014C62.4516 159.666 32.3349 179.183 13.4036 209.386C-1.24283 232.827 0.708108 262.856 8.88035 288.197C17.7607 315.727 33.3899 334.954 58.3907 349.565C86.4191 365.952 116.391 361.4 146.689 355.699C160.309 353.134 174.356 350.518 188.287 351.501C205.73 352.722 222.97 357.657 240.254 360.056C258.246 362.556 276.917 363.142 294.251 357.708C349.766 340.294 362.895 258.716 340.091 211.944C332.013 195.397 318.313 182.63 305.596 169.674C291.881 155.729 283.471 142.043 274.511 124.687Z" fill="#92E3A9"/>
<g opacity="0.699997">
<path d="M274.511 124.687C272.138 119.977 269.521 115.395 266.671 110.958C233.346 60.1616 144.116 32.5017 99.9023 85.018C89.36 97.5329 85.6893 112.663 78.5793 127.014C62.4516 159.666 32.3349 179.183 13.4036 209.386C-1.24283 232.827 0.708108 262.856 8.88035 288.197C17.7607 315.727 33.3899 334.954 58.3907 349.565C86.4191 365.952 116.391 361.4 146.689 355.699C160.309 353.134 174.356 350.518 188.287 351.501C205.73 352.722 222.97 357.657 240.254 360.056C258.246 362.556 276.917 363.142 294.251 357.708C349.766 340.294 362.895 258.716 340.091 211.944C332.013 195.397 318.313 182.63 305.596 169.674C291.881 155.729 283.471 142.043 274.511 124.687Z" fill="#92E3A9"/>
</g>
<path d="M348.646 356.935H6.0118C5.81237 356.935 5.65051 356.773 5.65051 356.573C5.65051 356.374 5.81237 356.212 6.0118 356.212H348.646C348.844 356.216 349.004 356.375 349.008 356.573C349.008 356.773 348.846 356.935 348.646 356.935Z" fill="#263238"/>
<path d="M172.239 148.394C172.239 148.394 164.608 158.763 157.621 167.868C150.634 176.972 144.275 182.767 137.281 184.711C131.659 186.271 117.771 187.42 112.612 187.803L102.959 242.429H96.6435L110.625 187.868C110.625 186.734 110.965 172.694 118.884 164.63C127.15 156.205 153.842 158.127 157.657 156.205C161.472 154.283 172.239 148.394 172.239 148.394ZM101.116 154.5C96.3183 167.723 86.1301 234.156 85.1619 243.036L78.1747 241.743V162C78.1747 162 76.2671 149.081 69.9085 144.507C63.5499 139.933 60.3778 139.976 60.3778 139.976C52.8934 140.652 45.5832 142.622 38.773 145.8C32.9123 148.579 27.6498 152.474 23.2811 157.267C32.9636 157.889 47.6389 158.713 53.3906 164.594C61.3388 172.665 61.6351 186.698 61.6495 187.832L75.6312 242.393H69.2798L59.6263 187.767C54.4311 187.384 40.5794 186.235 34.9578 184.674C28.2813 182.818 22.1901 177.449 15.5713 169.045C12.5004 175.426 10.1665 182.052 10.1665 182.052C10.4888 176.514 11.4289 171.029 12.9701 165.7C6.46698 157.217 0 148.409 0 148.409C0 148.409 10.8385 154.24 14.6176 156.184C15.1335 156.407 15.6783 156.558 16.2361 156.632C18.2514 152.017 20.9292 147.72 24.1844 143.878C37.5374 128.329 52.155 126.385 61.6856 129.622C71.2163 132.859 76.3032 138.69 76.9391 140.634C77.5749 142.578 80.747 155.519 80.747 155.519C80.747 155.519 77.5677 132.202 75.689 119.246C73.8103 106.29 76.3249 90.7406 80.14 77.1347C83.9552 63.5287 95.3356 37.6174 95.3356 37.6174C95.3356 37.6174 106.138 68.0665 108.681 92.7205C110.127 106.926 108.862 118.733 106.514 127.469C112.858 116.861 123.415 107.721 134.694 101.789C155.648 90.7768 169.016 95.2856 169.016 95.2856C169.016 95.2856 156.349 97.2149 149.391 103.696C142.433 110.178 129.694 128.986 124.607 141.27C119.52 153.553 99.4326 157.029 99.4326 157.029C99.2086 156.241 101.282 155.273 101.116 154.5ZM100.697 151.942C100.196 147.944 100.416 143.889 101.347 139.969C101.037 140.446 100.726 140.88 100.423 141.27C95.3645 147.773 83.8974 163.294 83.8974 167.181C83.8974 169.24 84.2514 179.833 84.62 189.35L85.8339 189.205C85.8339 189.205 91.5566 169.125 95.3718 161.35C96.9614 158.122 98.7397 154.991 100.697 151.971V151.942Z" fill="#263238"/>
<path d="M122.027 301.506L81.9898 299.606L41.9451 301.506L25.42 361.255H32.4144L52.1189 330.113H81.9898H111.861L131.558 361.255H138.552L122.027 301.506Z" fill="#263238"/>
<path d="M138.552 361.617H131.558C131.434 361.617 131.318 361.551 131.255 361.444L111.658 330.445H52.314L32.7179 361.444C32.6543 361.551 32.5387 361.616 32.4144 361.617H25.42C25.2162 361.612 25.0558 361.443 25.0608 361.239C25.0616 361.21 25.0659 361.182 25.0731 361.155L41.5983 301.413C41.6395 301.262 41.7746 301.156 41.9306 301.152L81.9682 299.245L122.042 301.152C122.199 301.154 122.335 301.261 122.374 301.413L138.899 361.155C138.928 361.264 138.907 361.38 138.841 361.472C138.772 361.561 138.666 361.615 138.552 361.617ZM131.76 360.894H138.076L121.753 301.861L81.9682 299.96L42.2269 301.861L25.8969 360.894H32.2121L51.8443 329.918C51.9129 329.813 52.03 329.751 52.155 329.752H111.897C112.02 329.749 112.136 329.812 112.2 329.918L131.76 360.894Z" fill="#263238"/>
<path d="M41.9451 240.493H121.391V317.085C121.391 319.36 119.547 321.204 117.273 321.204H46.0637C43.7891 321.204 41.9451 319.36 41.9451 317.085V240.493Z" fill="#263238"/>
<path d="M117.273 321.572H46.0637C43.5911 321.569 41.5874 319.565 41.5838 317.092V240.5C41.5874 240.302 41.7471 240.143 41.9451 240.139H121.428C121.627 240.139 121.789 240.301 121.789 240.5V317.092C121.785 319.571 119.773 321.577 117.294 321.572H117.273ZM42.3064 240.847V317.092C42.3064 319.168 43.9885 320.85 46.0637 320.85H117.273C119.348 320.85 121.03 319.168 121.03 317.092V240.847H42.3064Z" fill="#263238"/>
<rect x="78.4926" y="301.507" width="6.3586" height="59.7419" fill="#263238"/>
<path d="M84.8512 361.617H78.4926C78.2931 361.617 78.1313 361.455 78.1313 361.256V301.543C78.1313 301.343 78.2931 301.181 78.4926 301.181H84.8512C85.0506 301.181 85.2125 301.343 85.2125 301.543V361.285C85.1944 361.471 85.0383 361.614 84.8512 361.617ZM78.8539 360.894H84.4899V301.875H78.8539V360.894Z" fill="#263238"/>
<path d="M188.41 309.643C188.41 309.643 196.271 318.313 197.08 336.204C197.89 354.095 183.258 364.384 179.19 365.483C176.253 366.194 173.26 366.648 170.244 366.841V311.536L188.41 309.643Z" fill="#92E3A9"/>
<path d="M170.273 367.202C170.181 367.202 170.093 367.166 170.028 367.101C169.957 367.033 169.915 366.939 169.912 366.841V311.536C169.911 311.351 170.053 311.197 170.237 311.182L188.41 309.281C188.526 309.268 188.642 309.31 188.72 309.397C188.8 309.484 196.669 318.379 197.485 336.19C198.323 354.565 183.409 364.746 179.327 365.815C176.366 366.53 173.349 366.989 170.309 367.188L170.273 367.202ZM170.634 311.861V366.451C173.497 366.252 176.337 365.809 179.125 365.129C182.933 364.11 197.55 353.893 196.748 336.226C196.026 319.86 189.262 311.189 188.287 310.018L170.634 311.861Z" fill="#263238"/>
<path d="M92.7489 309.643C92.7489 309.643 84.8874 318.313 84.0781 336.204C83.2688 354.095 97.9008 364.384 101.969 365.483C104.905 366.194 107.899 366.648 110.914 366.841V311.536L92.7489 309.643Z" fill="#92E3A9"/>
<path d="M110.907 367.202C107.867 367.003 104.85 366.543 101.889 365.829C97.8068 364.746 82.893 354.565 83.7312 336.204C84.5405 318.393 92.402 309.469 92.4959 309.411C92.5747 309.325 92.6903 309.282 92.8066 309.296L110.965 311.196C111.149 311.211 111.291 311.365 111.29 311.55V366.855C111.287 366.954 111.245 367.048 111.174 367.116C111.101 367.181 111.005 367.212 110.907 367.202ZM92.8933 310.018C91.9251 311.189 85.1763 319.874 84.4321 336.226C83.63 353.9 98.2476 364.117 102.056 365.129C104.843 365.807 107.684 366.247 110.546 366.444V311.861L92.8933 310.018Z" fill="#263238"/>
<path d="M211.814 188.605C218.187 181.763 222.428 164.761 218.187 158.402C213.945 152.043 191.054 160.996 182.781 169.732C174.507 178.468 171.22 183.887 171.22 183.887C161.891 182.521 145.366 182.767 139.831 182.89C134.239 182.767 117.555 182.521 108.226 183.887C108.226 183.887 104.924 178.46 96.6652 169.732C88.4062 161.003 65.5225 152.036 61.2593 158.402C56.9962 164.768 61.2593 181.763 67.6324 188.605C74.0054 195.448 86.5058 210.542 88.1533 212.197C89.8008 213.852 86.9755 233.195 87.4307 257.719C87.8859 282.242 88.3773 302.517 91.441 313.87C94.5047 325.221 99.6999 340.056 99.6999 344.304C99.6667 348.645 98.4448 352.893 96.1666 356.587C93.8038 360.598 88.3773 362.253 87.6692 366.971C86.9611 371.69 89.1143 374.284 95.4585 375.931C101.803 377.579 104.895 377.586 109.375 374.753C113.855 371.921 117.164 366.971 117.164 366.971L141.226 367.441L165.295 366.971C165.295 366.971 168.597 371.921 173.077 374.753C177.557 377.586 180.628 377.586 187.001 375.931C193.374 374.276 195.491 371.69 194.783 366.971C194.075 362.253 188.648 360.598 186.293 356.587C184.009 352.895 182.784 348.646 182.752 344.304C182.752 340.056 187.94 325.192 191.011 313.87C194.082 302.547 191.481 282.257 191.95 257.719C192.42 233.18 189.595 213.83 191.228 212.197C192.861 210.564 205.441 195.448 211.814 188.605Z" fill="#149477"/>
<path d="M102.258 377.412C99.9363 377.324 97.6356 376.944 95.4079 376.285C88.9409 374.609 86.607 371.892 87.3585 366.892C87.7921 364.002 89.9525 362.181 92.0335 360.432C93.5386 359.311 94.8436 357.943 95.892 356.386C98.1378 352.75 99.3445 348.57 99.382 344.297C99.382 341.58 97.1565 334.232 94.801 326.457C93.5292 322.252 92.2069 317.894 91.1375 313.956C87.9727 302.265 87.5247 280.624 87.1128 257.719C86.8744 245.312 87.4813 234.214 87.9221 226.107C88.3195 218.881 88.6447 213.137 87.9221 212.428C87.1995 211.72 84.8223 208.91 81.7514 205.304C77.2931 200.073 71.1874 192.912 67.3867 188.829C61.0715 182.044 56.6132 164.739 60.9775 158.185C61.8519 156.877 63.456 156.111 65.7393 155.916C74.0127 155.194 90.0465 162.174 96.9325 169.457C104.245 177.189 107.728 182.406 108.414 183.475C117.901 182.131 134.846 182.398 139.846 182.507C144.781 182.398 161.523 182.131 171.046 183.475C171.769 182.406 175.216 177.189 182.521 169.457C189.414 162.174 205.448 155.208 213.714 155.916C216.005 156.111 217.609 156.877 218.476 158.185C222.847 164.739 218.389 182.03 212.074 188.829C208.266 192.912 202.167 200.073 197.709 205.297C194.638 208.91 192.21 211.756 191.538 212.428C190.866 213.1 191.141 218.859 191.538 226.107C191.979 234.214 192.586 245.312 192.348 257.719C192.174 266.816 192.427 275.436 192.644 283.009C193.034 296.275 193.366 306.76 191.394 313.928C190.324 317.866 189.009 322.223 187.73 326.435C185.375 334.21 183.149 341.551 183.149 344.268C183.187 348.541 184.394 352.722 186.639 356.357C187.688 357.914 188.992 359.282 190.498 360.403C192.586 362.152 194.739 363.958 195.18 366.863C195.903 371.841 193.59 374.558 187.124 376.256C180.989 377.846 177.665 378.027 172.918 375.028C168.828 372.448 165.764 368.207 165.136 367.304L141.291 367.773L117.41 367.304C116.781 368.207 113.718 372.448 109.628 375.028C107.469 376.549 104.899 377.381 102.258 377.412ZM66.9387 156.617C66.5413 156.617 66.1728 156.617 65.8115 156.661C63.7522 156.834 62.336 157.492 61.5917 158.604C57.3719 164.934 61.7651 181.727 67.9214 188.36C71.7366 192.435 77.8567 199.661 82.3078 204.856C85.3642 208.469 87.7848 211.287 88.4424 211.944C89.3311 212.833 89.1649 216.952 88.6447 226.164C88.2039 234.264 87.597 245.349 87.8354 257.726C88.2762 280.588 88.6953 302.186 91.8384 313.79C92.9006 317.721 94.2157 322.064 95.4946 326.269C97.8647 334.102 100.105 341.494 100.105 344.333C100.061 348.735 98.8119 353.042 96.4918 356.783C95.405 358.415 94.0466 359.847 92.4743 361.017C90.3933 362.759 88.4351 364.399 88.045 367.036C87.3224 371.617 89.4901 374.016 95.5597 375.599C101.629 377.181 104.751 377.275 109.195 374.464C113.638 371.654 116.875 366.82 116.875 366.769C116.951 366.673 117.064 366.614 117.186 366.61L141.248 367.08L165.302 366.61C165.423 366.612 165.535 366.671 165.605 366.769C165.642 366.82 168.922 371.69 173.286 374.45C177.651 377.21 180.729 377.188 186.921 375.584C193.114 373.98 195.13 371.603 194.443 367.022C194.046 364.385 192.088 362.744 190.014 361.002C188.441 359.83 187.08 358.399 185.989 356.769C183.669 353.027 182.42 348.721 182.376 344.319C182.376 341.494 184.616 334.102 186.986 326.255C188.265 322.049 189.58 317.699 190.642 313.769C192.557 306.702 192.254 296.268 191.871 283.059C191.654 275.451 191.401 266.823 191.575 257.705C191.813 245.327 191.206 234.243 190.765 226.143C190.267 216.923 190.079 212.811 190.975 211.923C191.625 211.265 194.046 208.425 197.109 204.834C201.568 199.596 207.681 192.428 211.488 188.338C217.652 181.719 222.045 164.912 217.825 158.583C217.103 157.47 215.658 156.812 213.606 156.639C205.657 155.96 189.645 162.933 182.998 169.956C174.869 178.547 171.516 183.995 171.487 184.053C171.411 184.176 171.269 184.241 171.126 184.219C161.732 182.854 144.767 183.114 139.795 183.229C134.737 183.114 117.62 182.854 108.233 184.219C108.09 184.241 107.949 184.176 107.872 184.053C107.872 183.995 104.491 178.547 96.3617 169.956C90.0754 163.272 75.1832 156.617 66.9387 156.617Z" fill="#263238"/>
<path d="M167.831 306.442C158.127 308.747 158.654 306.023 157.867 295.35C157.079 284.678 168.098 279.454 176.755 274.396C185.411 269.338 191.206 254.511 189.089 251.996C186.972 249.482 166.523 251.158 164.948 247.393C163.373 243.629 162.737 231.786 162.737 231.786L140.547 225.521L117.425 231.786C117.425 231.786 117.706 243.622 116.131 247.393C114.556 251.165 94.0928 249.482 91.9974 251.996C89.9019 254.511 95.668 269.338 104.324 274.396C112.981 279.454 124.007 284.649 123.22 295.35C122.432 306.051 122.967 308.768 113.263 306.442C103.558 304.115 95.6825 298.905 95.6825 306.861C95.6825 314.816 97.5178 325.908 103.291 329.882C109.064 333.856 114.05 331.768 117.193 339.087C120.337 346.407 119.946 359.399 116.341 365.822C116.19 366.097 116.078 366.391 116.008 366.697C116.413 366.155 116.637 365.822 116.637 365.822L140.698 366.292L164.753 365.822C161.14 359.391 160.75 346.407 163.9 339.087C167.051 331.768 172.029 333.856 177.802 329.882C183.576 325.908 185.411 314.816 185.411 306.861C185.411 298.905 177.571 304.137 167.831 306.442Z" fill="white"/>
<g opacity="0.330002">
<path d="M173.792 184.436C173.792 184.436 176.032 192.449 179.399 198.057C182.766 203.664 185.967 207.992 190.96 206.07C195.953 204.148 211.315 187.644 214.198 180.274C217.081 172.904 218.844 161.365 214.675 158.481C210.506 155.598 186.285 162.167 173.792 184.436Z" fill="black"/>
</g>
<g opacity="0.330002">
<path d="M105.184 184.436C105.184 184.436 102.937 192.449 99.5771 198.056C96.2171 203.664 93.0017 207.992 88.016 206.07C83.0303 204.148 67.6685 187.644 64.7854 180.274C61.9024 172.904 60.161 161.364 64.323 158.474C68.485 155.584 92.6838 162.166 105.184 184.436Z" fill="black"/>
</g>
<path d="M117.208 367.022C116.977 365.577 119.195 364.074 118.508 362.448C113.357 350.244 103.754 350.562 98.4282 351.862C97.8372 353.503 97.0944 355.085 96.21 356.588C93.8472 360.598 88.4207 362.253 87.7126 366.971C87.0045 371.69 89.1577 374.284 95.5019 375.931C101.846 377.579 104.939 377.586 109.418 374.753C113.898 371.921 117.208 366.971 117.208 366.971V367.022Z" fill="white"/>
<path d="M102.258 377.412C99.9363 377.323 97.6356 376.944 95.4079 376.285C88.9409 374.609 86.6071 371.892 87.3585 366.892C87.7921 364.001 89.9525 362.181 92.0336 360.432C93.5386 359.311 94.8436 357.943 95.8921 356.386C96.7591 354.901 97.4846 353.338 98.0598 351.718C98.1009 351.604 98.1956 351.518 98.3126 351.487C103.71 350.172 113.552 349.825 118.819 362.325C119.267 363.395 118.682 364.384 118.169 365.215C117.81 365.692 117.588 366.256 117.526 366.848C117.53 366.882 117.53 366.916 117.526 366.95C117.524 367.053 117.483 367.151 117.41 367.224C116.962 367.882 113.797 372.354 109.57 375.035C107.426 376.542 104.879 377.371 102.258 377.412ZM98.7028 352.166C98.1212 353.763 97.3957 355.303 96.5352 356.769C95.4484 358.4 94.09 359.832 92.5177 361.003C90.4367 362.744 88.4785 364.384 88.0883 367.022C87.3658 371.603 89.5335 374.002 95.603 375.584C101.673 377.167 104.794 377.261 109.238 374.45C113.241 371.928 116.326 367.622 116.847 366.877C116.894 366.155 117.144 365.462 117.569 364.876C118.039 364.074 118.48 363.322 118.169 362.592C113.19 350.764 103.92 350.937 98.7028 352.166Z" fill="#263238"/>
<path d="M91.217 374.869C91.0646 374.869 90.9294 374.774 90.8774 374.631C90.8124 374.45 89.2155 370.086 91.1809 367.145C93.1463 364.204 98.6522 362.376 98.8907 362.296C99.0829 362.241 99.2823 362.353 99.3372 362.544C99.3893 362.726 99.2924 362.918 99.1147 362.983C99.0641 362.983 93.5654 364.861 91.7806 367.542C89.9959 370.223 91.5422 374.341 91.5566 374.378C91.6209 374.567 91.5256 374.774 91.3398 374.847C91.3008 374.862 91.2589 374.87 91.217 374.869Z" fill="#263238"/>
<path d="M95.5018 376.292H95.4079C95.2143 376.243 95.0979 376.046 95.1478 375.853V375.852C95.1984 375.664 96.3761 371.184 97.6406 369.638C98.9051 368.091 105.401 364.5 105.676 364.348C105.852 364.257 106.069 364.32 106.167 364.493C106.263 364.668 106.199 364.887 106.024 364.983L106.022 364.984C105.957 364.984 99.3748 368.662 98.197 370.093C97.0192 371.523 95.8631 375.989 95.8487 376.032C95.8039 376.186 95.6622 376.292 95.5018 376.292Z" fill="#263238"/>
<path d="M165.338 367.022C165.562 365.577 163.416 364.074 164.102 362.448C169.254 350.244 178.857 350.562 184.183 351.862C184.774 353.503 185.517 355.085 186.401 356.588C188.764 360.598 194.19 362.238 194.913 366.971C195.635 371.704 193.468 374.284 187.123 375.931C180.779 377.579 177.687 377.586 173.207 374.753C168.727 371.921 165.418 366.971 165.418 366.971L165.338 367.022Z" fill="white"/>
<path d="M180.353 377.412C177.72 377.386 175.156 376.565 172.997 375.057C168.965 372.513 165.923 368.344 165.244 367.369C165.208 367.361 165.174 367.345 165.143 367.325C165.019 367.25 164.953 367.107 164.977 366.964C164.954 366.34 164.743 365.738 164.37 365.237C163.878 364.363 163.315 363.373 163.77 362.347C169.03 349.882 178.865 350.229 184.269 351.508C184.386 351.539 184.481 351.625 184.522 351.739C185.097 353.359 185.823 354.922 186.69 356.407C187.738 357.964 189.043 359.332 190.548 360.454C192.629 362.202 194.79 364.009 195.224 366.913C195.946 371.892 193.641 374.609 187.174 376.307C184.955 376.956 182.664 377.328 180.353 377.412ZM165.714 366.776C165.866 367 169.103 371.747 173.387 374.45C177.839 377.261 180.83 377.188 187.022 375.584C193.215 373.98 195.231 371.603 194.537 367.022C194.147 364.384 192.189 362.744 190.108 361.003C188.535 359.832 187.177 358.4 186.09 356.769C185.23 355.303 184.504 353.763 183.923 352.166C178.706 350.945 169.471 350.764 164.449 362.592C164.131 363.315 164.565 364.081 165.013 364.883C165.394 365.449 165.634 366.098 165.714 366.776Z" fill="#263238"/>
<path d="M183.54 377.058H183.503C183.305 377.039 183.159 376.863 183.178 376.664V376.661C183.287 375.505 183.489 372.275 183.063 371.22C182.636 370.165 179.139 366.884 177.824 365.75C177.674 365.616 177.661 365.387 177.795 365.237C177.929 365.087 178.159 365.074 178.308 365.208C178.799 365.649 183.171 369.543 183.735 370.952C184.298 372.361 183.915 376.552 183.901 376.733C183.876 376.915 183.723 377.053 183.54 377.058Z" fill="#263238"/>
<path d="M190.65 374.869C190.45 374.869 190.288 374.707 190.288 374.508C190.245 372.509 190.017 370.518 189.609 368.561C188.966 365.454 185.274 362.65 185.238 362.621C185.078 362.501 185.045 362.275 185.165 362.116C185.287 361.96 185.511 361.928 185.671 362.043C185.83 362.166 189.616 365.042 190.317 368.416C190.748 370.419 190.99 372.459 191.04 374.508C191.041 374.707 190.879 374.87 190.68 374.87C190.67 374.87 190.66 374.87 190.65 374.869Z" fill="#263238"/>
<path d="M134.427 233.903H147.361V250.963C147.361 254.187 144.746 256.801 141.522 256.801H140.265C137.041 256.801 134.427 254.187 134.427 250.963V233.903Z" fill="#92E3A9"/>
<path d="M141.522 257.148H140.265C136.843 257.144 134.07 254.371 134.065 250.948V233.903C134.065 233.704 134.227 233.542 134.427 233.542H147.361C147.56 233.542 147.722 233.704 147.722 233.903V250.963C147.71 254.38 144.939 257.144 141.522 257.148ZM134.788 234.264V250.963C134.792 253.986 137.242 256.436 140.265 256.44H141.522C144.545 256.436 146.995 253.986 146.999 250.963V234.264H134.788Z" fill="#263238"/>
<path d="M140.655 248.022C140.457 248.018 140.297 247.859 140.294 247.661V237.444C140.294 237.244 140.456 237.082 140.655 237.082C140.855 237.082 141.016 237.244 141.016 237.444V247.661C141.016 247.86 140.855 248.022 140.655 248.022Z" fill="#263238"/>
<path d="M146.79 215.03C144.904 210.073 147.512 200.874 146.067 196.387C144.622 191.9 141.818 192.847 141.818 192.847L140.641 193.085L139.463 192.847C139.463 192.847 136.63 191.907 135.214 196.387C133.798 200.867 136.392 210.073 134.492 215.03C132.591 219.986 117.981 228.715 117.981 232.957C117.981 237.198 125.763 243.795 129.065 245.24C132.367 246.685 140.626 237.458 140.626 237.458C140.626 237.458 148.885 246.656 152.187 245.24C155.489 243.824 163.279 237.22 163.279 232.957C163.279 228.693 148.668 219.979 146.79 215.03Z" fill="white"/>
<path d="M151.45 245.731C148.004 245.731 142.136 239.59 140.655 237.978C139.037 239.749 132.158 246.924 128.957 245.558C125.582 244.113 117.649 237.436 117.649 232.956C117.649 230.543 121.717 227.068 126.023 223.382C129.636 220.319 133.328 217.139 134.188 214.899C135.164 212.334 134.911 208.548 134.643 204.892C134.419 201.575 134.203 198.447 134.889 196.279C135.445 194.509 136.291 193.324 137.396 192.76C138.062 192.407 138.835 192.317 139.564 192.507L140.626 192.717L141.739 192.493C142.469 192.311 143.242 192.406 143.907 192.76C145.012 193.324 145.858 194.509 146.421 196.279C147.1 198.447 146.891 201.575 146.66 204.892C146.407 208.548 146.147 212.334 147.122 214.899C147.975 217.139 151.689 220.319 155.28 223.382C159.615 227.068 163.662 230.543 163.662 232.956C163.662 237.436 155.713 244.113 152.354 245.558C152.068 245.678 151.76 245.737 151.45 245.731ZM138.834 193.157C138.443 193.159 138.059 193.256 137.714 193.439C136.789 193.916 136.074 194.957 135.547 196.525C134.903 198.562 135.113 201.626 135.337 204.87C135.597 208.606 135.864 212.472 134.831 215.188C133.914 217.602 130.294 220.694 126.464 223.96C122.468 227.378 118.342 230.904 118.342 232.985C118.342 237.118 126.059 243.571 129.181 244.922C131.695 245.999 138.083 239.734 140.33 237.227C140.47 237.079 140.704 237.073 140.851 237.213L140.865 237.227C143.119 239.734 149.535 246.013 152.014 244.922C155.172 243.571 162.852 237.118 162.852 232.985C162.852 230.904 158.719 227.378 154.724 223.96C150.894 220.694 147.281 217.602 146.356 215.188C145.33 212.472 145.59 208.606 145.85 204.87C146.074 201.626 146.284 198.562 145.648 196.525C145.142 194.942 144.42 193.902 143.48 193.432C142.977 193.165 142.394 193.09 141.84 193.222L140.619 193.468C140.571 193.475 140.522 193.475 140.474 193.468L139.297 193.23C139.146 193.19 138.99 193.165 138.834 193.157Z" fill="#263238"/>
<path d="M149.622 227.299C147.319 224.984 144.216 223.64 140.951 223.541C135.048 223.448 130.51 225.883 130.98 228.007C131.45 230.131 137.591 234.611 139.947 235.319C142.303 236.027 149.153 230.601 149.622 227.299Z" fill="#263238"/>
<path d="M152.411 207.652C153.832 207.652 154.984 209.282 154.984 211.294C154.984 213.305 153.832 214.936 152.411 214.936C150.991 214.936 149.839 213.305 149.839 211.294C149.839 209.282 150.991 207.652 152.411 207.652Z" fill="#263238"/>
<path d="M152.939 209.198C153.31 209.198 153.611 209.499 153.611 209.87C153.611 210.242 153.31 210.542 152.939 210.542C152.567 210.542 152.267 210.242 152.267 209.87C152.267 209.499 152.567 209.198 152.939 209.198Z" fill="white"/>
<path d="M129.882 211.294C129.882 213.303 128.733 214.907 127.316 214.907C125.9 214.907 124.744 213.274 124.744 211.294C124.744 209.314 125.893 207.681 127.316 207.681C128.74 207.681 129.882 209.285 129.882 211.294Z" fill="#263238"/>
<path d="M127.967 209.198C128.338 209.198 128.639 209.499 128.639 209.87C128.639 210.242 128.338 210.542 127.967 210.542C127.595 210.542 127.295 210.242 127.295 209.87C127.295 209.499 127.595 209.198 127.967 209.198Z" fill="white"/>
<path d="M368.081 307.84C366.371 308.014 364.845 308.99 363.969 310.468C368.521 303.376 369.679 293.777 366.997 285.493C366.469 283.887 365.682 282.181 364.233 281.551C363.227 281.186 362.101 281.538 361.483 282.411C361.869 279.991 361.882 277.526 361.523 275.102C361.361 274.018 361.063 272.847 360.244 272.203C359.112 271.309 357.439 271.898 356.572 273.063C355.705 274.228 355.427 275.772 355.217 277.277C350.726 265.761 340.314 257.239 329.037 255.79C326.794 255.498 324.294 255.539 322.581 257.077C320.867 258.614 320.515 262.11 322.479 263.377C320.352 262.598 318.124 261.886 315.915 262.178C313.707 262.469 311.512 264.02 311.011 266.391C310.334 269.466 312.678 272.386 315.075 274.194C318.347 276.647 322.086 278.211 325.561 280.291C329.037 282.37 332.383 285.182 333.995 289.144C336.027 294.197 334.842 300.118 332.558 304.961C328.298 314.018 320.291 320.805 311.194 323.061L318.605 339.433C327.979 345.827 353.368 340.618 360.752 331.893C361.916 330.539 363 328.812 362.885 326.915C362.77 325.018 360.853 323.203 359.322 324.036C364.369 320.629 370.275 310.163 368.081 307.84Z" fill="#009476"/>
<path d="M368.081 307.84C366.371 308.014 364.845 308.99 363.969 310.468C368.521 303.376 369.679 293.777 366.997 285.493C366.469 283.887 365.682 282.181 364.233 281.551C363.227 281.186 362.101 281.538 361.483 282.411C361.869 279.991 361.882 277.526 361.523 275.102C361.361 274.018 361.063 272.847 360.244 272.203C359.112 271.309 357.439 271.898 356.572 273.063C355.705 274.228 355.427 275.772 355.217 277.277C350.726 265.761 340.314 257.239 329.037 255.79C326.794 255.498 324.294 255.539 322.581 257.077C320.867 258.614 320.515 262.11 322.479 263.377C320.352 262.598 318.124 261.886 315.915 262.178C313.707 262.469 311.512 264.02 311.011 266.391C310.334 269.466 312.678 272.386 315.075 274.194C318.347 276.647 322.086 278.211 325.561 280.291C329.037 282.37 332.383 285.182 333.995 289.144C336.027 294.197 334.842 300.118 332.558 304.961C328.298 314.018 320.291 320.805 311.194 323.061L318.605 339.433C327.979 345.827 353.368 340.618 360.752 331.893C361.916 330.539 363 328.812 362.885 326.915C362.77 325.018 360.853 323.203 359.322 324.036C364.369 320.629 370.275 310.163 368.081 307.84Z" stroke="#1A2E35" stroke-linecap="round" stroke-linejoin="round"/>
<g opacity="0.330002">
<path d="M310.998 266.37C310.321 269.445 312.664 272.365 315.062 274.174C318.334 276.626 322.073 278.191 325.548 280.27C327.013 281.14 328.396 282.142 329.68 283.264C331.096 282.025 331.631 279.701 331.292 277.663C330.906 275.319 329.633 273.266 328.393 271.295C330.001 273.351 332.007 275.061 334.293 276.321C335.126 276.774 336.088 277.168 336.955 276.822C338.357 276.253 338.58 274.113 338.025 272.555C337.47 270.997 336.4 269.703 335.993 268.111C337.196 269.333 338.564 270.379 340.057 271.22C341.521 272.045 343.278 272.164 344.84 271.545C346.574 270.74 347.664 268.734 347.881 266.675C347.912 266.369 347.925 266.062 347.922 265.754C342.787 260.335 336.088 256.663 329.05 255.762C326.808 255.471 324.308 255.512 322.594 257.05C320.881 258.587 320.528 262.082 322.493 263.349C320.366 262.57 318.137 261.859 315.929 262.15C313.721 262.442 311.479 263.999 310.998 266.37Z" fill="black"/>
</g>
<path d="M308.288 300.368L288.211 289.53C288.211 289.53 275.957 282.627 269.779 276.626C258.812 265.971 256.231 256.718 256.231 256.718L197.028 283.894L185.005 287.708C186.509 294.001 186.732 305.902 190.769 318.074C191.887 321.462 195.186 324.578 195.335 323.446C195.45 322.504 195.335 324.07 195.335 324.07C197.428 329.597 199.846 336.77 207.019 341.762C212.391 349.891 223.873 354.538 228.567 357.22C235.51 361.183 261.86 368.96 261.86 368.96L282.351 370.524L333.71 329.766C333.71 329.766 330.641 311.964 308.288 300.368Z" fill="#009476"/>
<path d="M308.288 300.368L288.211 289.53C288.211 289.53 275.957 282.627 269.779 276.626C258.812 265.971 256.231 256.718 256.231 256.718L197.028 283.894L185.005 287.708C186.509 294.001 186.732 305.902 190.769 318.074C191.887 321.462 195.186 324.578 195.335 323.446C195.45 322.504 195.335 324.07 195.335 324.07C197.428 329.597 199.846 336.77 207.019 341.762C212.391 349.891 223.873 354.538 228.567 357.22C235.51 361.183 261.86 368.96 261.86 368.96L282.351 370.524L333.71 329.766C333.71 329.766 330.641 311.964 308.288 300.368Z" stroke="#1A2E35" stroke-linecap="round" stroke-linejoin="round"/>
<path d="M238.633 345.109C242.142 348.185 243.49 353.042 243.971 357.675C244.452 362.308 244.235 367.049 245.4 371.561C243.091 370.883 240.53 372.74 240.022 375.097C239.514 377.454 240.747 379.94 242.65 381.417C244.633 382.819 246.995 383.584 249.424 383.611C253.488 383.835 257.871 382.704 260.661 379.703C263.222 376.953 264.116 373.099 265.133 369.475C266.866 363.27 269.196 357.241 270.985 351.05C272.773 344.859 273.973 338.383 273.349 331.968L275.097 332.578C277.257 333.208 275.192 325.966 273.03 322.708" fill="#009476"/>
<path d="M238.633 345.109C242.142 348.185 243.49 353.042 243.971 357.675C244.452 362.308 244.235 367.049 245.4 371.561C243.091 370.883 240.53 372.74 240.022 375.097C239.514 377.454 240.747 379.94 242.65 381.417C244.633 382.819 246.995 383.584 249.424 383.611C253.488 383.835 257.871 382.704 260.661 379.703C263.222 376.953 264.116 373.099 265.133 369.475C266.866 363.27 269.196 357.241 270.985 351.05C272.773 344.859 273.973 338.383 273.349 331.968L275.097 332.578C277.257 333.208 275.192 325.966 273.03 322.708" stroke="#1A2E35" stroke-linecap="round" stroke-linejoin="round"/>
<path d="M273.017 322.708C273.189 322.939 273.347 323.182 273.491 323.433C273.913 324.165 274.288 324.923 274.615 325.703C275.145 326.954 275.561 328.251 275.861 329.577C275.954 329.983 276.02 330.395 276.058 330.81C276.121 331.262 276.095 331.722 275.983 332.165C275.923 332.43 275.719 332.639 275.455 332.706C275.323 332.73 275.188 332.73 275.056 332.706L274.71 332.584L273.301 332.104L273.436 331.988C273.733 335.191 273.652 338.417 273.193 341.601C272.618 345.474 271.736 349.294 270.558 353.028C269.345 357.092 267.848 361.298 266.412 365.783C265.688 368.018 265.057 370.341 264.38 372.699C263.765 375.146 262.654 377.439 261.115 379.439C258.979 381.797 256.049 383.287 252.885 383.625C251.376 383.832 249.847 383.851 248.333 383.679C246.85 383.53 245.404 383.127 244.058 382.487C242.744 381.851 241.628 380.871 240.828 379.649C240.039 378.47 239.67 377.06 239.778 375.646C240.021 372.841 242.9 370.674 245.44 371.405L245.258 371.581C244.234 367.449 244.282 363.548 244.052 360.16C243.955 357.231 243.46 354.328 242.582 351.531C242.013 349.735 241.122 348.057 239.953 346.579C239.647 346.191 239.317 345.822 238.965 345.475C238.728 345.244 238.606 345.109 238.606 345.109C239.127 345.532 239.603 346.006 240.028 346.525C241.23 347.994 242.148 349.673 242.737 351.477C243.645 354.287 244.158 357.209 244.262 360.16C244.513 363.548 244.492 367.449 245.515 371.521L245.576 371.771L245.332 371.703C243.008 371.026 240.272 373.058 240.069 375.686C239.968 377.03 240.323 378.369 241.078 379.486C241.847 380.657 242.922 381.594 244.188 382.196C245.496 382.818 246.904 383.208 248.347 383.348C249.831 383.519 251.331 383.501 252.811 383.293C255.913 382.965 258.784 381.501 260.871 379.181C262.377 377.217 263.466 374.964 264.068 372.563C264.746 370.227 265.362 367.883 266.1 365.648C267.523 361.156 269.054 356.93 270.28 352.906C271.466 349.189 272.355 345.383 272.942 341.526C273.412 338.365 273.514 335.16 273.247 331.975V331.813L273.402 331.867L274.811 332.361C275.022 332.467 275.254 332.518 275.489 332.51C275.682 332.454 275.829 332.295 275.869 332.097C275.976 331.681 276.004 331.249 275.949 330.823C275.911 330.416 275.85 330.011 275.767 329.611C275.481 328.292 275.082 327 274.574 325.75C274.263 324.97 273.908 324.208 273.511 323.467C273.376 323.223 273.267 323.04 273.193 322.898C273.127 322.841 273.068 322.778 273.017 322.708Z" fill="#263238"/>
<path d="M248.144 373.816C248.144 373.87 247.642 374.094 246.904 374.615C244.946 375.965 243.659 378.087 243.368 380.448C243.246 381.342 243.287 381.911 243.232 381.918C243.089 381.433 243.05 380.922 243.117 380.42C243.281 377.941 244.644 375.696 246.769 374.406C247.18 374.113 247.649 373.912 248.144 373.816Z" fill="#263238"/>
<path d="M253.204 374.141C253.238 374.189 252.716 374.521 252.025 375.205C251.118 376.084 250.41 377.147 249.946 378.321C249.488 379.5 249.28 380.762 249.336 382.026C249.384 382.995 249.532 383.591 249.478 383.604C249.246 383.113 249.115 382.582 249.092 382.04C248.813 379.387 249.844 376.766 251.855 375.015C252.241 374.635 252.699 374.338 253.204 374.141Z" fill="#263238"/>
<path d="M203.159 338.951C205.347 343.517 207.792 347.378 208.266 352.011C208.741 356.645 208.537 361.386 209.696 365.897C207.386 365.22 204.832 367.083 204.323 369.434C203.816 371.784 205.042 374.284 206.945 375.76C208.931 377.155 211.293 377.917 213.719 377.948C217.783 378.179 222.166 377.041 224.957 374.04C227.517 371.29 229.61 361.766 230.376 358.081" fill="#009476"/>
<path d="M203.159 338.951C205.347 343.517 207.792 347.378 208.266 352.011C208.741 356.645 208.537 361.386 209.696 365.897C207.386 365.22 204.832 367.083 204.323 369.434C203.816 371.784 205.042 374.284 206.945 375.76C208.931 377.155 211.293 377.917 213.719 377.948C217.783 378.179 222.166 377.041 224.957 374.04C227.517 371.29 229.61 361.766 230.376 358.081" stroke="#1A2E35" stroke-linecap="round" stroke-linejoin="round"/>
<path d="M230.389 358.081C230.395 358.149 230.395 358.217 230.389 358.284C230.362 358.433 230.329 358.629 230.288 358.873C230.186 359.388 230.038 360.154 229.821 361.129C229.238 363.881 228.491 366.595 227.585 369.257C227.294 370.104 226.907 370.971 226.528 371.865C226.105 372.803 225.526 373.662 224.815 374.406C223.179 375.987 221.144 377.094 218.928 377.61C216.487 378.208 213.947 378.279 211.477 377.82C210.168 377.586 208.91 377.128 207.758 376.465C206.56 375.773 205.572 374.768 204.899 373.559C204.4 372.674 204.117 371.682 204.074 370.666C204.027 369.658 204.297 368.661 204.845 367.814C205.376 366.998 206.127 366.349 207.013 365.945C207.442 365.75 207.899 365.624 208.368 365.572C208.834 365.537 209.304 365.58 209.757 365.701L209.546 365.905C208.551 361.915 208.571 358.074 208.354 354.701C208.303 353.108 208.122 351.522 207.812 349.959C207.506 348.632 207.082 347.336 206.545 346.085C205.57 343.795 204.636 342.02 204.053 340.814C203.755 340.198 203.524 339.73 203.376 339.405C203.308 339.256 203.253 339.134 203.213 339.033C203.172 338.931 203.159 338.911 203.165 338.904C203.195 338.942 203.219 338.983 203.24 339.026C203.287 339.121 203.348 339.236 203.43 339.379C203.599 339.717 203.843 340.178 204.148 340.733C204.764 341.946 205.726 343.68 206.735 345.976C207.301 347.234 207.754 348.54 208.09 349.877C208.411 351.44 208.604 353.026 208.666 354.62C208.91 358.006 208.91 361.827 209.899 365.762L209.973 366.054L209.689 365.965C208.036 365.471 206.126 366.413 205.144 367.943C204.165 369.613 204.193 371.687 205.218 373.328C205.857 374.48 206.793 375.439 207.928 376.106C209.043 376.75 210.263 377.194 211.531 377.42C213.942 377.868 216.421 377.804 218.806 377.23C220.969 376.739 222.959 375.672 224.564 374.141C225.257 373.422 225.823 372.591 226.237 371.682C226.639 370.844 226.997 369.985 227.308 369.109C228.234 366.443 229.017 363.73 229.651 360.98C229.877 360.022 230.053 359.277 230.179 358.745C230.233 358.501 230.281 358.311 230.315 358.162C230.338 358.134 230.363 358.106 230.389 358.081Z" fill="#263238"/>
<path d="M212.445 368.153C212.445 368.208 211.944 368.431 211.199 368.952C209.244 370.305 207.958 372.426 207.663 374.785C207.541 375.686 207.588 376.255 207.527 376.255C207.384 375.772 207.345 375.264 207.412 374.765C207.585 372.286 208.945 370.043 211.064 368.743C211.478 368.453 211.949 368.252 212.445 368.153Z" fill="#263238"/>
<path d="M217.519 368.506C217.519 368.554 217.038 368.879 216.341 369.562C215.44 370.45 214.732 371.512 214.261 372.685C213.805 373.863 213.6 375.122 213.658 376.384C213.699 377.359 213.854 377.948 213.793 377.962C213.561 377.474 213.429 376.944 213.408 376.404C213.133 373.76 214.161 371.148 216.164 369.4C216.548 369.01 217.01 368.705 217.519 368.506Z" fill="#263238"/>
<path d="M235.408 359.917C235.21 359.889 235.016 359.843 234.826 359.782C234.453 359.68 233.891 359.544 233.186 359.321C231.188 358.691 229.236 357.919 227.347 357.011C224.55 355.651 221.898 354.012 219.429 352.12C216.409 349.789 213.697 347.085 211.355 344.073C210.772 343.355 210.277 342.59 209.743 341.865L210.034 341.661C210.298 341.987 210.484 342.369 210.576 342.779C210.587 342.924 210.541 343.068 210.447 343.179C210.355 343.275 210.233 343.337 210.101 343.355C209.891 343.382 209.678 343.37 209.472 343.321C208.719 343.162 208.006 342.851 207.379 342.407C204.9 340.798 202.755 338.729 201.058 336.31C199.7 334.412 198.525 332.388 197.549 330.268C196.73 328.479 196.195 327.016 195.815 326C195.632 325.499 195.518 325.099 195.429 324.828C195.383 324.695 195.344 324.559 195.315 324.422C195.386 324.544 195.442 324.673 195.484 324.808C195.598 325.099 195.741 325.486 195.931 325.96C196.31 326.962 196.899 328.412 197.752 330.173C198.745 332.268 199.932 334.266 201.295 336.141C202.987 338.516 205.113 340.55 207.561 342.136C208.149 342.538 208.809 342.824 209.505 342.976C209.851 343.043 210.257 343.036 210.183 342.799C210.095 342.457 209.934 342.137 209.709 341.865L209.993 341.661C210.522 342.379 211.016 343.138 211.598 343.849C213.919 346.838 216.602 349.527 219.585 351.856C223.69 355.059 228.3 357.554 233.227 359.24C233.905 359.483 234.481 359.639 234.846 359.761C235.038 359.796 235.226 359.849 235.408 359.917Z" fill="#263238"/>
<path d="M328.021 321.455L308.85 336.209C303.214 337.015 299.367 340.869 295.527 345.055C290.466 350.542 291.611 356.035 290.108 361.522C289.709 362.607 289.219 363.656 288.644 364.658C287.499 367.117 284.492 366.386 282.92 366.86C281.044 367.422 280.211 368.317 279.33 370.078C278.465 371.919 278.77 374.099 280.109 375.632C281.254 376.838 283.177 377.069 284.803 377.428C289.335 378.416 294.016 379.419 298.567 378.525C303.12 377.631 307.53 374.325 308.206 369.719C311.438 370.539 314.856 370.186 317.853 368.723C320.825 367.239 323.442 365.132 325.527 362.546C330.269 356.93 333.717 349.776 334.164 342.441C334.611 335.105 332.057 327.599 328.021 321.455Z" fill="#009476"/>
<path d="M328.021 321.455L308.85 336.209C303.214 337.015 299.367 340.869 295.527 345.055C290.466 350.542 291.611 356.035 290.108 361.522C289.709 362.607 289.219 363.656 288.644 364.658C287.499 367.117 284.492 366.386 282.92 366.86C281.044 367.422 280.211 368.317 279.33 370.078C278.465 371.919 278.77 374.099 280.109 375.632C281.254 376.838 283.177 377.069 284.803 377.428C289.335 378.416 294.016 379.419 298.567 378.525C303.12 377.631 307.53 374.325 308.206 369.719C311.438 370.539 314.856 370.186 317.853 368.723C320.825 367.239 323.442 365.132 325.527 362.546C330.269 356.93 333.717 349.776 334.164 342.441C334.611 335.105 332.057 327.599 328.021 321.455Z" stroke="#1A2E35" stroke-linecap="round" stroke-linejoin="round"/>
<path d="M313.03 336.208C312.975 336.199 312.922 336.181 312.873 336.154L312.433 335.964C311.868 335.715 311.287 335.507 310.693 335.341C308.516 334.726 306.227 334.615 304 335.016C302.466 335.284 300.979 335.772 299.583 336.465C297.986 337.269 296.522 338.313 295.241 339.561C292.331 342.454 290.282 346.098 289.321 350.088C288.379 354.094 288.193 358.24 288.772 362.314C288.969 363.252 288.908 364.225 288.597 365.132C288.398 365.567 288.075 365.932 287.668 366.182C287.283 366.409 286.857 366.561 286.415 366.629C285.562 366.778 284.735 366.765 283.97 366.853C283.236 366.922 282.523 367.142 281.877 367.496C279.843 368.578 278.716 370.828 279.066 373.105C279.191 373.924 279.474 374.711 279.899 375.422C279.758 375.258 279.638 375.078 279.54 374.886C279.236 374.339 279.029 373.743 278.93 373.125C278.762 372.143 278.857 371.132 279.208 370.199C279.991 368.204 281.818 366.809 283.95 366.582C284.743 366.487 285.562 366.494 286.375 366.345C287.216 366.257 287.954 365.746 288.332 364.99C288.612 364.132 288.656 363.215 288.461 362.334C287.86 358.224 288.042 354.036 288.996 349.992C289.967 345.926 292.063 342.214 295.045 339.283C296.355 338.021 297.851 336.967 299.482 336.16C300.906 335.467 302.424 334.985 303.987 334.731C306.248 334.344 308.567 334.493 310.761 335.164C311.557 335.418 312.319 335.768 313.03 336.208Z" fill="#263238"/>
<path d="M284.052 376.939C283.698 376.574 283.446 376.124 283.32 375.632C282.493 373.203 283.56 370.535 285.834 369.346C286.263 369.074 286.76 368.924 287.269 368.912C287.269 368.966 286.721 369.095 285.962 369.59C283.895 370.815 282.909 373.277 283.557 375.591C283.787 376.431 284.106 376.905 284.052 376.939Z" fill="#263238"/>
<path d="M291.354 378.328C291.202 378.286 291.061 378.212 290.941 378.111C290.593 377.873 290.285 377.583 290.027 377.251C288.311 375.169 288.61 372.091 290.691 370.376C290.893 370.21 291.108 370.06 291.334 369.928C291.693 369.706 292.083 369.539 292.492 369.434C292.639 369.382 292.797 369.363 292.952 369.38C292.441 369.596 291.945 369.85 291.469 370.138C289.225 371.593 288.584 374.592 290.038 376.837C290.097 376.927 290.158 377.016 290.222 377.102C290.571 377.536 290.949 377.946 291.354 378.328Z" fill="#263238"/>
<path d="M334.164 342.426C334.096 342.426 334.306 341.228 334.401 339.283C334.461 338.155 334.461 337.024 334.401 335.896C334.306 334.51 334.132 333.13 333.879 331.764C333.394 329.282 332.664 326.854 331.699 324.516C331.332 323.616 331.021 322.891 330.784 322.403C330.652 322.15 330.545 321.884 330.465 321.611C330.636 321.84 330.783 322.085 330.906 322.342C331.177 322.816 331.529 323.52 331.928 324.415C332.968 326.747 333.738 329.19 334.225 331.697C334.485 333.079 334.652 334.478 334.726 335.883C334.779 337.027 334.761 338.175 334.672 339.317C334.618 340.09 334.519 340.859 334.374 341.62C334.329 341.895 334.259 342.165 334.164 342.426Z" fill="#263238"/>
<path d="M292.749 317.621C292.622 317.552 292.504 317.467 292.397 317.37C292.173 317.194 291.862 316.916 291.483 316.55C290.451 315.527 289.558 314.372 288.827 313.116L289.105 312.987C289.675 314.631 289.878 316.378 289.701 318.108C289.642 318.67 289.542 319.227 289.403 319.775L289.301 320.174L289.084 319.822C287.675 317.553 286.443 315.541 285.576 314.084L284.58 312.371C284.447 312.169 284.336 311.953 284.248 311.727C284.416 311.901 284.562 312.094 284.682 312.303L285.786 313.963C286.707 315.385 287.974 317.35 289.396 319.639L289.078 319.686C289.21 319.157 289.305 318.618 289.363 318.074C289.534 316.394 289.351 314.696 288.827 313.089L289.112 312.96C289.814 314.209 290.66 315.37 291.631 316.422C292.322 317.187 292.777 317.587 292.749 317.621Z" fill="#263238"/>
<g opacity="0.300003">
<path d="M292.641 341.749C288.868 345.215 286.199 349.715 284.966 354.688C284.745 356.055 284.3 357.378 283.652 358.602C282.074 361.048 278.734 361.664 275.828 361.387L267.964 360.662L265.193 369.21C270.267 369.888 279.148 370.274 279.148 370.274C280.346 367.808 282.121 366.65 284.742 366.575C285.479 366.546 286.209 366.442 286.924 366.264C287.856 365.922 288.506 365.072 288.59 364.082C288.657 363.111 288.568 362.134 288.326 361.19C287.151 354.394 288.702 347.41 292.641 341.749Z" fill="black"/>
</g>
<g opacity="0.300003">
<path d="M221.177 352.33L243.835 360.113L244.357 363.426C244.357 363.426 222.938 357.092 221.177 352.33Z" fill="black"/>
</g>
<g opacity="0.330002">
<path d="M245.366 260.788L186.549 291.501C190.343 311.822 197.272 324.293 213.082 337.617C214.755 339.026 222.01 343.978 224.015 344.858C226.007 345.822 228.296 345.97 230.396 345.271C232.97 344.283 234.616 341.769 235.747 339.256C238.89 332.306 239.358 324.496 239.778 316.902C240.932 318.371 241.698 320.107 242.006 321.949C246.558 315.852 238.457 294.948 238.85 287.355C239.534 274.139 247.798 273.794 245.366 260.788Z" fill="black"/>
</g>
<path d="M186.61 291.664C186.61 291.664 174.418 262.943 174.248 250.418C174.079 237.893 184.673 228.607 184.673 228.607C186.321 220.66 188.655 212.873 191.65 205.331C196.297 194.066 210.332 176.733 214.254 177.978C218.177 179.225 219.978 181.366 219.999 191.527C220.019 201.687 221.286 207.553 221.286 207.553C221.286 207.553 230.518 209.586 233.478 212.904C233.478 212.904 235.572 212.715 238.166 210.453C240.76 208.19 259.165 192.109 264.442 195.929C269.718 199.75 267.923 218.025 263.818 225.829C259.713 233.633 252.98 243.684 252.756 244.613C252.533 245.541 255.277 257.185 253.766 263.18C252.256 269.174 247.913 276.727 240.612 282.384C233.309 288.04 211.484 301.486 201.079 298.952C190.675 296.419 186.61 291.664 186.61 291.664Z" fill="white"/>
<path d="M263.805 225.849C267.91 218.046 269.678 199.77 264.427 195.949C259.178 192.129 240.753 208.183 238.152 210.473C235.551 212.762 233.465 212.925 233.465 212.925C233.146 212.574 232.792 212.256 232.408 211.977C229.274 214.288 226.477 217.023 224.097 220.105C220.999 224.087 219.04 228.835 218.427 233.842C218.197 236.085 218.318 238.463 219.45 240.42C220.859 242.851 223.575 244.213 226.264 245.019C235.592 247.823 253.305 240.955 248.421 262.536C248.421 262.536 244.601 272.42 241.044 278.543C240.13 280.121 239.541 283.583 239.013 285.317C239.622 284.877 242.745 285.784 243.232 285.405C250.541 279.762 260.966 272.751 258.995 266.892C255.845 257.53 252.479 245.541 252.729 244.619C252.98 243.698 259.7 233.646 263.805 225.849Z" fill="#009476"/>
<path d="M263.805 225.849C267.91 218.046 269.678 199.77 264.427 195.949C259.178 192.129 240.753 208.183 238.152 210.473C235.551 212.762 233.465 212.925 233.465 212.925C233.146 212.574 232.792 212.256 232.408 211.977C229.274 214.288 226.477 217.023 224.097 220.105C220.999 224.087 219.04 228.835 218.427 233.842C218.197 236.085 218.318 238.463 219.45 240.42C220.859 242.851 223.575 244.213 226.264 245.019C235.592 247.823 253.305 240.955 248.421 262.536C248.421 262.536 244.601 272.42 241.044 278.543C240.13 280.121 239.541 283.583 239.013 285.317C239.622 284.877 242.745 285.784 243.232 285.405C250.541 279.762 260.966 272.751 258.995 266.892C255.845 257.53 252.479 245.541 252.729 244.619C252.98 243.698 259.7 233.646 263.805 225.849Z" stroke="#1A2E35" stroke-linecap="round" stroke-linejoin="round"/>
<g opacity="0.330002">
<path d="M263.202 199.499C261.949 198.653 260.262 199.1 258.88 199.71C251.367 203.125 244.95 208.56 240.347 215.411C240.422 222.591 242.575 229.594 246.545 235.577C247.162 236.498 248.049 237.501 249.147 237.351C249.941 237.13 250.613 236.601 251.016 235.882C257.911 226.541 263.175 215.73 264.469 204.187C264.659 202.494 264.611 200.455 263.202 199.499Z" fill="black"/>
</g>
<path d="M209.194 229.595C212.263 225.49 215.06 221.175 218.42 217.307C221.019 214.202 224.139 211.574 227.639 209.538C225.567 208.751 223.444 208.105 221.286 207.601C221.286 207.601 220.019 201.775 219.999 191.574C219.978 181.372 218.169 179.245 214.254 178.026C210.339 176.807 196.297 194.114 191.65 205.379C189.054 211.881 186.962 218.572 185.391 225.396L185.52 225.456C188.405 227.488 190.688 230.252 193.506 232.366C196.324 234.479 200.029 235.942 203.355 234.777C205.834 233.856 207.616 231.702 209.194 229.595Z" fill="#009476"/>
<path d="M209.194 229.595C212.263 225.49 215.06 221.175 218.42 217.307C221.019 214.202 224.139 211.574 227.639 209.538C225.567 208.751 223.444 208.105 221.286 207.601C221.286 207.601 220.019 201.775 219.999 191.574C219.978 181.372 218.169 179.245 214.254 178.026C210.339 176.807 196.297 194.114 191.65 205.379C189.054 211.881 186.962 218.572 185.391 225.396L185.52 225.456C188.405 227.488 190.688 230.252 193.506 232.366C196.324 234.479 200.029 235.942 203.355 234.777C205.834 233.856 207.616 231.702 209.194 229.595Z" stroke="#1A2E35" stroke-linecap="round" stroke-linejoin="round"/>
<path d="M209.716 242.73C208.121 241.551 206.33 240.663 204.425 240.108C203.26 239.723 201.837 239.472 200.923 240.291C200.225 241.025 200.03 242.103 200.428 243.035C200.834 243.941 201.44 244.743 202.203 245.379C202.923 246.151 203.82 246.735 204.818 247.079C206.498 247.539 207.339 247.228 208.882 246.442C209.598 246.083 210.258 245.627 210.847 245.087C211.273 244.674 211.335 243.577 209.716 242.73Z" fill="#263238"/>
<path d="M216.929 251.19C214.173 253.324 213.434 256.358 212.574 259.739C211.714 263.119 211.111 266.654 209.241 269.594C207.371 272.534 203.774 274.749 200.435 273.754C198.612 273.144 197.109 271.832 196.256 270.109C195.422 268.395 194.985 266.515 194.976 264.609C194.75 258.697 197.121 252.983 201.465 248.968C202.417 249.113 203.344 249.396 204.215 249.808C204.988 250.323 209.336 252.91 212.499 252.138C215.663 251.366 216.929 251.19 216.929 251.19Z" fill="#009476"/>
<path d="M216.929 251.19C214.173 253.324 213.434 256.358 212.574 259.739C211.714 263.119 211.111 266.654 209.241 269.594C207.371 272.534 203.774 274.749 200.435 273.754C198.612 273.144 197.109 271.832 196.256 270.109C195.422 268.395 194.985 266.515 194.976 264.609C194.75 258.697 197.121 252.983 201.465 248.968C202.417 249.113 203.344 249.396 204.215 249.808C204.988 250.323 209.336 252.91 212.499 252.138C215.663 251.366 216.929 251.19 216.929 251.19Z" stroke="#1A2E35" stroke-linecap="round" stroke-linejoin="round"/>
<path d="M202.569 262.326C202.47 261.732 202.47 261.125 202.569 260.531C202.726 259.084 203.11 257.672 203.707 256.344C204.295 255.011 205.086 253.778 206.051 252.687C206.434 252.218 206.892 251.815 207.406 251.495C207.446 251.542 206.938 252.003 206.247 252.849C205.358 253.961 204.615 255.184 204.039 256.487C203.456 257.782 203.049 259.149 202.826 260.551C202.617 261.642 202.617 262.326 202.569 262.326Z" fill="#263238"/>
<path d="M221.868 248.068C221.815 248.189 221.747 248.302 221.665 248.406C221.451 248.714 221.203 248.995 220.927 249.246C219.875 250.156 218.639 250.826 217.302 251.211C216.396 251.497 215.476 251.736 214.546 251.929C213.483 252.205 212.392 252.348 211.294 252.355C208.753 252.34 206.281 251.525 204.229 250.025C203.723 249.647 203.148 249.371 202.536 249.212C201.94 249.091 201.296 249.212 200.646 249.084C199.401 248.856 198.32 248.09 197.692 246.99C197.098 246.04 196.786 244.941 196.791 243.82C196.802 242.853 197.015 241.898 197.415 241.016C197.986 239.741 198.901 238.65 200.057 237.866C200.372 237.66 200.706 237.481 201.052 237.331C201.169 237.276 201.292 237.233 201.418 237.202C201.418 237.202 200.924 237.426 200.138 237.981C199.042 238.783 198.181 239.864 197.645 241.111C197.278 241.968 197.088 242.889 197.083 243.82C197.093 244.883 197.398 245.922 197.963 246.821C198.545 247.825 199.534 248.526 200.673 248.745C201.255 248.847 201.899 248.745 202.576 248.867C203.234 249.036 203.852 249.33 204.399 249.734C206.394 251.193 208.795 251.996 211.267 252.03C212.343 252.031 213.413 251.901 214.458 251.644C215.453 251.434 216.382 251.225 217.201 250.967C218.515 250.616 219.743 249.995 220.805 249.145C221.179 248.805 221.534 248.446 221.868 248.068Z" fill="#263238"/>
<g opacity="0.330002">
<path d="M190.295 222.212C196.827 217.014 203.888 212.519 211.361 208.8C212.461 208.341 213.462 207.674 214.308 206.836C215.283 205.718 215.622 204.207 215.927 202.771C217.058 197.426 218.19 191.832 216.726 186.568C216.211 184.719 215.04 182.693 213.123 182.552C211.91 182.456 210.799 183.161 209.83 183.906C202.928 189.203 198.87 197.304 195.036 205.122C192.456 210.391 189.821 215.851 189.536 221.718" fill="black"/>
</g>
<path d="M203.335 249.334C202.897 248.831 202.667 248.179 202.691 247.512C202.619 246.847 202.795 246.179 203.186 245.635C203.295 245.677 203.003 246.482 203.044 247.492C203.084 248.501 203.437 249.287 203.335 249.334Z" fill="#263238"/>
<g opacity="0.600006">
<path d="M229.834 225.159C228.261 224.823 226.628 224.899 225.092 225.375C224.513 225.503 224.018 225.876 223.738 226.399C223.419 227.245 224.198 228.099 224.956 228.593C226.407 229.524 228.062 230.087 229.78 230.232C230.388 230.308 231.006 230.259 231.595 230.09C232.188 229.917 232.68 229.501 232.95 228.945C233.254 228.045 232.986 227.051 232.272 226.425C231.568 225.816 230.748 225.356 229.861 225.07" fill="white"/>
</g>
<g opacity="0.600006">
<path d="M207.013 217.931C205.44 217.594 203.807 217.668 202.271 218.147C201.68 218.265 201.171 218.64 200.883 219.171C200.558 220.017 201.336 220.871 202.095 221.365C203.545 222.296 205.201 222.859 206.918 223.005C207.527 223.08 208.144 223.031 208.733 222.862C209.326 222.687 209.817 222.272 210.088 221.717C210.389 220.817 210.121 219.825 209.411 219.197C208.707 218.587 207.886 218.126 206.999 217.843" fill="white"/>
</g>
<path d="M208.388 193.376C208.436 193.423 207.589 194.29 206.491 195.895C205.851 196.832 205.281 197.815 204.785 198.835C203.563 201.344 202.798 204.051 202.529 206.829C202.421 207.954 202.394 209.086 202.447 210.215C202.549 212.152 202.813 213.338 202.745 213.352C202.641 213.085 202.566 212.808 202.522 212.525C202.446 212.202 202.387 211.873 202.346 211.543C202.298 211.157 202.217 210.717 202.197 210.229C202.102 209.081 202.102 207.928 202.197 206.781C202.436 203.965 203.216 201.221 204.493 198.7C205.009 197.672 205.61 196.689 206.288 195.76C206.566 195.353 206.857 195.015 207.101 194.717C207.313 194.456 207.539 194.207 207.778 193.972C207.959 193.751 208.163 193.551 208.388 193.376Z" fill="#263238"/>
<path d="M228.222 236.863C228.188 238.554 226.79 239.897 225.099 239.863C223.408 239.829 222.065 238.431 222.099 236.74C222.133 235.049 223.532 233.706 225.222 233.74H225.227C226.915 233.774 228.255 235.168 228.222 236.855V236.863Z" fill="#263238"/>
<path d="M204.913 228.728C204.879 230.419 203.481 231.761 201.79 231.727C200.099 231.694 198.757 230.295 198.791 228.605C198.825 226.914 200.223 225.571 201.914 225.605H201.919C203.607 225.643 204.947 227.039 204.913 228.728Z" fill="#263238"/>
<path d="M262.578 204.647C262.491 204.753 262.396 204.853 262.294 204.945L261.447 205.758C260.709 206.435 259.652 207.492 258.399 208.82C255.121 212.293 252.199 216.085 249.674 220.139L249.478 220.457L249.356 220.105C249.302 219.936 249.234 219.752 249.173 219.569C248.584 217.89 248.022 216.257 247.486 214.726H247.805C246.245 218.123 245.362 221.79 245.203 225.524C245.158 226.612 245.171 227.702 245.244 228.789C245.287 229.18 245.308 229.573 245.305 229.967C245.27 229.872 245.25 229.771 245.244 229.669C245.244 229.473 245.163 229.182 245.123 228.802C245.008 227.711 244.964 226.614 244.987 225.517C245.073 221.741 245.925 218.021 247.493 214.584L247.669 214.198L247.811 214.597L249.505 219.441L249.688 219.976L249.376 219.942C251.909 215.866 254.875 212.075 258.223 208.637C259.503 207.329 260.587 206.32 261.352 205.643C261.732 205.304 262.03 205.053 262.247 204.877C262.347 204.786 262.458 204.709 262.578 204.647Z" fill="#263238"/>
<path d="M214.308 301.513C214.361 301.698 214.39 301.89 214.396 302.082C214.437 302.455 214.477 303.01 214.511 303.708C214.581 305.656 214.497 307.606 214.26 309.54L214.227 309.805L214.017 309.635C211.78 307.896 209.863 305.781 208.354 303.382C208.191 303.125 208.042 302.868 207.893 302.617L208.218 302.489L209.986 309.805L210.115 310.333L209.736 309.946C208.358 308.55 207.231 306.928 206.403 305.15C206.173 304.654 205.969 304.145 205.793 303.627C205.722 303.445 205.673 303.257 205.644 303.064C205.74 303.232 205.82 303.409 205.881 303.593C206.03 303.938 206.247 304.446 206.558 305.07C207.431 306.794 208.574 308.367 209.946 309.729L209.695 309.872C209.16 307.724 208.537 305.239 207.873 302.569L207.588 301.418L208.198 302.441C208.347 302.692 208.496 302.942 208.652 303.193C210.141 305.557 212.016 307.654 214.2 309.398L213.956 309.5C214.214 307.582 214.341 305.649 214.335 303.715V302.089C214.309 301.898 214.299 301.705 214.308 301.513Z" fill="#263238"/>
</svg>
