<svg width="157" height="35" viewBox="0 0 157 35" fill="none" xmlns="http://www.w3.org/2000/svg">
<g clip-path="url(#clip0_211_552)">
<path d="M19.2144 8.37778C17.5956 7.40393 15.6953 6.91113 13.5252 6.91113C12.2114 6.91113 10.9797 7.16926 9.81836 7.67379C9.06762 8.01405 8.25822 8.17831 7.43709 8.08445L1.21996 7.35699C0.55133 7.35699 0.0117302 7.89672 0.0117302 8.56551V33.7801C0.0117302 34.4488 0.55133 34.9886 1.21996 34.9886H7.31978C7.98842 34.9886 8.52802 34.4488 8.52802 33.7801V28.6644C8.93858 28.8873 9.36088 29.0985 9.81836 29.2745C10.9797 29.7087 12.2114 29.9316 13.5252 29.9316C15.6953 29.9316 17.5956 29.4388 19.2144 28.4532C20.8332 27.4676 22.1001 26.1066 23.0034 24.3818C23.9066 22.657 24.3641 20.6741 24.3641 18.4214C24.3641 16.1686 23.9066 14.1857 23.0034 12.4374C22.1001 10.7009 20.8332 9.3399 19.2144 8.36604V8.37778ZM15.1088 20.3573C14.7921 20.9323 14.358 21.3781 13.795 21.7066C13.2319 22.0352 12.5867 22.1994 11.8712 22.1994C11.1556 22.1994 10.5222 22.0352 9.97086 21.7066C9.41953 21.3781 8.99724 20.9323 8.70397 20.3573C8.41071 19.7941 8.25822 19.1488 8.25822 18.4214C8.25822 17.6939 8.41071 17.0134 8.72744 16.4385C9.04416 15.8753 9.46645 15.4294 10.0178 15.1126C10.5691 14.7958 11.2026 14.6433 11.9181 14.6433C12.6337 14.6433 13.2671 14.8075 13.8184 15.1361C14.3698 15.4646 14.8038 15.9105 15.1088 16.4619C15.4255 17.0134 15.578 17.6704 15.578 18.4214C15.578 19.1723 15.4255 19.7824 15.1088 20.3573Z" fill="black"/>
<path d="M71.1333 13.2117C71.7315 13.2117 72.4706 13.3525 73.3621 13.6341C73.9369 13.8218 74.4882 14.1152 74.9926 14.5376C75.1099 14.6314 75.2389 14.6901 75.368 14.737C75.4736 12.6485 76.8108 10.4544 79.4502 9.51577C78.5352 8.70619 77.4325 8.06086 76.1305 7.59154C74.3122 6.93448 72.4354 6.60595 70.4999 6.60595C68.5643 6.60595 66.9221 6.93448 65.4792 7.56807C64.576 7.967 63.8252 8.47152 63.1801 9.04645V7.88487C63.1801 7.60327 62.9455 7.36861 62.6639 7.36861H59.0158C58.7342 7.36861 58.4996 7.13394 58.4996 6.85235V0.762841C58.4996 0.481245 58.265 0.246582 57.9835 0.246582H50.2649C49.9833 0.246582 49.7487 0.481245 49.7487 0.762841V6.85235C49.7487 7.13394 49.5141 7.36861 49.2326 7.36861H45.5844C45.3029 7.36861 45.0683 7.60327 45.0683 7.88487V9.56271C44.4935 9.06991 43.8718 8.62405 43.168 8.24859C41.4084 7.29821 39.3908 6.82888 37.0916 6.82888C34.7924 6.82888 32.681 7.33341 30.8393 8.33073C28.9976 9.33978 27.543 10.7008 26.4873 12.4491C25.4316 14.1856 24.9037 16.1802 24.9037 18.433C24.9037 20.6857 25.4433 22.7273 26.5342 24.4755C27.6252 26.2238 29.1266 27.5966 31.0622 28.5704C32.9977 29.5443 35.2382 30.0371 37.8072 30.0371C39.8013 30.0371 41.5726 29.7203 43.121 29.0984C44.2706 28.6291 45.2912 27.9955 46.1944 27.1859C46.7106 26.7166 46.7223 25.907 46.2296 25.4142L43.5668 22.7625C43.1093 22.3049 42.3938 22.3166 41.9011 22.7273C41.4788 23.0793 41.0213 23.3609 40.5521 23.5604C39.7661 23.9006 38.8512 24.0766 37.8072 24.0766C36.7632 24.0766 35.8482 23.8654 35.1326 23.443C35.3907 22.5044 35.4259 22.3401 35.4376 22.3166C35.4376 22.2932 35.4845 22.1289 35.7426 21.1903L47.4378 21.1081C48.0361 21.1081 48.5405 20.674 48.6343 20.0873C48.6695 19.8292 48.7047 19.5946 48.7282 19.3716C48.7751 18.8788 48.7986 18.4095 48.7986 17.9519C48.7986 16.7551 48.6226 15.6287 48.3176 14.5845H49.2443C49.5259 14.5845 49.7605 14.8192 49.7605 15.1008V28.9928C49.7605 29.2744 49.9951 29.5091 50.2766 29.5091H57.9952C58.2767 29.5091 58.5114 29.2744 58.5114 28.9928V15.1008C58.5114 14.8192 58.746 14.5845 59.0275 14.5845H60.9982C61.0569 15.6757 61.2797 16.6026 61.6786 17.3535C62.1595 18.2335 62.7812 18.9258 63.5554 19.4186C64.3297 19.9114 65.139 20.2985 65.9836 20.5919C66.8282 20.8735 67.6376 21.1081 68.4001 21.2841C69.1626 21.4601 69.7843 21.6596 70.277 21.8708C70.7697 22.082 71.016 22.3988 71.016 22.8094C71.016 23.0558 70.8752 23.2318 70.5937 23.3726C70.3122 23.5134 69.9133 23.5721 69.4089 23.5721C68.3063 23.5721 67.2623 23.3609 66.2652 22.9385C65.62 22.6686 65.0217 22.3284 64.4939 21.9295C64.0129 21.5657 63.3326 21.6127 62.9103 22.0585L59.9894 25.0857C59.485 25.6019 59.5436 26.4467 60.1067 26.8808C60.6932 27.3384 61.3501 27.7608 62.0774 28.1598C63.2505 28.7934 64.5291 29.2861 65.8898 29.6381C67.2623 30.0019 68.623 30.1779 69.9954 30.1779C71.7433 30.1779 73.2448 29.9197 74.5586 29.4621C73.409 28.324 72.8929 26.8808 72.8929 25.4729C72.8929 22.61 74.4647 20.5097 76.9985 19.2191V19.1018C76.4354 18.5268 75.931 17.6351 75.6378 16.6613C75.2976 16.4853 74.9457 16.3327 74.5938 16.2037C73.7609 15.8986 72.9632 15.6639 72.2008 15.488C71.4383 15.312 70.8283 15.1125 70.3474 14.9013C69.8664 14.6901 69.6318 14.4202 69.6318 14.0917C69.6318 13.857 69.7491 13.6458 69.972 13.4816C70.1949 13.3173 70.5937 13.2352 71.1568 13.2352L71.1333 13.2117ZM35.6136 15.7578C34.9567 13.8688 35.508 15.441 34.8511 13.552C34.8863 13.5285 34.9215 13.505 34.9567 13.4698C35.6136 13.024 36.3878 12.8011 37.2793 12.8011C38.1708 12.8011 38.8512 13.0005 39.426 13.3877C39.989 13.7749 40.4113 14.3498 40.6928 15.1242C40.7632 15.312 40.8219 15.5114 40.8688 15.7226L35.6136 15.7695V15.7578Z" fill="black"/>
<path d="M80.9634 33.5451C80.9634 34.2139 81.503 34.7536 82.1716 34.7536H88.2714C88.9401 34.7536 89.4797 34.2139 89.4797 33.5451V28.6406C86.9459 30.8934 83.8373 31.7382 80.9517 31.6795V33.5568L80.9634 33.5451Z" fill="black"/>
<path d="M100.178 8.1312C98.559 7.15734 96.6587 6.66455 94.4886 6.66455C93.1748 6.66455 91.9431 6.92268 90.7818 7.42721C90.031 7.75573 89.2216 7.92 88.4122 7.82613L82.1951 7.09868C81.5264 7.09868 80.9868 7.6384 80.9868 8.30719V9.12851C81.4326 9.05812 81.8901 9.02292 82.3828 9.02292C86.0192 9.02292 88.7407 11.0997 88.7407 14.3615C88.7407 16.5439 87.462 18.4681 84.6467 19.8995L84.6233 20.0403C85.5265 21.0259 86.465 22.1758 87.3095 23.044C87.4151 23.1614 87.6028 23.1379 87.6849 22.9971C88.4122 21.7534 88.987 20.0286 89.2451 18.562C89.2451 18.5385 89.2685 18.5268 89.2803 18.515C89.2803 18.386 89.2451 18.2804 89.2451 18.1513C89.2451 17.4004 89.3976 16.7433 89.7143 16.1684C90.031 15.6052 90.4533 15.1594 91.0046 14.8426C91.556 14.5258 92.1894 14.3732 92.905 14.3732C93.6205 14.3732 94.254 14.5375 94.8053 14.866C95.3566 15.1946 95.7906 15.6404 96.0956 16.1919C96.4124 16.7433 96.5649 17.4004 96.5649 18.1513C96.5649 18.9022 96.4124 19.5124 96.0956 20.0873C95.7789 20.6622 95.3449 21.1081 94.7818 21.4366C94.4299 21.6361 94.0545 21.7534 93.644 21.8355C92.729 24.7805 91.3214 26.9394 89.6674 28.4765C90.031 28.676 90.3947 28.8637 90.8052 29.0162C91.9665 29.4503 93.1982 29.6733 94.512 29.6733C96.6822 29.6733 98.5825 29.1805 100.201 28.1949C101.82 27.2093 103.087 25.8483 104.002 24.1235C104.905 22.3987 105.363 20.4158 105.363 18.163C105.363 15.9103 104.905 13.9274 104.002 12.1791C103.099 10.4426 101.832 9.08158 100.201 8.10773L100.178 8.1312Z" fill="black"/>
<path d="M82.2068 12.6367C81.6555 12.6367 81.2449 12.8831 80.9634 13.2468C80.7053 13.5754 80.5763 14.0095 80.5763 14.4436C80.5763 14.9364 80.7053 15.4175 80.9634 15.9103C81.1863 16.3444 81.5147 16.7785 81.9839 17.2596C83.286 16.2623 83.8139 15.5231 83.8139 14.514C83.8139 13.6223 83.2743 12.6367 82.2068 12.6367Z" fill="black"/>
<path d="M80.9634 23.5482C80.5176 23.0437 80.0601 22.5392 79.6027 22.0347C79.5557 22.0699 79.5323 22.1051 79.4854 22.1403C78.7933 22.7269 78.3592 23.4661 78.3592 24.4517C78.3592 25.0266 78.5235 25.5781 78.8167 26.0474C79.2507 26.7279 79.978 27.2325 80.9517 27.3967C81.1628 27.4319 81.3857 27.4554 81.632 27.4554C82.6526 27.4554 83.4854 27.1269 83.9664 26.7279C83.0162 25.8127 81.9957 24.6864 80.9517 23.5248L80.9634 23.5482Z" fill="black"/>
<path d="M114.196 0H106.477C106.192 0 105.961 0.231137 105.961 0.516259V28.7228C105.961 29.0079 106.192 29.239 106.477 29.239H114.196C114.481 29.239 114.712 29.0079 114.712 28.7228V0.516259C114.712 0.231137 114.481 0 114.196 0Z" fill="black"/>
<path d="M137.352 8.33059C137.352 7.6618 136.812 7.12207 136.143 7.12207H129.821C129.152 7.12207 128.612 7.6618 128.612 8.33059V19.9699C128.612 20.6621 128.401 21.2253 127.967 21.6594C127.533 22.0936 127.005 22.3048 126.384 22.3048C125.938 22.3048 125.539 22.2109 125.199 22.0114C124.859 21.812 124.589 21.5421 124.389 21.1784C124.19 20.8147 124.096 20.4157 124.096 19.9699V8.33059C124.096 7.6618 123.557 7.12207 122.888 7.12207H116.565C115.897 7.12207 115.357 7.6618 115.357 8.33059V19.8877C115.357 21.8002 115.838 23.5133 116.788 25.0151C117.738 26.517 119.04 27.6786 120.694 28.5233C122.348 29.3681 124.249 29.7788 126.384 29.7788C128.519 29.7788 130.419 29.3564 132.073 28.5233C133.727 27.6903 135.017 26.5287 135.956 25.0386C136.894 23.5602 137.363 21.8354 137.363 19.8877V8.33059H137.352Z" fill="black"/>
<path d="M148.132 12.9651C148.73 12.9651 149.469 13.1059 150.361 13.3875C150.935 13.5753 151.487 13.8686 151.991 14.291C152.484 14.6899 153.199 14.6782 153.645 14.2206L156.636 11.1465C157.106 10.6654 157.106 9.87932 156.613 9.42173C155.663 8.54174 154.501 7.84949 153.117 7.34496C151.299 6.6879 149.422 6.35938 147.487 6.35938C145.551 6.35938 143.909 6.6879 142.466 7.32149C141.023 7.96682 139.909 8.83507 139.123 9.92625C138.337 11.0174 137.938 12.2729 137.938 13.6809C137.938 15.0888 138.173 16.1918 138.654 17.0717C139.135 17.9517 139.756 18.644 140.531 19.1368C141.305 19.6296 142.114 20.0168 142.959 20.3101C143.803 20.5917 144.613 20.8264 145.375 21.0024C146.138 21.1783 146.759 21.3778 147.252 21.589C147.745 21.8002 147.991 22.117 147.991 22.5277C147.991 22.7741 147.85 22.9501 147.569 23.0909C147.287 23.2199 146.888 23.2903 146.384 23.2903C145.281 23.2903 144.237 23.0791 143.24 22.6567C142.595 22.3869 141.997 22.0466 141.469 21.6477C140.988 21.2839 140.308 21.3309 139.885 21.7767L136.964 24.8039C136.46 25.3202 136.519 26.1649 137.082 26.5991C137.668 27.0567 138.325 27.4791 139.052 27.878C140.226 28.5116 141.504 29.0044 142.865 29.3564C144.237 29.7201 145.598 29.8961 146.971 29.8961C149.891 29.8961 152.214 29.2508 153.938 27.9601C155.663 26.6695 156.531 24.933 156.531 22.7506C156.531 21.3426 156.296 20.1928 155.815 19.3128C155.334 18.4328 154.724 17.7171 153.962 17.1773C153.199 16.6376 152.402 16.2152 151.569 15.9219C150.736 15.6168 149.938 15.3822 149.176 15.2062C148.413 15.0302 147.803 14.8307 147.322 14.6195C146.841 14.4083 146.607 14.1385 146.607 13.8099C146.607 13.5753 146.724 13.3641 146.947 13.1998C147.17 13.0355 147.569 12.9534 148.132 12.9534V12.9651Z" fill="black"/>
</g>
<defs>
<clipPath id="clip0_211_552">
<rect width="157" height="35" fill="white"/>
</clipPath>
</defs>
</svg>
