<svg width="369" height="560" viewBox="0 0 369 560" fill="none" xmlns="http://www.w3.org/2000/svg">
<path d="M42.2101 141.5C42.2101 63.3517 105.562 0 183.71 0C261.858 0 325.21 63.3517 325.21 141.5V418.5C325.21 496.648 261.858 560 183.71 560C105.562 560 42.2101 496.648 42.2101 418.5V141.5Z" fill="#DEF7E5"/>
<path d="M6.00697 269.003C6.00697 269.003 14.6399 331.179 70.9664 366.542C127.293 401.906 199.539 396.24 258.189 393.194C316.84 390.147 358.053 351.684 359.484 300.856C360.914 250.029 314.86 240.694 284.673 186.66C254.486 132.626 254.647 113.652 199.849 84.7731C145.049 55.8947 67.4242 87.0008 31.898 152.027C-3.6289 217.053 6.00697 269.003 6.00697 269.003Z" fill="#92E3A9"/>
<path d="M368.365 365.515C368.365 383.456 285.903 398 184.182 398C82.4608 398 0 383.456 0 365.515C0 347.574 82.4608 333.03 184.182 333.03C285.903 333.03 368.365 347.574 368.365 365.515Z" fill="#92E3A9"/>
<path d="M338.785 195.367C338.785 195.367 338.785 191.64 333.568 186.423C328.35 181.205 324.996 178.223 324.996 178.223C324.996 178.223 322.387 186.795 327.232 192.013C332.077 197.23 338.785 202.076 338.785 202.076V195.367Z" fill="#149477"/>
<path d="M338.785 195.367C338.785 195.367 338.785 191.64 333.568 186.423C328.35 181.205 324.996 178.223 324.996 178.223C324.996 178.223 322.387 186.795 327.232 192.013C332.077 197.23 338.785 202.076 338.785 202.076V195.367Z" stroke="#263238" stroke-linecap="round" stroke-linejoin="round"/>
<path d="M331.212 218.643C331.212 218.643 331.212 214.916 325.994 209.698C320.777 204.48 317.423 201.499 317.423 201.499C317.423 201.499 314.814 210.071 319.659 215.289C324.504 220.507 331.212 225.351 331.212 225.351V218.643Z" fill="#149477"/>
<path d="M331.212 218.643C331.212 218.643 331.212 214.916 325.994 209.698C320.777 204.48 317.423 201.499 317.423 201.499C317.423 201.499 314.814 210.071 319.659 215.289C324.504 220.507 331.212 225.351 331.212 225.351V218.643Z" stroke="#263238" stroke-linecap="round" stroke-linejoin="round"/>
<path d="M338.457 201.715C338.457 201.715 338.851 198.009 344.591 193.371C350.331 188.734 353.981 186.124 353.981 186.124C353.981 186.124 355.67 194.924 350.301 199.6C344.931 204.276 337.748 208.386 337.748 208.386L338.457 201.715Z" fill="#149477"/>
<path d="M338.457 201.715C338.457 201.715 338.851 198.009 344.591 193.371C350.331 188.734 353.981 186.124 353.981 186.124C353.981 186.124 355.67 194.924 350.301 199.6C344.931 204.276 337.748 208.386 337.748 208.386L338.457 201.715Z" stroke="#263238" stroke-linecap="round" stroke-linejoin="round"/>
<path d="M329.309 229.204C329.309 229.204 330.09 225.559 336.285 221.551C342.48 217.542 346.386 215.33 346.386 215.33C346.386 215.33 347.141 224.258 341.309 228.345C335.479 232.431 327.903 235.763 327.903 235.763L329.309 229.204Z" fill="#149477"/>
<path d="M329.309 229.204C329.309 229.204 330.09 225.559 336.285 221.551C342.48 217.542 346.386 215.33 346.386 215.33C346.386 215.33 347.141 224.258 341.309 228.345C335.479 232.431 327.903 235.763 327.903 235.763L329.309 229.204Z" stroke="#263238" stroke-linecap="round" stroke-linejoin="round"/>
<path d="M331.029 259.174C331.029 259.174 331.029 255.447 336.246 250.229C341.464 245.012 344.819 242.03 344.819 242.03C344.819 242.03 347.428 250.602 342.582 255.82C337.737 261.037 331.029 265.882 331.029 265.882V259.174Z" fill="#149477"/>
<path d="M331.029 259.174C331.029 259.174 331.029 255.447 336.246 250.229C341.464 245.012 344.819 242.03 344.819 242.03C344.819 242.03 347.428 250.602 342.582 255.82C337.737 261.037 331.029 265.882 331.029 265.882V259.174Z" stroke="#263238" stroke-linecap="round" stroke-linejoin="round"/>
<path d="M330.942 266.489C330.942 266.489 331.472 262.8 327.049 256.893C322.625 250.988 319.729 247.56 319.729 247.56C319.729 247.56 315.928 255.674 319.983 261.527C324.037 267.38 329.989 273.129 329.989 273.129L330.942 266.489Z" fill="#149477"/>
<path d="M330.942 266.489C330.942 266.489 331.472 262.8 327.049 256.893C322.625 250.988 319.729 247.56 319.729 247.56C319.729 247.56 315.928 255.674 319.983 261.527C324.037 267.38 329.989 273.129 329.989 273.129L330.942 266.489Z" stroke="#263238" stroke-linecap="round" stroke-linejoin="round"/>
<path d="M325.797 288.17C325.797 288.17 325.797 284.443 331.015 279.225C336.232 274.007 339.587 271.026 339.587 271.026C339.587 271.026 342.196 279.598 337.35 284.816C332.505 290.033 325.797 294.878 325.797 294.878V288.17Z" fill="#149477"/>
<path d="M325.797 288.17C325.797 288.17 325.797 284.443 331.015 279.225C336.232 274.007 339.587 271.026 339.587 271.026C339.587 271.026 342.196 279.598 337.35 284.816C332.505 290.033 325.797 294.878 325.797 294.878V288.17Z" stroke="#263238" stroke-linecap="round" stroke-linejoin="round"/>
<path d="M329.281 307.825C329.281 307.825 328.337 304.22 332.063 297.851C335.789 291.481 338.279 287.748 338.279 287.748C338.279 287.748 342.974 295.379 339.608 301.654C336.242 307.929 330.98 314.315 330.98 314.315L329.281 307.825Z" fill="#149477"/>
<path d="M329.281 307.825C329.281 307.825 328.337 304.22 332.063 297.851C335.789 291.481 338.279 287.748 338.279 287.748C338.279 287.748 342.974 295.379 339.608 301.654C336.242 307.929 330.98 314.315 330.98 314.315L329.281 307.825Z" stroke="#263238" stroke-linecap="round" stroke-linejoin="round"/>
<path d="M339.258 194.412C338.953 198.396 338.5 202.518 337.829 205.985C335.767 216.641 330.61 223.517 328.547 233.142C326.485 242.768 332.406 255.168 330.82 267.53C329.235 279.894 324.423 286.769 325.798 295.019C327.172 303.269 334.392 325.614 334.392 325.614" stroke="#263238" stroke-width="0.5" stroke-linecap="round" stroke-linejoin="round"/>
<line x1="338.452" y1="203.842" x2="343.678" y2="199.831" stroke="#263238" stroke-width="0.5" stroke-linecap="round" stroke-linejoin="round"/>
<line x1="338.327" y1="199.128" x2="336.218" y2="195.379" stroke="#263238" stroke-width="0.5" stroke-linecap="round" stroke-linejoin="round"/>
<path d="M328.86 232.7C328.86 232.7 333.567 229.169 338.406 225.638" stroke="#263238" stroke-width="0.5" stroke-linecap="round" stroke-linejoin="round"/>
<path d="M331.212 225.352C331.212 225.352 327.29 217.662 322.844 212.562" stroke="#263238" stroke-width="0.5" stroke-linecap="round" stroke-linejoin="round"/>
<path d="M331.214 264.476C331.214 264.476 334.875 257.284 341.283 251.008" stroke="#263238" stroke-width="0.5" stroke-linecap="round" stroke-linejoin="round"/>
<path d="M330.298 269.707C330.298 269.707 327.944 264.084 325.198 260.03C322.452 255.976 322.06 255.453 322.06 255.453" stroke="#263238" stroke-width="0.5" stroke-linecap="round" stroke-linejoin="round"/>
<path d="M325.797 295.019C325.797 295.019 327.682 290.237 330.037 286.445C332.39 282.652 335.529 279.252 335.529 279.252" stroke="#263238" stroke-width="0.5" stroke-linecap="round" stroke-linejoin="round"/>
<path d="M330.98 314.316C330.98 314.316 330.429 309.853 332.39 306.06C334.352 302.268 336.575 297.299 337.49 295.338" stroke="#263238" stroke-width="0.5" stroke-linecap="round" stroke-linejoin="round"/>
<path d="M304.618 245.158C304.618 245.158 304.213 242.82 306.918 238.982C309.624 235.144 311.403 232.91 311.403 232.91C311.403 232.91 313.97 238.002 311.499 241.8C309.027 245.598 305.346 249.365 305.346 249.365L304.618 245.158Z" fill="#149477"/>
<path d="M304.618 245.158C304.618 245.158 304.213 242.82 306.918 238.982C309.624 235.144 311.403 232.91 311.403 232.91C311.403 232.91 313.97 238.002 311.499 241.8C309.027 245.598 305.346 249.365 305.346 249.365L304.618 245.158Z" stroke="#263238" stroke-linecap="round" stroke-linejoin="round"/>
<path d="M311.893 258.932C311.893 258.932 311.489 256.594 314.194 252.756C316.899 248.917 318.679 246.684 318.679 246.684C318.679 246.684 321.246 251.776 318.774 255.574C316.302 259.372 312.621 263.138 312.621 263.138L311.893 258.932Z" fill="#149477"/>
<path d="M311.893 258.932C311.893 258.932 311.489 256.594 314.194 252.756C316.899 248.917 318.679 246.684 318.679 246.684C318.679 246.684 321.246 251.776 318.774 255.574C316.302 259.372 312.621 263.138 312.621 263.138L311.893 258.932Z" stroke="#263238" stroke-linecap="round" stroke-linejoin="round"/>
<path d="M305.512 249.103C305.512 249.103 304.863 246.822 300.76 244.537C296.658 242.252 294.085 241.011 294.085 241.011C294.085 241.011 293.982 246.713 297.856 249.062C301.731 251.412 306.681 253.209 306.681 253.209L305.512 249.103Z" fill="#149477"/>
<path d="M305.512 249.103C305.512 249.103 304.863 246.822 300.76 244.537C296.658 242.252 294.085 241.011 294.085 241.011C294.085 241.011 293.982 246.713 297.856 249.062C301.731 251.412 306.681 253.209 306.681 253.209L305.512 249.103Z" stroke="#263238" stroke-linecap="round" stroke-linejoin="round"/>
<path d="M314.233 265.347C314.233 265.347 313.347 263.146 309.028 261.305C304.707 259.464 302.018 258.5 302.018 258.5C302.018 258.5 302.515 264.181 306.614 266.111C310.714 268.04 315.827 269.307 315.827 269.307L314.233 265.347Z" fill="#149477"/>
<path d="M314.233 265.347C314.233 265.347 313.347 263.146 309.028 261.305C304.707 259.464 302.018 258.5 302.018 258.5C302.018 258.5 302.515 264.181 306.614 266.111C310.714 268.04 315.827 269.307 315.827 269.307L314.233 265.347Z" stroke="#263238" stroke-linecap="round" stroke-linejoin="round"/>
<path d="M316.408 284.328C316.408 284.328 316.004 281.991 312.165 279.285C308.327 276.58 305.9 275.074 305.9 275.074C305.9 275.074 305.195 280.733 308.799 283.478C312.404 286.225 317.136 288.534 317.136 288.534L316.408 284.328Z" fill="#149477"/>
<path d="M316.408 284.328C316.408 284.328 316.004 281.991 312.165 279.285C308.327 276.58 305.9 275.074 305.9 275.074C305.9 275.074 305.195 280.733 308.799 283.478C312.404 286.225 317.136 288.534 317.136 288.534L316.408 284.328Z" stroke="#263238" stroke-linecap="round" stroke-linejoin="round"/>
<path d="M317.257 288.906C317.257 288.906 316.524 286.65 318.657 282.466C320.79 278.282 322.234 275.818 322.234 275.818C322.234 275.818 325.498 280.494 323.591 284.604C321.684 288.715 318.575 292.966 318.575 292.966L317.257 288.906Z" fill="#149477"/>
<path d="M317.257 288.906C317.257 288.906 316.524 286.65 318.657 282.466C320.79 278.282 322.234 275.818 322.234 275.818C322.234 275.818 325.498 280.494 323.591 284.604C321.684 288.715 318.575 292.966 318.575 292.966L317.257 288.906Z" stroke="#263238" stroke-linecap="round" stroke-linejoin="round"/>
<path d="M323.806 307.758C323.806 307.758 324.077 305.401 327.754 302.481C331.432 299.561 333.768 297.919 333.768 297.919C333.768 297.919 334.796 303.529 331.354 306.476C327.912 309.423 323.318 311.999 323.318 311.999L323.806 307.758Z" fill="#149477"/>
<path d="M323.806 307.758C323.806 307.758 324.077 305.401 327.754 302.481C331.432 299.561 333.768 297.919 333.768 297.919C333.768 297.919 334.796 303.529 331.354 306.476C327.912 309.423 323.318 311.999 323.318 311.999L323.806 307.758Z" stroke="#263238" stroke-linecap="round" stroke-linejoin="round"/>
<path d="M322.836 301.942C322.836 301.942 322.432 299.605 318.594 296.9C314.755 294.194 312.328 292.688 312.328 292.688C312.328 292.688 311.623 298.347 315.227 301.092C318.832 303.839 323.565 306.149 323.565 306.149L322.836 301.942Z" fill="#149477"/>
<path d="M322.836 301.942C322.836 301.942 322.432 299.605 318.594 296.9C314.755 294.194 312.328 292.688 312.328 292.688C312.328 292.688 311.623 298.347 315.227 301.092C318.832 303.839 323.565 306.149 323.565 306.149L322.836 301.942Z" stroke="#263238" stroke-linecap="round" stroke-linejoin="round"/>
<path d="M322.786 314.646C322.786 314.646 322.986 312.283 319.958 308.693C316.93 305.104 314.963 303.033 314.963 303.033C314.963 303.033 312.848 308.328 315.639 311.898C318.432 315.467 322.425 318.901 322.425 318.901L322.786 314.646Z" fill="#149477"/>
<path d="M322.786 314.646C322.786 314.646 322.986 312.283 319.958 308.693C316.93 305.104 314.963 303.033 314.963 303.033C314.963 303.033 312.848 308.328 315.639 311.898C318.432 315.467 322.425 318.901 322.425 318.901L322.786 314.646Z" stroke="#263238" stroke-linecap="round" stroke-linejoin="round"/>
<path d="M304.217 244.61C304.841 247.075 305.572 249.61 306.369 251.711C308.82 258.17 312.8 261.922 315.138 267.733C317.476 273.545 315.109 281.964 317.446 289.545C319.782 297.125 323.546 300.914 323.58 306.237C323.613 311.56 321.512 326.356 321.512 326.356" stroke="#263238" stroke-width="0.5" stroke-linecap="round" stroke-linejoin="round"/>
<line x1="305.476" y1="250.756" x2="301.924" y2="248.892" stroke="#263238" stroke-width="0.5" stroke-linecap="round" stroke-linejoin="round"/>
<line x1="304.958" y1="247.244" x2="305.812" y2="244.835" stroke="#263238" stroke-width="0.5" stroke-linecap="round" stroke-linejoin="round"/>
<path d="M314.894 267.491C314.894 267.491 311.558 265.788 308.141 264.099" stroke="#263238" stroke-width="0.5" stroke-linecap="round" stroke-linejoin="round"/>
<path d="M312.621 263.138C312.621 263.138 314.246 257.89 316.48 254.209" stroke="#263238" stroke-width="0.5" stroke-linecap="round" stroke-linejoin="round"/>
<path d="M316.868 287.673C316.868 287.673 313.791 283.56 309.091 280.32" stroke="#263238" stroke-width="0.5" stroke-linecap="round" stroke-linejoin="round"/>
<path d="M318.01 290.853C318.01 290.853 318.875 287.072 320.158 284.232C321.439 281.392 321.629 281.021 321.629 281.021" stroke="#263238" stroke-width="0.5" stroke-linecap="round" stroke-linejoin="round"/>
<path d="M323.399 310.275C323.399 310.275 326.046 307.03 327.695 305.815C329.342 304.601 330.484 303.39 330.484 303.39" stroke="#263238" stroke-width="0.5" stroke-linecap="round" stroke-linejoin="round"/>
<path d="M323.58 306.238C323.58 306.238 321.879 303.444 319.99 301.321C318.103 299.199 315.766 297.407 315.766 297.407" stroke="#263238" stroke-width="0.5" stroke-linecap="round" stroke-linejoin="round"/>
<path d="M322.424 318.901C322.424 318.901 322.285 316.042 320.644 313.877C319.002 311.712 317.069 308.837 316.282 307.706" stroke="#263238" stroke-width="0.5" stroke-linecap="round" stroke-linejoin="round"/>
<path d="M342.651 352.065H313.186C311.897 352.065 310.852 351.02 310.852 349.731V323.776H344.984V349.731C344.984 351.02 343.94 352.065 342.651 352.065Z" fill="#263238"/>
<path d="M269.015 296.969C269.015 296.969 273.156 286.615 270.52 265.153C269.365 255.733 270.189 236.379 257.308 235.751C243.559 235.08 237.946 236.444 224.17 236.6C174.471 237.165 137.923 242.124 107.624 239.202C83.2643 236.853 62.2552 232.99 53.5954 241.649C44.9357 250.309 45.6892 268.758 46.442 272.335C47.1948 275.911 52.8426 300.383 52.8426 300.383L267.697 299.416L269.015 296.969Z" fill="#999999"/>
<path d="M269.015 296.969C269.015 296.969 273.156 286.615 270.52 265.153C269.365 255.733 270.189 236.379 257.308 235.751C243.559 235.08 237.946 236.444 224.17 236.6C174.471 237.165 137.923 242.124 107.624 239.202C83.2643 236.853 62.2552 232.99 53.5954 241.649C44.9357 250.309 45.6892 268.758 46.442 272.335C47.1948 275.911 52.8426 300.383 52.8426 300.383L267.697 299.416L269.015 296.969Z" stroke="#263238" stroke-linecap="round" stroke-linejoin="round"/>
<path d="M55.6666 290.783C55.6666 290.783 51.5251 274.217 44.7477 269.699C37.971 265.18 29.1232 270.075 21.781 277.229C14.4396 284.382 12.3685 292.854 15.3804 306.973C18.3931 321.092 27.2409 341.987 29.876 351.4C32.5119 360.812 32.5119 365.707 41.3597 368.719C50.2075 371.731 58.6785 371.919 64.1376 364.389C69.5974 356.859 68.0911 322.221 63.7616 309.231C59.4313 296.242 55.6666 290.783 55.6666 290.783Z" fill="#B2B2B2"/>
<path d="M55.6666 290.783C55.6666 290.783 51.5251 274.217 44.7477 269.699C37.971 265.18 29.1232 270.075 21.781 277.229C14.4396 284.382 12.3685 292.854 15.3804 306.973C18.3931 321.092 27.2409 341.987 29.876 351.4C32.5119 360.812 32.5119 365.707 41.3597 368.719C50.2075 371.731 58.6785 371.919 64.1376 364.389C69.5974 356.859 68.0911 322.221 63.7616 309.231C59.4313 296.242 55.6666 290.783 55.6666 290.783Z" stroke="#263238" stroke-linecap="round" stroke-linejoin="round"/>
<path d="M54.913 363.824C51.1483 356.671 39.8526 305.655 40.0414 298.689C40.2294 291.724 34.5815 280.053 27.6169 279.111C21.8747 278.335 17.2873 283.824 15.8523 285.777C13.6085 291.302 13.465 297.994 15.3804 306.972C18.3923 321.091 18.0148 342.425 20.6499 351.837C23.2858 361.25 23.2858 366.144 32.1336 369.156C37.9557 371.138 52.8403 371.46 57.585 369.601C56.9358 367.792 55.9689 365.83 54.913 363.824Z" fill="#8A8A8A"/>
<path d="M54.913 363.824C51.1483 356.671 39.8526 305.655 40.0414 298.689C40.2294 291.724 34.5815 280.053 27.6169 279.111C21.8747 278.335 17.2873 283.824 15.8523 285.777C13.6085 291.302 13.465 297.994 15.3804 306.972C18.3923 321.091 18.0148 342.425 20.6499 351.837C23.2858 361.25 23.2858 366.144 32.1336 369.156C37.9557 371.138 52.8403 371.46 57.585 369.601C56.9358 367.792 55.9689 365.83 54.913 363.824Z" stroke="#263238" stroke-linecap="round" stroke-linejoin="round"/>
<path d="M257.684 290.466C257.684 290.466 262.058 273.9 269.216 269.382C276.374 264.863 285.72 269.759 293.474 276.912C301.228 284.065 303.415 292.537 300.234 306.656C297.053 320.775 287.708 341.67 284.924 351.083C282.141 360.495 282.141 365.39 272.795 368.402C263.45 371.414 254.503 371.602 248.737 364.072C242.971 356.542 244.562 321.904 249.135 308.914C253.708 295.925 257.684 290.466 257.684 290.466Z" fill="#B2B2B2"/>
<path d="M257.684 290.466C257.684 290.466 262.058 273.9 269.216 269.382C276.374 264.863 285.72 269.759 293.474 276.912C301.228 284.065 303.415 292.537 300.234 306.656C297.053 320.775 287.708 341.67 284.924 351.083C282.141 360.495 282.141 365.39 272.795 368.402C263.45 371.414 254.503 371.602 248.737 364.072C242.971 356.542 244.562 321.904 249.135 308.914C253.708 295.925 257.684 290.466 257.684 290.466Z" stroke="#263238" stroke-linecap="round" stroke-linejoin="round"/>
<path d="M258.479 364.553C262.456 357.311 274.385 305.666 274.187 298.615C273.988 291.563 279.953 279.748 287.31 278.795C293.374 278.01 298.219 283.566 299.735 285.543C302.105 291.136 302.256 297.911 300.234 307C297.052 321.293 292.188 342.446 289.405 351.975C286.621 361.504 286.621 366.459 277.276 369.508C271.127 371.514 260.669 372.282 255.657 370.401C256.343 368.569 257.364 366.583 258.479 364.553Z" fill="#8A8A8A"/>
<path d="M258.479 364.553C262.456 357.311 274.385 305.666 274.187 298.615C273.988 291.563 279.953 279.748 287.31 278.795C293.374 278.01 298.219 283.566 299.735 285.543C302.105 291.136 302.256 297.911 300.234 307C297.052 321.293 292.188 342.446 289.405 351.975C286.621 361.504 286.621 366.459 277.276 369.508C271.127 371.514 260.669 372.282 255.657 370.401C256.343 368.569 257.364 366.583 258.479 364.553Z" stroke="#263238" stroke-linecap="round" stroke-linejoin="round"/>
<path d="M274.286 322.571C274.286 322.571 269.579 351.803 266.567 361.592C263.556 371.381 264.496 371.381 259.414 371.757C254.331 372.133 61.5024 371.595 55.4778 370.655C49.4539 369.713 46.254 365.195 44.5597 358.794C42.8653 352.394 41.1709 323.351 41.1709 323.351L266.191 322.571H274.286Z" fill="#999999"/>
<path d="M274.286 322.571C274.286 322.571 269.579 351.803 266.567 361.592C263.556 371.381 264.496 371.381 259.414 371.757C254.331 372.133 61.5024 371.595 55.4778 370.655C49.4539 369.713 46.254 365.195 44.5597 358.794C42.8653 352.394 41.1709 323.351 41.1709 323.351L266.191 322.571H274.286Z" stroke="#263238" stroke-linecap="round" stroke-linejoin="round"/>
<path d="M41.1817 327.977C41.1817 327.977 42.266 331.229 46.2417 331.952C50.2182 332.675 152.146 333.759 155.399 333.759C158.652 333.759 241.785 333.759 255.158 332.675C268.532 331.591 275.341 329.815 274.286 322.57C273.231 315.326 273.592 321.109 273.592 321.109L39.0131 324.001L41.1817 327.977Z" fill="#263238"/>
<path d="M56.2313 289.842C56.2313 289.842 41.7357 299.631 37.5942 304.149C33.4527 308.667 35.7119 312.244 36.0887 315.633C36.4647 319.021 38.159 326.551 43.0541 329.187C47.9484 331.822 108.753 330.692 144.144 331.822C179.536 332.951 255.649 331.607 265.062 329.348C274.474 327.089 276.712 315.415 277.277 308.827C277.842 302.238 271.086 293.016 267.32 291.886C263.556 290.757 232.246 290.595 197.42 291.348C162.593 292.101 146.63 295.135 106.908 294.382C67.1879 293.628 65.2671 288.148 56.2313 289.842Z" fill="#B2B2B2"/>
<path d="M36.0879 315.632C36.4647 319.021 38.159 326.551 43.0533 329.186C47.9476 331.822 108.753 330.692 144.144 331.822C179.535 332.951 255.649 331.607 265.061 329.348C274.474 327.089 280.121 318.052 280.686 311.464C280.763 310.566 280.635 309.57 280.358 308.518C279.03 309.844 276.473 308.412 273.452 307.977C266.742 307.01 196.169 311.404 143.346 311.404C85.9907 311.404 67.2984 311.404 38.9195 305.945C34.6897 305.131 37.5935 304.148 37.5935 304.148C33.452 308.666 35.7111 312.243 36.0879 315.632Z" fill="#999999"/>
<path d="M56.2313 289.842C56.2313 289.842 41.7357 299.631 37.5942 304.149C33.4527 308.667 35.7119 312.244 36.0887 315.633C36.4647 319.021 38.159 326.551 43.0541 329.187C47.9484 331.822 108.753 330.692 144.144 331.822C179.536 332.951 255.649 331.607 265.062 329.348C274.474 327.089 276.712 315.415 277.277 308.827C277.842 302.238 271.086 293.016 267.32 291.886C263.556 290.757 232.246 290.595 197.42 291.348C162.593 292.101 146.63 295.135 106.908 294.382C67.1879 293.628 65.2671 288.148 56.2313 289.842Z" stroke="#263238" stroke-linecap="round" stroke-linejoin="round"/>
<path d="M158.701 239.958L158.408 293.298C158.408 293.298 156.077 307.872 156.368 309.912C156.659 311.952 156.659 331.773 156.659 331.773" stroke="#263238" stroke-linecap="round" stroke-linejoin="round"/>
<path d="M63.8383 264.478C63.8383 264.478 65.1014 264.32 67.7849 261.163C70.4684 258.006 73.4673 255.638 76.3088 255.796C79.1504 255.954 73.9407 258.006 73.9407 258.006C73.9407 258.006 78.8342 256.743 82.3074 258.48C85.7797 260.216 80.8862 261.795 80.8862 261.795C80.8862 261.795 86.5693 263.531 86.2539 265.898C85.9378 268.267 84.8328 267.635 78.0454 267.635C71.2572 267.635 67.7849 269.372 64.9433 268.425C62.1017 267.477 60.2079 267.162 63.8383 264.478Z" fill="#263238"/>
<path d="M63.8383 264.478C63.8383 264.478 65.1014 264.32 67.7849 261.163C70.4684 258.006 73.4673 255.638 76.3088 255.796C79.1504 255.954 73.9407 258.006 73.9407 258.006C73.9407 258.006 78.8342 256.743 82.3074 258.48C85.7797 260.216 80.8862 261.795 80.8862 261.795C80.8862 261.795 86.5693 263.531 86.2539 265.898C85.9378 268.267 84.8328 267.635 78.0454 267.635C71.2572 267.635 67.7849 269.372 64.9433 268.425C62.1017 267.477 60.2079 267.162 63.8383 264.478Z" stroke="#263238" stroke-linecap="round" stroke-linejoin="round"/>
<path d="M54.3851 233.845C54.3851 233.845 58.9686 236.263 60.4573 238.682C61.946 241.101 60.4573 243.21 63.9127 243.61C65.8427 243.834 68.3788 243.796 68.3788 245.657C68.3788 247.518 68.1923 248.262 68.1923 248.262C68.1923 248.262 69.8675 254.961 69.681 256.451C69.4953 257.939 63.1676 259.8 63.1676 259.8C63.1676 259.8 62.7954 262.219 64.0984 263.894C65.4014 265.569 71.5419 270.593 72.4727 271.338C73.4028 272.082 54.4219 274.315 54.4219 274.315C54.4219 274.315 50.1415 265.383 44.3724 262.219C38.6041 259.056 35.8124 259.242 35.6267 256.079C35.4402 252.915 40.8371 241.377 45.8619 237.655C50.8858 233.933 54.3851 233.845 54.3851 233.845Z" fill="#E8D0B4"/>
<path d="M54.3851 233.845C54.3851 233.845 58.9686 236.263 60.4573 238.682C61.946 241.101 60.4573 243.21 63.9127 243.61C65.8427 243.834 68.3788 243.796 68.3788 245.657C68.3788 247.518 68.1923 248.262 68.1923 248.262C68.1923 248.262 69.8675 254.961 69.681 256.451C69.4953 257.939 63.1676 259.8 63.1676 259.8C63.1676 259.8 62.7954 262.219 64.0984 263.894C65.4014 265.569 71.5419 270.593 72.4727 271.338C73.4028 272.082 54.4219 274.315 54.4219 274.315C54.4219 274.315 50.1415 265.383 44.3724 262.219C38.6041 259.056 35.8124 259.242 35.6267 256.079C35.4402 252.915 40.8371 241.377 45.8619 237.655C50.8858 233.933 54.3851 233.845 54.3851 233.845Z" stroke="#263238" stroke-linecap="round" stroke-linejoin="round"/>
<path d="M60.9277 245.504C60.6023 245.671 60.3107 245.798 60.0598 245.892C60.0782 245.947 60.0882 245.998 60.1112 246.053C60.3713 246.691 60.7841 247.126 61.0328 247.025C61.2806 246.924 61.2707 246.324 61.0098 245.686C60.9844 245.622 60.956 245.563 60.9277 245.504Z" fill="#263238"/>
<path d="M59.3814 247.144C59.3814 247.144 60.5816 247.282 61.7817 246.682L59.3814 247.144Z" fill="#E8D0B4"/>
<path d="M59.3814 247.144C59.3814 247.144 60.5816 247.282 61.7817 246.682" stroke="#263238" stroke-width="0.5" stroke-linecap="round" stroke-linejoin="round"/>
<path d="M63.1676 259.799C63.1676 259.799 58.9133 260.808 55.4141 260.294C55.4141 260.294 60.8893 263.655 63.3487 263.41L63.1676 259.799Z" fill="#263238"/>
<path d="M63.1676 259.799C63.1676 259.799 58.9133 260.808 55.4141 260.294C55.4141 260.294 60.8893 263.655 63.3487 263.41L63.1676 259.799Z" stroke="#263238" stroke-linecap="round" stroke-linejoin="round"/>
<path d="M59.8894 243.59L60.9353 245.285C60.9353 245.285 59.3806 246.544 57.9572 246.773" fill="#E8D0B4"/>
<path d="M59.8894 243.59L60.9353 245.285C60.9353 245.285 59.3806 246.544 57.9572 246.773" stroke="#263238" stroke-linecap="round" stroke-linejoin="round"/>
<path d="M62.2069 251.649C62.2069 251.649 62.9274 253.193 65.9117 252.06L62.2069 251.649Z" fill="#E8D0B4"/>
<path d="M62.2069 251.649C62.2069 251.649 62.9274 253.193 65.9117 252.06" stroke="#263238" stroke-linecap="round" stroke-linejoin="round"/>
<path d="M58.5012 240.74C58.5012 240.74 56.2367 240.329 55.1049 243.005L58.5012 240.74Z" fill="#E8D0B4"/>
<path d="M58.5012 240.74C58.5012 240.74 56.2367 240.329 55.1049 243.005" stroke="#263238" stroke-linecap="round" stroke-linejoin="round"/>
<path d="M56.7516 232.301C56.7516 232.301 55.2077 241.254 53.5609 246.709C51.9141 252.164 49.9589 255.458 49.4447 257.516C48.9298 259.574 51.5028 264.72 50.6794 266.881C49.856 269.042 49.1355 265.852 44.4016 263.176C39.6677 260.501 35.7579 257.929 33.4919 256.384C23.5913 249.629 40.4473 231.482 48.0036 230.654C55.5169 229.831 57.1629 230.036 56.7516 232.301Z" fill="#263238"/>
<path d="M57.2005 230.455C57.2005 230.455 52.0361 254.557 35.8047 260.459" stroke="#666666" stroke-linecap="round" stroke-linejoin="round"/>
<path d="M53.7573 229.226C53.7573 229.226 46.6254 250.868 32.1152 256.033" stroke="#666666" stroke-linecap="round" stroke-linejoin="round"/>
<path d="M39.9854 232.915C39.9854 232.915 39.4935 248.654 30.8859 255.049" stroke="#666666" stroke-linecap="round" stroke-linejoin="round"/>
<path d="M56.7516 232.301C56.7516 232.301 55.2077 241.255 53.5609 246.709C51.9141 252.164 49.9589 255.458 49.4447 257.516C48.9298 259.574 51.5028 264.72 50.6794 266.882C49.856 269.043 49.1355 265.852 44.4016 263.176C39.6677 260.501 35.7579 257.929 33.4919 256.384C23.5913 249.63 40.4473 231.482 48.0036 230.654C55.5169 229.831 57.1629 230.036 56.7516 232.301Z" stroke="#263238" stroke-linecap="round" stroke-linejoin="round"/>
<path d="M52.1206 255.046C52.1206 255.046 48.6213 251.958 46.4604 252.885C44.2987 253.811 46.0483 257.721 47.3866 258.03C48.7242 258.339 50.1653 258.648 51.7092 257.927" fill="#E8D0B4"/>
<path d="M52.1206 255.046C52.1206 255.046 48.6213 251.958 46.4604 252.885C44.2987 253.811 46.0483 257.721 47.3866 258.03C48.7242 258.339 50.1653 258.648 51.7092 257.927" stroke="#263238" stroke-linecap="round" stroke-linejoin="round"/>
<g opacity="0.300003">
<path d="M27.8832 275.012C27.8832 275.012 37.9043 279.742 39.8795 284.876C41.8539 290.012 42.2491 295.541 45.8043 297.517C49.3588 299.491 55.6788 303.046 63.1837 304.626C70.6886 306.206 76.6135 305.811 76.6135 305.811C76.6135 305.811 90.4376 306.602 100.707 306.602C110.978 306.602 126.777 303.441 126.777 303.441C126.777 303.441 138.232 304.626 145.341 290.407C152.451 276.187 178.915 256.438 180.891 241.428C180.891 241.428 148.897 256.832 144.157 263.547C139.417 270.262 107.423 287.641 90.8328 287.641C74.2431 287.641 54.8892 275.002 44.2243 267.892C33.5594 260.783 27.3422 267.912 27.8832 275.012Z" fill="black"/>
</g>
<path d="M63.6986 289.06C63.6986 289.06 57.2151 276.092 52.429 268.991C47.6437 261.89 43.3211 258.494 38.0723 255.715C32.8235 252.936 29.8898 252.01 27.2654 250.775C24.641 249.54 23.869 250.157 23.5606 255.561C23.2521 260.964 22.0166 270.381 27.8832 275.012C33.7497 279.643 36.3741 279.489 39.9247 281.187C43.4754 282.885 45.3278 287.516 48.2607 293.537C51.1943 299.558 60.3022 299.558 63.8529 299.249C67.4035 298.94 65.8603 292.611 63.6986 289.06Z" fill="white"/>
<path d="M63.6986 289.06C63.6986 289.06 57.2151 276.092 52.429 268.991C47.6437 261.89 43.3211 258.494 38.0723 255.715C32.8235 252.936 29.8898 252.01 27.2654 250.775C24.641 249.54 23.869 250.157 23.5606 255.561C23.2521 260.964 22.0166 270.381 27.8832 275.012C33.7497 279.643 36.3741 279.489 39.9247 281.187C43.4754 282.885 45.3278 287.516 48.2607 293.537C51.1943 299.558 60.3022 299.558 63.8529 299.249C67.4035 298.94 65.8603 292.611 63.6986 289.06Z" stroke="#263238" stroke-linecap="round" stroke-linejoin="round"/>
<path d="M124.986 270.277C124.986 270.277 132.602 247.224 135.484 244.96C138.365 242.695 164.712 235.08 174.798 232.815C184.885 230.551 198.058 220.671 199.499 219.23C200.94 217.789 204.233 216.142 203.204 220.259C202.174 224.376 201.145 226.434 199.087 228.905C197.029 231.374 198.264 233.433 197.029 235.697C195.794 237.961 193.53 237.961 190.031 235.903C186.531 233.844 185.09 233.844 180.974 236.932C176.857 240.019 169.241 247.43 161.007 249.9C152.774 252.37 150.098 252.781 150.098 252.781C150.098 252.781 146.393 270.277 141.453 277.894C136.513 285.509 134.66 289.008 126.633 287.568C118.605 286.127 122.105 273.777 122.516 272.542C122.928 271.306 124.986 270.277 124.986 270.277Z" fill="#263238"/>
<path d="M124.986 270.277C124.986 270.277 132.602 247.224 135.484 244.96C138.365 242.695 164.712 235.08 174.798 232.815C184.885 230.551 198.058 220.671 199.499 219.23C200.94 217.789 204.233 216.142 203.204 220.259C202.174 224.376 201.145 226.434 199.087 228.905C197.029 231.374 198.264 233.433 197.029 235.697C195.794 237.961 193.53 237.961 190.031 235.903C186.531 233.844 185.09 233.844 180.974 236.932C176.857 240.019 169.241 247.43 161.007 249.9C152.774 252.37 150.098 252.781 150.098 252.781C150.098 252.781 146.393 270.277 141.453 277.894C136.513 285.509 134.66 289.008 126.633 287.568C118.605 286.127 122.105 273.777 122.516 272.542C122.928 271.306 124.986 270.277 124.986 270.277Z" stroke="#263238" stroke-linecap="round" stroke-linejoin="round"/>
<path d="M197.029 235.697C198.264 233.433 197.029 231.375 199.087 228.905C201.146 226.434 202.175 224.376 203.204 220.259C204.233 216.143 200.94 217.79 199.499 219.23C198.328 220.401 189.415 227.141 180.703 230.843C181.666 232.184 182.636 233.794 183.199 235.424C185.762 233.938 187.247 234.265 190.031 235.903C193.53 237.962 195.794 237.962 197.029 235.697Z" fill="#149477"/>
<path d="M197.029 235.697C198.264 233.433 197.029 231.375 199.087 228.905C201.146 226.434 202.175 224.376 203.204 220.259C204.233 216.143 200.94 217.79 199.499 219.23C198.328 220.401 189.415 227.141 180.703 230.843C181.666 232.184 182.636 233.794 183.199 235.424C185.762 233.938 187.247 234.265 190.031 235.903C193.53 237.962 195.794 237.962 197.029 235.697Z" stroke="#263238" stroke-linecap="round" stroke-linejoin="round"/>
<path d="M199.499 219.23C199.374 219.356 199.153 219.55 198.858 219.794C199.614 220.668 200.86 221.664 202.732 221.993C202.892 221.455 203.048 220.883 203.204 220.259C204.233 216.142 200.94 217.789 199.499 219.23Z" fill="#263238"/>
<path d="M199.499 219.23C199.374 219.356 199.153 219.55 198.858 219.794C199.614 220.668 200.86 221.664 202.732 221.993C202.892 221.455 203.048 220.883 203.204 220.259C204.233 216.142 200.94 217.789 199.499 219.23Z" stroke="#263238" stroke-linecap="round" stroke-linejoin="round"/>
<path d="M109.343 300.947C109.343 300.947 130.956 304.859 138.984 301.977C147.011 299.095 150.305 290.244 152.569 283.864C154.833 277.482 155.245 265.543 156.48 262.044C157.715 258.545 158.127 257.516 158.127 257.516C158.127 257.516 167.595 253.193 173.152 250.312C178.71 247.43 183.239 236.315 186.532 233.845C189.825 231.375 190.237 234.668 192.09 232.816C193.942 230.963 197.236 223.553 197.853 218.819C198.47 214.085 195.589 211.409 194.353 211.409C193.119 211.409 193.324 213.879 191.266 216.966C189.207 220.054 186.12 226.229 183.032 228.287C179.945 230.346 165.331 238.785 159.773 241.872C154.215 244.96 147.011 246.607 143.306 252.988C139.602 259.368 133.426 272.748 132.603 274.189C131.78 275.63 130.544 277.276 130.544 277.276C130.544 277.276 128.075 278.305 123.752 279.541C119.43 280.776 114.284 280.158 111.814 282.628C109.343 285.098 109.343 300.947 109.343 300.947Z" fill="#263238"/>
<path d="M109.343 300.947C109.343 300.947 130.956 304.859 138.984 301.977C147.011 299.095 150.305 290.244 152.569 283.864C154.833 277.482 155.245 265.543 156.48 262.044C157.715 258.545 158.127 257.516 158.127 257.516C158.127 257.516 167.595 253.193 173.152 250.312C178.71 247.43 183.239 236.315 186.532 233.845C189.825 231.375 190.237 234.668 192.09 232.816C193.942 230.963 197.236 223.553 197.853 218.819C198.47 214.085 195.589 211.409 194.353 211.409C193.119 211.409 193.324 213.879 191.266 216.966C189.207 220.054 186.12 226.229 183.032 228.287C179.945 230.346 165.331 238.785 159.773 241.872C154.215 244.96 147.011 246.607 143.306 252.988C139.602 259.368 133.426 272.748 132.603 274.189C131.78 275.63 130.544 277.276 130.544 277.276C130.544 277.276 128.075 278.305 123.752 279.541C119.43 280.776 114.284 280.158 111.814 282.628C109.343 285.098 109.343 300.947 109.343 300.947Z" stroke="#263238" stroke-linecap="round" stroke-linejoin="round"/>
<path d="M134.099 271.439C134.099 271.439 144.721 249.346 146.42 248.921C148.12 248.497 170.637 236.176 170.637 236.176" stroke="white" stroke-linecap="round" stroke-linejoin="round"/>
<path d="M123.957 283.657C123.957 283.657 126.839 289.421 127.456 292.92" stroke="white" stroke-linecap="round" stroke-linejoin="round"/>
<path d="M125.604 284.275C125.604 284.275 127.662 284.893 129.514 289.627" stroke="white" stroke-linecap="round" stroke-linejoin="round"/>
<path d="M130.133 291.067C130.133 291.067 130.543 292.714 130.956 293.743" stroke="white" stroke-linecap="round" stroke-linejoin="round"/>
<path d="M194.353 211.408C193.119 211.408 193.324 213.879 191.265 216.966C189.207 220.054 186.12 226.229 183.032 228.287C182.412 228.701 181.32 229.376 179.934 230.21C181.504 230.888 183.12 232.627 184.241 236.466C185.06 235.306 185.824 234.375 186.532 233.845C189.825 231.375 190.236 234.668 192.089 232.815C193.942 230.963 197.235 223.553 197.853 218.818C198.47 214.084 195.588 211.408 194.353 211.408Z" fill="#149477"/>
<path d="M194.353 211.408C193.119 211.408 193.324 213.879 191.265 216.966C189.207 220.054 186.12 226.229 183.032 228.287C182.412 228.701 181.32 229.376 179.934 230.21C181.504 230.888 183.12 232.627 184.241 236.466C185.06 235.306 185.824 234.375 186.532 233.845C189.825 231.375 190.236 234.668 192.089 232.815C193.942 230.963 197.235 223.553 197.853 218.818C198.47 214.084 195.588 211.408 194.353 211.408Z" stroke="#263238" stroke-linecap="round" stroke-linejoin="round"/>
<path d="M194.353 211.408C193.359 211.408 193.297 213.012 192.235 215.249C193.524 215.739 195.872 216.764 197.895 218.342C198.264 213.909 195.546 211.408 194.353 211.408Z" fill="#263238"/>
<path d="M194.353 211.408C193.359 211.408 193.297 213.012 192.235 215.249C193.524 215.739 195.872 216.764 197.895 218.342C198.264 213.909 195.546 211.408 194.353 211.408Z" stroke="#263238" stroke-linecap="round" stroke-linejoin="round"/>
<path d="M96.4139 264.93C96.4139 264.93 93.8716 266.256 92.7666 267.582C91.6624 268.908 88.7886 274.102 88.7886 274.102L93.2086 278.742L96.4139 267.582L98.0707 266.367L96.4139 264.93Z" fill="#149477"/>
<path d="M96.4139 264.93C96.4139 264.93 93.8716 266.256 92.7666 267.582C91.6624 268.908 88.7886 274.102 88.7886 274.102L93.2086 278.742L96.4139 267.582L98.0707 266.367L96.4139 264.93Z" stroke="#263238" stroke-linecap="round" stroke-linejoin="round"/>
<path d="M56.2889 269.145C56.2889 269.145 67.25 266.984 74.042 266.829C80.8348 266.675 82.9965 265.749 85.3116 267.911C87.6275 270.071 93.8026 276.71 94.883 277.79C95.9635 278.871 115.416 276.71 115.416 276.71C115.416 276.71 117.268 281.341 116.033 289.06C114.798 296.779 110.012 301.102 110.012 301.102C110.012 301.102 97.0332 302.998 88.3995 302.336C71.8742 301.071 65.7721 295.105 61.6045 290.012C57.4361 284.917 54.128 273.931 53.973 271.924C53.8187 269.917 56.2889 269.145 56.2889 269.145Z" fill="#149477"/>
<path d="M56.2889 269.145C56.2889 269.145 67.25 266.984 74.042 266.829C80.8348 266.675 82.9965 265.749 85.3116 267.911C87.6275 270.071 93.8026 276.71 94.883 277.79C95.9635 278.871 115.416 276.71 115.416 276.71C115.416 276.71 117.268 281.341 116.033 289.06C114.798 296.779 110.012 301.102 110.012 301.102C110.012 301.102 97.0332 302.998 88.3995 302.336C71.8742 301.071 65.7721 295.105 61.6045 290.012C57.4361 284.917 54.128 273.931 53.973 271.924C53.8187 269.917 56.2889 269.145 56.2889 269.145Z" stroke="#263238" stroke-linecap="round" stroke-linejoin="round"/>
<path d="M97.6102 268.425C97.6102 268.425 89.5828 269.454 88.7594 271.718C87.936 273.982 92.0529 289.831 93.2876 290.655C94.5223 291.478 97.6102 289.42 97.6102 289.42C97.6102 289.42 104.814 290.449 115.312 289.831C125.81 289.214 129.309 284.274 130.544 284.068C131.779 283.863 135.072 283.039 134.867 282.01C134.66 280.981 131.573 271.101 127.045 267.601C122.516 264.102 115.518 263.279 109.137 265.337C102.756 267.396 97.6102 268.425 97.6102 268.425Z" fill="white"/>
<path d="M97.6102 268.425C97.6102 268.425 89.5828 269.454 88.7594 271.718C87.936 273.982 92.0529 289.831 93.2876 290.655C94.5223 291.478 97.6102 289.42 97.6102 289.42C97.6102 289.42 104.814 290.449 115.312 289.831C125.81 289.214 129.309 284.274 130.544 284.068C131.779 283.863 135.072 283.039 134.867 282.01C134.66 280.981 131.573 271.101 127.045 267.601C122.516 264.102 115.518 263.279 109.137 265.337C102.756 267.396 97.6102 268.425 97.6102 268.425Z" stroke="#263238" stroke-linecap="round" stroke-linejoin="round"/>
<path d="M94.4199 268.219L96.1227 276.151L120.972 273.005L116.033 265.749L94.4199 268.219Z" fill="white"/>
<path d="M94.4199 268.219L96.1227 276.151L120.972 273.005L116.033 265.749L94.4199 268.219Z" stroke="#263238" stroke-linecap="round" stroke-linejoin="round"/>
<path d="M108.202 268.705L108.645 269.829L110.184 269.612L109.769 268.493L108.202 268.705Z" fill="#263238"/>
<path d="M110.325 269.991L108.794 270.206L109.333 271.57L110.834 271.36L110.325 269.991Z" fill="#263238"/>
<path d="M101.029 272.728L102.299 272.551L101.85 271.181L100.611 271.355L101.029 272.728Z" fill="#263238"/>
<path d="M110.17 268.438L110.585 269.556L112.105 269.342L111.7 268.23L110.17 268.438Z" fill="#263238"/>
<path d="M101.743 269.583L102.123 270.743L103.899 270.494L103.498 269.344L101.743 269.583Z" fill="#263238"/>
<path d="M106.074 268.994L106.521 270.126L108.242 269.884L107.799 268.76L106.074 268.994Z" fill="#263238"/>
<path d="M103.897 269.29L104.298 270.439L106.118 270.182L105.671 269.049L103.897 269.29Z" fill="#263238"/>
<path d="M108.93 271.626L108.392 270.263L106.67 270.504L107.208 271.867L108.93 271.626Z" fill="#263238"/>
<path d="M111.375 271.684L111.626 272.36L113.138 272.176L112.882 271.474L111.375 271.684Z" fill="#263238"/>
<path d="M114.102 269.461L112.643 269.665L113.144 271.038L114.677 270.824L114.102 269.461Z" fill="#263238"/>
<path d="M110.725 269.935L111.234 271.304L112.744 271.093L112.243 269.722L110.725 269.935Z" fill="#263238"/>
<path d="M115.551 271.881L117.495 271.644L117.085 270.887L115.24 271.145L115.551 271.881Z" fill="#263238"/>
<path d="M102.822 272.877L102.997 273.413L104.838 273.188L104.641 272.623L102.822 272.877Z" fill="#263238"/>
<path d="M104.031 270.875L102.248 271.125L102.697 272.495L104.509 272.243L104.031 270.875Z" fill="#263238"/>
<path d="M106.268 270.561L104.43 270.818L104.908 272.187L106.805 271.922L106.268 270.561Z" fill="#263238"/>
<path d="M107.357 272.245L107.597 272.852L109.33 272.64L109.079 272.004L107.357 272.245Z" fill="#263238"/>
<path d="M111.961 267.796L113.322 267.611L113.133 267.164L111.801 267.357L111.961 267.796Z" fill="#263238"/>
<path d="M103.764 268.91L105.521 268.671L105.37 268.288L103.636 268.539L103.764 268.91Z" fill="#263238"/>
<path d="M108.052 268.327L109.628 268.113L109.472 267.694L107.893 267.923L108.052 268.327Z" fill="#263238"/>
<path d="M105.924 268.616L107.649 268.382L107.491 267.981L105.772 268.23L105.924 268.616Z" fill="#263238"/>
<path d="M101.618 269.201L103.365 268.963L103.237 268.596L101.502 268.847L101.618 269.201Z" fill="#263238"/>
<path d="M101.22 269.255L101.105 268.905L99.9183 269.077L100.022 269.418L101.22 269.255Z" fill="#263238"/>
<path d="M102.597 273.461L102.424 272.933L101.146 273.111L101.3 273.619L102.597 273.461Z" fill="#263238"/>
<path d="M113.727 267.556L115.174 267.359L114.928 266.904L113.537 267.106L113.727 267.556Z" fill="#263238"/>
<path d="M100.495 270.972L101.726 270.8L101.345 269.637L100.138 269.801L100.495 270.972Z" fill="#263238"/>
<path d="M114.836 271.201L113.282 271.417L113.541 272.126L115.144 271.931L114.836 271.201Z" fill="#263238"/>
<path d="M110.029 268.059L111.561 267.851L111.402 267.415L109.872 267.637L110.029 268.059Z" fill="#263238"/>
<path d="M106.955 272.3L105.04 272.568L105.239 273.139L107.192 272.901L106.955 272.3Z" fill="#263238"/>
<path d="M110.975 271.739L109.482 271.947L109.735 272.59L111.223 272.409L110.975 271.739Z" fill="#263238"/>
<path d="M112.1 268.176L112.505 269.286L113.943 269.085L113.481 267.989L112.1 268.176Z" fill="#263238"/>
<path d="M116.156 269.173L114.506 269.404L115.081 270.768L116.884 270.516L116.156 269.173Z" fill="#263238"/>
<path d="M114.347 269.028L115.955 268.802L115.375 267.731L113.885 267.933L114.347 269.028Z" fill="#263238"/>
<path d="M120.973 273.005L122.362 250.157L116.959 247.069L116.032 265.749L120.973 273.005Z" fill="white"/>
<path d="M120.973 273.005L122.362 250.157L116.959 247.069L116.032 265.749L120.973 273.005Z" stroke="#263238" stroke-linecap="round" stroke-linejoin="round"/>
<path d="M117.816 249.27L117.1 265.522L119.865 269.472L120.853 251.302L117.816 249.27Z" fill="#149477"/>
<path d="M117.816 249.27L117.1 265.522L119.865 269.472L120.853 251.302L117.816 249.27Z" stroke="#263238" stroke-width="0.5" stroke-linecap="round" stroke-linejoin="round"/>
<path d="M106.8 262.266C106.8 262.266 107.676 261.882 108.746 262.747C109.815 263.613 112.15 265.537 111.858 266.018C111.566 266.499 111.177 266.499 110.593 265.922C110.01 265.344 106.8 262.266 106.8 262.266Z" fill="white"/>
<path d="M106.8 262.266C106.8 262.266 107.676 261.882 108.746 262.747C109.815 263.613 112.15 265.537 111.858 266.018C111.566 266.499 111.177 266.499 110.593 265.922C110.01 265.344 106.8 262.266 106.8 262.266Z" stroke="#263238" stroke-linecap="round" stroke-linejoin="round"/>
<path d="M104.369 262.278C104.369 262.278 106.137 261.615 106.8 262.278C107.463 262.941 111.773 266.367 111.441 267.03C111.11 267.693 110.557 267.14 109.894 267.14C109.231 267.14 104.369 262.278 104.369 262.278Z" fill="white"/>
<path d="M104.369 262.278C104.369 262.278 106.137 261.615 106.8 262.278C107.463 262.941 111.773 266.367 111.441 267.03C111.11 267.693 110.557 267.14 109.894 267.14C109.231 267.14 104.369 262.278 104.369 262.278Z" stroke="#263238" stroke-linecap="round" stroke-linejoin="round"/>
<path d="M95.5299 267.03C95.5299 267.03 94.3136 266.146 96.8552 264.599C99.3967 263.052 102.491 261.726 103.596 261.836C104.701 261.947 109.894 267.14 109.894 267.14C109.894 267.14 110.115 267.803 109.452 268.024C108.789 268.245 104.591 265.151 103.817 265.151C103.043 265.151 100.502 266.698 99.729 266.919C98.9547 267.14 97.1867 268.466 95.5299 267.03Z" fill="white"/>
<path d="M95.5299 267.03C95.5299 267.03 94.3136 266.146 96.8552 264.599C99.3967 263.052 102.491 261.726 103.596 261.836C104.701 261.947 109.894 267.14 109.894 267.14C109.894 267.14 110.115 267.803 109.452 268.024C108.789 268.245 104.591 265.151 103.817 265.151C103.043 265.151 100.502 266.698 99.729 266.919C98.9547 267.14 97.1867 268.466 95.5299 267.03Z" stroke="#263238" stroke-linecap="round" stroke-linejoin="round"/>
<path d="M99.9492 265.372C99.9492 265.372 105.806 267.582 106.137 267.582C106.469 267.582 106.027 268.466 105.032 268.577C104.038 268.687 101.607 267.361 100.723 267.803C99.8387 268.245 98.0523 268.106 96.7354 268.065C95.4186 268.024 95.4186 266.477 95.4186 266.477" fill="white"/>
<path d="M99.9492 265.372C99.9492 265.372 105.806 267.582 106.137 267.582C106.469 267.582 106.027 268.466 105.032 268.577C104.038 268.687 101.607 267.361 100.723 267.803C99.8387 268.245 98.0523 268.106 96.7354 268.065C95.4186 268.024 95.4186 266.477 95.4186 266.477" stroke="#263238" stroke-linecap="round" stroke-linejoin="round"/>
<path d="M64.4706 269.763C64.4706 269.763 59.376 266.212 54.2815 267.756C49.1877 269.3 50.4224 276.247 54.1272 283.503C57.8321 290.758 72.8073 304.961 75.2767 306.505C77.7469 308.049 80.0628 306.505 81.9152 303.572C83.7677 300.638 87.936 283.194 89.1707 280.415C90.4062 277.636 91.0231 275.938 91.0231 275.938C91.0231 275.938 93.4933 275.32 94.883 274.24C96.272 273.159 98.4336 271.461 98.4336 271.461C98.4336 271.461 103.991 269.145 104.454 268.837C104.917 268.528 104.3 268.065 103.682 268.065H96.7355C93.6476 268.065 89.6342 271.461 88.2445 273.005C86.8556 274.548 77.1299 292.457 77.1299 292.457L64.6248 275.32" fill="#149477"/>
<path d="M64.4706 269.763C64.4706 269.763 59.376 266.212 54.2815 267.756C49.1877 269.3 50.4224 276.247 54.1272 283.503C57.8321 290.758 72.8073 304.961 75.2767 306.505C77.7469 308.049 80.0628 306.505 81.9152 303.572C83.7677 300.638 87.936 283.194 89.1707 280.415C90.4062 277.636 91.0231 275.938 91.0231 275.938C91.0231 275.938 93.4933 275.32 94.883 274.24C96.272 273.159 98.4336 271.461 98.4336 271.461C98.4336 271.461 103.991 269.145 104.454 268.837C104.917 268.528 104.3 268.065 103.682 268.065H96.7355C93.6476 268.065 89.6342 271.461 88.2445 273.005C86.8556 274.548 77.1299 292.457 77.1299 292.457L64.6248 275.32" stroke="#263238" stroke-linecap="round" stroke-linejoin="round"/>
<path d="M98.4336 271.461C98.4336 271.461 103.991 269.145 104.454 268.837C104.917 268.528 104.3 268.065 103.682 268.065H96.7354C93.6483 268.065 89.6342 271.461 88.2445 273.005C87.761 273.542 86.2654 276.066 84.522 279.126L89.0341 280.753C89.0825 280.625 89.1293 280.51 89.1707 280.415C90.4062 277.636 91.0239 275.938 91.0239 275.938C91.0239 275.938 93.4933 275.32 94.883 274.24C96.2727 273.16 98.4336 271.461 98.4336 271.461Z" fill="white"/>
<path d="M98.4336 271.461C98.4336 271.461 103.991 269.145 104.454 268.837C104.917 268.528 104.3 268.065 103.682 268.065H96.7354C93.6483 268.065 89.6342 271.461 88.2445 273.005C87.761 273.542 86.2654 276.066 84.522 279.126L89.0341 280.753C89.0825 280.625 89.1293 280.51 89.1707 280.415C90.4062 277.636 91.0239 275.938 91.0239 275.938C91.0239 275.938 93.4933 275.32 94.883 274.24C96.2727 273.16 98.4336 271.461 98.4336 271.461Z" stroke="#263238" stroke-linecap="round" stroke-linejoin="round"/>
<path d="M258.442 166.616H18.3478C16.4409 166.616 14.8947 165.069 14.8947 163.162V138.524C14.8947 136.617 16.4409 135.071 18.3478 135.071H258.442C260.349 135.071 261.895 136.617 261.895 138.524V163.162C261.895 165.069 260.349 166.616 258.442 166.616Z" fill="white"/>
<path d="M14.8948 139.572C14.8948 137.086 16.9095 135.072 19.3948 135.072H257.395C259.88 135.072 261.895 137.086 261.895 139.572V162.116C261.895 164.601 259.88 166.616 257.395 166.616H19.3948C16.9095 166.616 14.8948 164.601 14.8948 162.116V139.572Z" stroke="#263238" stroke-linecap="round" stroke-linejoin="round"/>
<path d="M258.442 166.616H226.779V135.071H258.442C260.349 135.071 261.895 136.617 261.895 138.524V163.162C261.895 165.069 260.349 166.616 258.442 166.616Z" fill="#263238"/>
<path d="M258.442 166.616H226.779V135.071H258.442C260.349 135.071 261.895 136.617 261.895 138.524V163.162C261.895 165.069 260.349 166.616 258.442 166.616Z" stroke="#263238" stroke-linecap="round" stroke-linejoin="round"/>
<path d="M34.6429 156.592C34.6429 157.144 34.5171 157.566 34.2662 157.859C34.0152 158.152 33.6523 158.298 33.178 158.298C32.7245 158.298 32.3707 158.152 32.116 157.859C31.862 157.566 31.7346 157.144 31.7346 156.592V151.664C31.7346 150.982 31.5619 150.457 31.2166 150.091C30.8713 149.724 30.427 149.542 29.8829 149.542C29.2268 149.542 28.662 149.794 28.1878 150.3C27.7136 150.805 27.4765 151.462 27.4765 152.272V156.592C27.4765 157.144 27.3491 157.566 27.0943 157.859C26.8395 158.152 26.4758 158.298 26.0008 158.298C25.5481 158.298 25.1935 158.152 24.9395 157.859C24.6848 157.566 24.5574 157.144 24.5574 156.592V144.864C24.5574 144.321 24.6809 143.902 24.9288 143.609C25.1767 143.317 25.5266 143.17 25.9801 143.17C26.4543 143.17 26.8204 143.317 27.079 143.609C27.3368 143.902 27.4657 144.321 27.4657 144.864V149.269C27.7934 148.74 28.2438 148.331 28.8155 148.045C29.3872 147.76 30.0671 147.616 30.856 147.616C31.3785 147.616 31.8635 147.695 32.3101 147.852C32.756 148.008 33.1573 148.242 33.5134 148.552C33.8687 148.863 34.148 149.278 34.3498 149.798C34.5524 150.317 34.6537 150.912 34.6537 151.581L34.6429 156.592Z" fill="#263238"/>
<path d="M38.8589 157.508C38.3079 156.918 38.0324 156.027 38.0324 154.835V149.75H37.1637C36.4808 149.75 36.1385 149.415 36.1385 148.746C36.1385 148.46 36.2206 148.233 36.3849 148.065C36.5483 147.898 36.7977 147.814 37.1323 147.814H38.1475L38.4299 145.398C38.5412 144.393 39.0123 143.891 39.8426 143.891C40.5816 143.891 40.9515 144.397 40.9515 145.408V147.814H42.4686C43.1239 147.814 43.4516 148.143 43.4516 148.798C43.4516 149.433 43.1132 149.75 42.4371 149.75H40.9515V154.154C40.9515 154.894 41.0405 155.429 41.2178 155.76C41.3958 156.092 41.7112 156.258 42.1647 156.258H42.2905L42.9812 156.226H43.0433C43.3226 156.226 43.5421 156.327 43.7025 156.529C43.8629 156.732 43.9434 156.969 43.9434 157.241C43.9434 157.401 43.9174 157.542 43.8652 157.664C43.813 157.787 43.7485 157.887 43.671 157.968C43.5951 158.048 43.4869 158.116 43.3472 158.172C43.2075 158.227 43.0771 158.271 42.9551 158.303C42.8331 158.334 42.6704 158.357 42.4686 158.371C42.266 158.385 42.0933 158.393 41.9506 158.397C41.8071 158.4 41.6175 158.402 41.3804 158.402H41.3068H41.2285H41.1602C40.1772 158.395 39.4098 158.097 38.8589 157.508Z" fill="#263238"/>
<path d="M47.2708 157.508C46.7198 156.918 46.4443 156.027 46.4443 154.835V149.75H45.5756C44.8927 149.75 44.5504 149.415 44.5504 148.746C44.5504 148.46 44.6325 148.233 44.7968 148.065C44.9602 147.898 45.2096 147.814 45.5442 147.814H46.5594L46.8418 145.398C46.9531 144.393 47.4242 143.891 48.2545 143.891C48.9935 143.891 49.3634 144.397 49.3634 145.408V147.814H50.8805C51.5358 147.814 51.8635 148.143 51.8635 148.798C51.8635 149.433 51.5251 149.75 50.849 149.75H49.3634V154.154C49.3634 154.894 49.4524 155.429 49.6297 155.76C49.8077 156.092 50.1231 156.258 50.5766 156.258H50.7024L51.3931 156.226H51.456C51.7346 156.226 51.954 156.327 52.1144 156.529C52.2756 156.732 52.3554 156.969 52.3554 157.241C52.3554 157.401 52.3293 157.542 52.2771 157.664C52.2249 157.787 52.1604 157.887 52.0837 157.968C52.007 158.048 51.8988 158.116 51.7591 158.172C51.6195 158.227 51.489 158.271 51.367 158.303C51.245 158.334 51.0823 158.357 50.8805 158.371C50.6779 158.385 50.5052 158.393 50.3625 158.397C50.219 158.4 50.0295 158.402 49.7923 158.402H49.7187H49.6404H49.5721C48.5891 158.395 47.8217 158.097 47.2708 157.508Z" fill="#263238"/>
<path d="M54.4273 161.786C54.1825 161.497 54.0605 161.077 54.0605 160.526V149.572C54.0605 149.021 54.1932 148.587 54.458 148.27C54.7235 147.952 55.0826 147.794 55.5361 147.794C55.982 147.794 56.3311 147.918 56.582 148.165C56.833 148.413 56.9588 148.76 56.9588 149.206V149.499C57.6142 148.251 58.769 147.626 60.422 147.626C61.7886 147.626 62.8875 148.127 63.717 149.128C64.5473 150.129 64.9625 151.448 64.9625 153.088C64.9625 154.761 64.5297 156.07 63.6649 157.011C62.8 157.953 61.6735 158.423 60.2861 158.423C58.7092 158.423 57.6042 157.851 56.9696 156.707V160.526C56.9696 161.077 56.8399 161.497 56.582 161.786C56.3242 162.077 55.9543 162.221 55.4732 162.221C55.0197 162.221 54.6713 162.077 54.4273 161.786ZM60.7565 156.226C61.0911 156.038 61.3566 155.78 61.5515 155.452C61.7472 155.124 61.8915 154.758 61.9859 154.354C62.0802 153.949 62.1271 153.51 62.1271 153.035C62.1271 152.616 62.0856 152.214 62.0012 151.827C61.9176 151.44 61.7856 151.069 61.6037 150.713C61.4226 150.357 61.1609 150.073 60.8195 149.86C60.4772 149.647 60.0797 149.541 59.627 149.541C58.6777 149.541 57.9994 149.837 57.5919 150.43C57.1836 151.023 56.9795 151.895 56.9795 153.045C56.9795 154.099 57.2013 154.939 57.6441 155.567C58.0868 156.195 58.7376 156.509 59.5955 156.509C60.0344 156.509 60.422 156.414 60.7565 156.226Z" fill="#263238"/>
<path d="M66.861 156.88C66.795 156.751 66.7612 156.613 66.7612 156.466C66.7612 156.348 66.7842 156.233 66.8295 156.122C66.8748 156.01 66.9362 155.908 67.0129 155.818C67.0896 155.727 67.1871 155.656 67.3053 155.604C67.4242 155.551 67.5462 155.525 67.6721 155.525C67.8601 155.525 68.0481 155.578 68.2368 155.682C68.2507 155.689 68.3151 155.726 68.4302 155.792C68.5453 155.858 68.6236 155.902 68.6658 155.923C68.7073 155.944 68.7894 155.984 68.9114 156.043C69.0334 156.102 69.1308 156.146 69.2045 156.174C69.2774 156.202 69.3772 156.24 69.503 156.289C69.6281 156.337 69.7447 156.374 69.8529 156.399C69.9611 156.423 70.0831 156.449 70.219 156.477C70.3556 156.505 70.4967 156.524 70.6433 156.535C70.7891 156.545 70.9357 156.55 71.0823 156.55C71.3478 156.55 71.5972 156.532 71.8304 156.493C72.0645 156.455 72.2855 156.39 72.495 156.299C72.7037 156.208 72.8695 156.078 72.9915 155.907C73.1135 155.736 73.1749 155.535 73.1749 155.305C73.1749 155.054 73.0613 154.831 72.8349 154.636C72.6078 154.44 72.2678 154.284 71.8151 154.165L70.2558 153.757C69.8859 153.652 69.5813 153.563 69.3403 153.49C69.1001 153.417 68.8438 153.326 68.5714 153.218C68.2998 153.11 68.0795 153.002 67.9123 152.894C67.745 152.786 67.5792 152.655 67.4158 152.501C67.2515 152.348 67.1257 152.182 67.039 152.005C66.9515 151.827 66.8801 151.62 66.8241 151.382C66.7689 151.145 66.7405 150.88 66.7405 150.587C66.7405 150.112 66.8433 149.685 67.049 149.305C67.2546 148.925 67.5462 148.609 67.923 148.358C68.2998 148.107 68.7456 147.915 69.2621 147.783C69.7777 147.651 70.3502 147.584 70.9779 147.584C72.1428 147.584 73.2762 147.843 74.3781 148.358C74.5876 148.456 74.7426 148.587 74.8439 148.75C74.9444 148.915 74.9951 149.087 74.9951 149.268C74.9951 149.499 74.9183 149.7 74.7649 149.87C74.6114 150.041 74.4096 150.126 74.1586 150.126C74.0888 150.126 74.0174 150.119 73.9438 150.106C73.8709 150.092 73.7957 150.071 73.7189 150.043C73.6982 150.036 73.6629 150.022 73.6146 150.001C72.6377 149.659 71.8082 149.489 71.1245 149.489C70.8244 149.489 70.5474 149.516 70.2926 149.572C70.0379 149.628 69.8184 149.731 69.6335 149.881C69.4485 150.03 69.3564 150.218 69.3564 150.44C69.3564 150.747 69.4539 150.976 69.6488 151.125C69.8445 151.276 70.1998 151.413 70.7162 151.539L72.2648 151.926C72.8365 152.072 73.3199 152.231 73.7136 152.402C74.108 152.573 74.4533 152.782 74.7495 153.03C75.0457 153.277 75.2637 153.572 75.4033 153.914C75.543 154.256 75.6128 154.653 75.6128 155.107C75.6128 155.832 75.424 156.449 75.0473 156.958C74.6712 157.468 74.1671 157.842 73.5355 158.083C72.9048 158.323 72.1773 158.444 71.3547 158.444C69.7294 158.444 68.3312 158.032 67.1595 157.209C67.0267 157.119 66.9269 157.009 66.861 156.88Z" fill="#263238"/>
<path d="M78.4114 150.096C78.1014 149.802 77.9456 149.426 77.9456 148.966C77.9456 148.54 78.0976 148.173 78.4007 147.862C78.7046 147.552 79.0898 147.397 79.5571 147.397C80.0037 147.397 80.3836 147.546 80.6974 147.846C81.0113 148.146 81.1686 148.519 81.1686 148.966C81.1686 149.398 81.0166 149.768 80.7128 150.075C80.4097 150.382 80.0244 150.535 79.5571 150.535C79.1036 150.535 78.7214 150.389 78.4114 150.096ZM78.4114 157.895C78.1014 157.592 77.9456 157.217 77.9456 156.77C77.9456 156.345 78.0976 155.977 78.4007 155.667C78.7046 155.356 79.0898 155.201 79.5571 155.201C80.0037 155.201 80.3836 155.349 80.6974 155.646C81.0113 155.942 81.1686 156.317 81.1686 156.77C81.1686 157.203 81.0151 157.574 80.7082 157.884C80.4012 158.195 80.0175 158.35 79.5571 158.35C79.1036 158.35 78.7214 158.198 78.4114 157.895Z" fill="#263238"/>
<path d="M83.8206 159.323C83.615 159.156 83.5121 158.933 83.5121 158.653C83.5121 158.521 83.5643 158.277 83.6687 157.921L88.3558 144.049C88.454 143.735 88.5913 143.483 88.7694 143.295C88.9474 143.107 89.1546 143.013 89.3917 143.013C89.6641 143.013 89.8974 143.098 90.0931 143.269C90.288 143.44 90.3855 143.675 90.3855 143.975C90.3855 144.135 90.3371 144.369 90.2389 144.676L85.4267 158.905C85.2732 159.351 84.9694 159.574 84.5166 159.574C84.258 159.574 84.0263 159.49 83.8206 159.323Z" fill="#263238"/>
<path d="M91.9701 159.323C91.7644 159.156 91.6616 158.933 91.6616 158.653C91.6616 158.521 91.7138 158.277 91.8181 157.921L96.5052 144.049C96.6027 143.735 96.7408 143.483 96.9188 143.295C97.0969 143.107 97.3041 143.013 97.5412 143.013C97.8136 143.013 98.0469 143.098 98.2418 143.269C98.4375 143.44 98.5349 143.675 98.5349 143.975C98.5349 144.135 98.4866 144.369 98.3884 144.676L93.5762 158.905C93.4227 159.351 93.1188 159.574 92.6661 159.574C92.4075 159.574 92.1757 159.49 91.9701 159.323Z" fill="#263238"/>
<path d="M111.032 157.843C110.715 157.54 110.42 156.931 110.148 156.017L108.276 150.357L106.403 156.017C106.131 156.931 105.836 157.54 105.519 157.843C105.201 158.146 104.754 158.298 104.174 158.298C103.707 158.298 103.322 158.129 103.019 157.791C102.715 157.452 102.455 156.9 102.239 156.132L100.146 149.52C100.097 149.353 100.074 149.192 100.074 149.039C100.074 148.795 100.134 148.575 100.256 148.38C100.378 148.185 100.535 148.038 100.727 147.941C100.919 147.843 101.126 147.794 101.35 147.794C101.531 147.794 101.703 147.83 101.868 147.904C102.031 147.977 102.183 148.096 102.323 148.259C102.462 148.423 102.564 148.624 102.626 148.861L104.52 155.4L106.434 149.562C106.622 148.941 106.848 148.488 107.109 148.202C107.37 147.916 107.759 147.773 108.276 147.773C108.792 147.773 109.181 147.916 109.442 148.202C109.704 148.488 109.929 148.941 110.117 149.562L112.031 155.4L113.925 148.861C114.023 148.512 114.19 148.248 114.427 148.066C114.664 147.885 114.926 147.794 115.212 147.794C115.547 147.794 115.841 147.909 116.096 148.14C116.351 148.37 116.478 148.669 116.478 149.039C116.478 149.116 116.473 149.194 116.462 149.274C116.451 149.354 116.432 149.436 116.405 149.52L114.312 156.132C114.096 156.9 113.836 157.452 113.533 157.791C113.229 158.129 112.844 158.298 112.377 158.298C111.798 158.298 111.35 158.146 111.032 157.843Z" fill="#263238"/>
<path d="M129.09 157.843C128.772 157.54 128.478 156.931 128.206 156.017L126.333 150.357L124.461 156.017C124.189 156.931 123.894 157.54 123.577 157.843C123.259 158.146 122.811 158.298 122.232 158.298C121.765 158.298 121.38 158.129 121.076 157.791C120.773 157.452 120.513 156.9 120.297 156.132L118.204 149.52C118.155 149.353 118.131 149.192 118.131 149.039C118.131 148.795 118.192 148.575 118.314 148.38C118.436 148.185 118.593 148.038 118.785 147.941C118.977 147.843 119.184 147.794 119.407 147.794C119.589 147.794 119.761 147.83 119.925 147.904C120.089 147.977 120.241 148.096 120.38 148.259C120.52 148.423 120.621 148.624 120.684 148.861L122.577 155.4L124.492 149.562C124.68 148.941 124.906 148.488 125.167 148.202C125.428 147.916 125.817 147.773 126.333 147.773C126.849 147.773 127.238 147.916 127.5 148.202C127.762 148.488 127.987 148.941 128.175 149.562L130.089 155.4L131.983 148.861C132.081 148.512 132.248 148.248 132.485 148.066C132.722 147.885 132.984 147.794 133.27 147.794C133.605 147.794 133.899 147.909 134.154 148.14C134.409 148.37 134.535 148.669 134.535 149.039C134.535 149.116 134.531 149.194 134.52 149.274C134.509 149.354 134.49 149.436 134.462 149.52L132.37 156.132C132.153 156.9 131.894 157.452 131.59 157.791C131.287 158.129 130.902 158.298 130.435 158.298C129.856 158.298 129.408 158.146 129.09 157.843Z" fill="#263238"/>
<path d="M147.148 157.843C146.83 157.54 146.535 156.931 146.264 156.017L144.391 150.357L142.518 156.017C142.246 156.931 141.952 157.54 141.634 157.843C141.317 158.146 140.868 158.298 140.29 158.298C139.823 158.298 139.437 158.129 139.134 157.791C138.83 157.452 138.57 156.9 138.355 156.132L136.262 149.52C136.213 149.353 136.189 149.192 136.189 149.039C136.189 148.795 136.25 148.575 136.372 148.38C136.494 148.185 136.651 148.038 136.843 147.941C137.035 147.843 137.242 147.794 137.465 147.794C137.646 147.794 137.819 147.83 137.983 147.904C138.147 147.977 138.299 148.096 138.438 148.259C138.578 148.423 138.678 148.624 138.741 148.861L140.635 155.4L142.55 149.562C142.738 148.941 142.963 148.488 143.224 148.202C143.486 147.916 143.875 147.773 144.391 147.773C144.907 147.773 145.296 147.916 145.558 148.202C145.819 148.488 146.044 148.941 146.232 149.562L148.147 155.4L150.041 148.861C150.138 148.512 150.306 148.248 150.543 148.066C150.78 147.885 151.041 147.794 151.328 147.794C151.662 147.794 151.957 147.909 152.212 148.14C152.466 148.37 152.593 148.669 152.593 149.039C152.593 149.116 152.588 149.194 152.578 149.274C152.567 149.354 152.548 149.436 152.52 149.52L150.428 156.132C150.211 156.9 149.952 157.452 149.648 157.791C149.345 158.129 148.96 158.298 148.492 158.298C147.913 158.298 147.466 158.146 147.148 157.843Z" fill="#263238"/>
<path d="M254.44 159.538L246.75 151.129C246.653 151.023 246.545 150.935 246.432 150.858C247.373 149.553 247.933 147.958 247.933 146.23C247.933 141.85 244.37 138.287 239.99 138.287C235.611 138.287 232.049 141.85 232.049 146.23C232.049 150.609 235.611 154.172 239.99 154.172C241.395 154.172 242.712 153.802 243.858 153.161C243.928 153.293 244.009 153.422 244.116 153.538L251.805 161.948C252.157 162.333 252.64 162.529 253.123 162.529C253.553 162.529 253.985 162.374 254.327 162.06C255.055 161.395 255.106 160.266 254.44 159.538ZM233.835 146.23C233.835 142.835 236.596 140.073 239.99 140.073C243.386 140.073 246.148 142.835 246.148 146.23C246.148 149.624 243.386 152.386 239.99 152.386C236.596 152.386 233.835 149.624 233.835 146.23Z" fill="white"/>
<line x1="119.532" y1="167.92" x2="119.532" y2="234.033" stroke="#263238" stroke-linecap="round" stroke-linejoin="round"/>
</svg>
