<svg width="337" height="332" viewBox="0 0 337 332" fill="none" xmlns="http://www.w3.org/2000/svg">
<path d="M312.528 67.1845C310.183 63.4141 307.59 59.7544 304.719 56.2226C281.608 27.8015 251.392 15.779 216.87 7.72046C181.216 -0.601667 139.471 -3.22072 105.242 11.8258C97.1853 15.3676 89.5467 20.1115 83.4673 26.5381C60.5693 50.7445 52.7186 91.3067 27.2037 123.364C1.68877 155.421 -10.7416 195.329 12.1564 233.275C21.847 249.333 34.2023 262.581 48.8225 274.204C66.8237 288.515 82.3509 307.818 103.153 318.989C125.017 330.732 154.137 334.823 178.332 329.446C205.937 323.311 222.129 298.918 243.202 282.281C259.815 269.165 279.687 260.581 295.966 247.054C320.907 226.329 339.815 193.017 336.654 160C333.588 127.972 329.617 94.6521 312.528 67.1845Z" fill="#92E3A9"/>
<g opacity="0.699997">
<path d="M312.528 67.1845C310.183 63.4141 307.59 59.7544 304.719 56.2226C281.608 27.8015 251.392 15.779 216.87 7.72046C181.216 -0.601667 139.471 -3.22072 105.242 11.8258C97.1853 15.3676 89.5467 20.1115 83.4673 26.5381C60.5693 50.7445 52.7186 91.3067 27.2037 123.364C1.68877 155.421 -10.7416 195.329 12.1564 233.275C21.847 249.333 34.2023 262.581 48.8225 274.204C66.8237 288.515 82.3509 307.818 103.153 318.989C125.017 330.732 154.137 334.823 178.332 329.446C205.937 323.311 222.129 298.918 243.202 282.281C259.815 269.165 279.687 260.581 295.966 247.054C320.907 226.329 339.815 193.017 336.654 160C333.588 127.972 329.617 94.6521 312.528 67.1845Z" fill="white"/>
</g>
<path d="M210.174 96.3394V65.2775H207.363V25.512C207.363 11.9746 196.389 1 182.85 1H51.1865C37.6491 1 26.6754 11.9746 26.6754 25.512V293.043C26.6754 306.581 37.6491 317.555 51.1865 317.555H182.85C196.389 317.555 207.363 306.581 207.363 293.043V122.812H210.174V104.458H207.363V96.3394H210.174Z" fill="#707070"/>
<path d="M210.174 96.3394V65.2775H207.363V25.512C207.363 11.9746 196.389 1 182.85 1H51.1865C37.6491 1 26.6754 11.9746 26.6754 25.512V293.043C26.6754 306.581 37.6491 317.555 51.1865 317.555H182.85C196.389 317.555 207.363 306.581 207.363 293.043V122.812H210.174V104.458H207.363V96.3394H210.174Z" stroke="#263238" stroke-linejoin="round"/>
<path d="M177.379 314.178H56.66C41.6672 314.178 29.5131 302.024 29.5131 287.031V31.5224C29.5131 16.5296 41.6672 4.37549 56.66 4.37549H177.379C192.371 4.37549 204.526 16.5296 204.526 31.5224V287.031C204.526 302.024 192.371 314.178 177.379 314.178Z" fill="#263238"/>
<path d="M29.5127 34.8925C29.5127 18.0384 43.1756 4.37549 60.0297 4.37549H174.008C190.862 4.37549 204.525 18.0384 204.525 34.8925V283.661C204.525 300.515 190.862 314.178 174.008 314.178H60.0297C43.1756 314.178 29.5127 300.515 29.5127 283.661V34.8925Z" stroke="#263238" stroke-linejoin="round"/>
<path d="M175.148 6.60205H126.542L126.493 6.77818C125.055 11.9581 121.742 15.3207 118.074 15.3207H115.964C112.296 15.3207 108.983 11.9581 107.545 6.77818L107.497 6.60205H58.891C45.3527 6.60205 34.3781 17.5766 34.3781 31.1141V275.534C34.3781 289.072 45.3527 300.046 58.891 300.046H175.148C188.685 300.046 199.66 289.072 199.66 275.534V31.1141C199.66 17.5766 188.685 6.60205 175.148 6.60205Z" fill="white"/>
<path d="M175.148 6.60205H126.542L126.493 6.77818C125.055 11.9581 121.742 15.3207 118.074 15.3207H115.964C112.296 15.3207 108.983 11.9581 107.545 6.77818L107.497 6.60205H58.891C45.3527 6.60205 34.3781 17.5766 34.3781 31.1141V275.534C34.3781 289.072 45.3527 300.046 58.891 300.046H175.148C188.685 300.046 199.66 289.072 199.66 275.534V31.1141C199.66 17.5766 188.685 6.60205 175.148 6.60205Z" stroke="#263238" stroke-linejoin="round"/>
<path d="M175.148 6.60205H126.542L126.493 6.77818C125.055 11.9581 121.742 15.3207 118.074 15.3207H115.964C112.296 15.3207 108.983 11.9581 107.545 6.77818L107.497 6.60205H58.891C45.3527 6.60205 34.3781 17.5766 34.3781 31.1141V33.8495H199.66V31.1141C199.66 17.5766 188.685 6.60205 175.148 6.60205Z" fill="#92E3A9"/>
<path d="M171.846 145.07C171.846 139.705 179.128 133.457 177.806 128.509C176.438 123.39 166.967 121.624 164.374 117.142C161.744 112.596 164.921 103.52 161.231 99.8304C157.542 96.1414 148.467 99.3189 143.92 96.6885C139.439 94.0954 137.673 84.626 132.553 83.2578C127.607 81.935 121.357 89.217 115.993 89.217C110.628 89.217 104.379 81.935 99.4322 83.2578C94.3127 84.626 92.5469 94.0954 88.0653 96.6885C83.5187 99.3189 74.4433 96.1414 70.7534 99.8313C67.0635 103.521 70.241 112.597 67.6106 117.143C65.0184 121.625 55.548 123.391 54.1799 128.509C52.858 133.457 60.1391 139.706 60.1391 145.07C60.1391 150.435 52.858 156.684 54.1799 161.631C55.5489 166.751 65.0184 168.517 67.6114 172.998C70.2419 177.545 67.0644 186.62 70.7543 190.31C74.4433 193.999 83.5187 190.822 88.0653 193.452C92.5469 196.045 94.3127 205.515 99.4322 206.883C104.38 208.206 110.628 200.924 115.993 200.924C121.357 200.924 127.607 208.206 132.553 206.883C137.673 205.515 139.439 196.045 143.921 193.452C148.467 190.822 157.542 193.999 161.232 190.309C164.922 186.619 161.745 177.544 164.375 172.997C166.968 168.516 176.438 166.75 177.806 161.631C179.128 156.684 171.846 150.434 171.846 145.07Z" fill="#009476"/>
<path d="M115.217 167.455L91.1219 141.9C89.9672 140.676 90.0241 138.748 91.2482 137.594C92.474 136.441 94.4017 136.497 95.5546 137.72L114.48 157.792L138.412 123.089C139.368 121.703 141.266 121.356 142.65 122.311C144.035 123.266 144.384 125.163 143.428 126.548L115.217 167.455Z" fill="white"/>
<line x1="41.6048" y1="249.984" x2="92.4196" y2="249.984" stroke="#263238" stroke-linejoin="round"/>
<line x1="133.191" y1="256.657" x2="150.389" y2="256.657" stroke="#263238" stroke-linejoin="round"/>
<line x1="118.958" y1="256.657" x2="129.633" y2="256.657" stroke="#263238" stroke-linejoin="round"/>
<line x1="76.2588" y1="256.657" x2="114.806" y2="256.657" stroke="#263238" stroke-linejoin="round"/>
<line x1="41.6048" y1="256.657" x2="71.5147" y2="256.657" stroke="#263238" stroke-linejoin="round"/>
<line x1="106.504" y1="263.772" x2="140.011" y2="263.772" stroke="#263238" stroke-linejoin="round"/>
<line x1="76.8519" y1="263.772" x2="102.353" y2="263.772" stroke="#263238" stroke-linejoin="round"/>
<line x1="41.6048" y1="263.772" x2="72.7005" y2="263.772" stroke="#263238" stroke-linejoin="round"/>
<line x1="184.193" y1="270.889" x2="188.345" y2="270.889" stroke="#263238" stroke-linejoin="round"/>
<line x1="153.355" y1="270.889" x2="181.227" y2="270.889" stroke="#263238" stroke-linejoin="round"/>
<line x1="98.7945" y1="270.889" x2="146.238" y2="270.889" stroke="#263238" stroke-linejoin="round"/>
<line x1="53.7231" y1="270.889" x2="94.0499" y2="270.889" stroke="#263238" stroke-linejoin="round"/>
<line x1="41.6048" y1="270.889" x2="48.9784" y2="270.889" stroke="#263238" stroke-linejoin="round"/>
<path d="M61.5767 56.7133C61.5767 51.3279 57.2107 46.9619 51.8252 46.9619C46.4398 46.9619 42.0738 51.3279 42.0738 56.7133C42.0738 62.0988 46.4398 66.4648 51.8252 66.4648C57.2107 66.4648 61.5767 62.0988 61.5767 56.7133Z" fill="#595959"/>
<line x1="66.4521" y1="56.6562" x2="100.139" y2="56.6562" stroke="#263238" stroke-linejoin="round"/>
<path d="M118.815 7.7769C118.815 6.5057 117.785 5.47559 116.514 5.47559C115.242 5.47559 114.212 6.5057 114.212 7.7769C114.212 9.04809 115.242 10.0782 116.514 10.0782C117.785 10.0782 118.815 9.04809 118.815 7.7769Z" fill="#707070"/>
<path d="M49.0657 16.5952C49.0657 18.9241 46.4504 19.762 46.4397 21.5385V21.6595H48.9777V22.4432H45.5911V21.7813C45.5911 19.2879 48.2055 18.8022 48.2055 16.6281C48.2055 15.8346 47.9404 15.4147 47.3008 15.4147C46.6719 15.4147 46.3961 15.8666 46.3961 16.5516V17.2357H45.5911V16.6067C45.5911 15.4263 46.1311 14.6426 47.3222 14.6426C48.5249 14.6426 49.0657 15.4147 49.0657 16.5952Z" fill="white"/>
<path d="M53.293 16.5845V16.7829C53.293 17.5773 52.9737 18.1404 52.3554 18.3716C53.0066 18.6145 53.293 19.1998 53.293 19.972V20.568C53.293 21.7484 52.7415 22.5206 51.5495 22.5206C50.3699 22.5206 49.8184 21.7484 49.8184 20.568V20.0378H50.6234V20.6223C50.6234 21.3179 50.9099 21.7369 51.5281 21.7369C52.157 21.7369 52.4328 21.3286 52.4328 20.5457V19.9497C52.4328 19.1883 52.1126 18.8244 51.4614 18.8022H50.9988V18.0292H51.5059C52.0796 18.0078 52.4328 17.644 52.4328 16.9706V16.6174C52.4328 15.823 52.157 15.4147 51.5281 15.4147C50.9099 15.4147 50.6234 15.8453 50.6234 16.5409V16.9377H49.8184V16.5845C49.8184 15.404 50.3699 14.6426 51.5495 14.6426C52.7415 14.6426 53.293 15.404 53.293 16.5845Z" fill="white"/>
<path d="M54.9609 18.2391H54.1336V17.1689H54.9609V18.2391ZM54.9609 22.4432H54.1336V21.373H54.9609V22.4432Z" fill="white"/>
<path d="M56.7045 17.8648C56.9473 17.445 57.3334 17.2243 57.852 17.2243C58.8457 17.2243 59.286 17.9529 59.286 19.056V20.5682C59.286 21.7487 58.7238 22.5208 57.5433 22.5208C56.3629 22.5208 55.8113 21.7487 55.8113 20.5682V20.0496H56.6164V20.6225C56.6164 21.3181 56.9028 21.7371 57.5211 21.7371C58.1394 21.7371 58.4258 21.3181 58.4258 20.6225V19.1227C58.4258 18.4279 58.1394 18.0081 57.5211 18.0081C57.047 18.0081 56.7267 18.2732 56.6493 18.8354V19.0124H55.8443L56.0542 14.7202H59.0992V15.4924H56.8263L56.7045 17.8648Z" fill="white"/>
<path d="M63.579 16.5733V16.7166H62.774V16.5182C62.774 15.8234 62.4867 15.4151 61.8586 15.4151C61.2066 15.4151 60.9201 15.8341 60.9201 16.6623V18.3943C61.1301 17.865 61.5491 17.5661 62.1664 17.5661C63.1601 17.5661 63.6013 18.284 63.6013 19.3977V20.5675C63.6013 21.748 63.016 22.5201 61.8355 22.5201C60.6435 22.5201 60.059 21.748 60.059 20.5675V16.6285C60.059 15.4036 60.6115 14.6421 61.8355 14.6421C63.0275 14.6421 63.579 15.3929 63.579 16.5733ZM60.9201 19.4644V20.6227C60.9201 21.3183 61.2066 21.7373 61.8355 21.7373C62.4537 21.7373 62.7518 21.3183 62.7518 20.6227V19.4644C62.7518 18.7688 62.4537 18.3498 61.8355 18.3498C61.2066 18.3498 60.9201 18.7688 60.9201 19.4644Z" fill="white"/>
<rect x="145.715" y="16.9131" width="2.18122" height="5.45216" fill="white"/>
<rect x="148.623" y="15.8208" width="2.18033" height="6.54454" fill="white"/>
<rect x="151.531" y="15.0459" width="2.18033" height="7.31936" fill="white"/>
<rect x="154.438" y="13.6978" width="2.18122" height="8.66793" fill="white"/>
<path d="M183.606 22.2156H170.521V14.2192H183.606V22.2156ZM171.248 21.4888H182.879V14.9469H171.248V21.4888Z" fill="white"/>
<rect x="172.338" y="15.7368" width="6.90571" height="4.96022" fill="white"/>
<rect x="183.151" y="17.2744" width="1.6457" height="1.88411" fill="white"/>
<path d="M165.724 20.4756C165.639 20.4756 165.552 20.4533 165.474 20.4071C162.811 18.8245 161.051 20.2932 160.978 20.3555C160.774 20.5316 160.466 20.5094 160.289 20.3066C160.113 20.1037 160.132 19.7977 160.335 19.6207C160.429 19.5371 162.679 17.6094 165.974 19.5673C166.206 19.7043 166.282 20.005 166.143 20.2372C166.052 20.3911 165.89 20.4756 165.724 20.4756Z" fill="white"/>
<path d="M166.708 18.8326C166.624 18.8326 166.537 18.8103 166.458 18.7641C162.608 16.4743 160.021 18.6894 159.994 18.7107C159.792 18.8895 159.483 18.869 159.305 18.6662C159.127 18.4643 159.146 18.1547 159.349 17.9777C159.38 17.9492 162.502 15.2752 166.958 17.9243C167.191 18.0613 167.267 18.362 167.128 18.5942C167.037 18.7481 166.875 18.8326 166.708 18.8326Z" fill="white"/>
<path d="M167.603 16.9311C167.519 16.9311 167.432 16.9089 167.353 16.8626C162.478 13.9626 159.235 16.6927 159.1 16.811C158.896 16.9872 158.587 16.9658 158.41 16.763C158.233 16.5611 158.253 16.2533 158.456 16.0762C158.493 16.0416 162.346 12.7475 167.853 16.0229C168.085 16.1599 168.162 16.4605 168.023 16.6927C167.931 16.8457 167.77 16.9311 167.603 16.9311Z" fill="white"/>
<path d="M164.253 21.2952C164.253 21.9721 163.703 22.521 163.027 22.521C162.35 22.521 161.801 21.9721 161.801 21.2952C161.801 20.6182 162.35 20.0693 163.027 20.0693C163.703 20.0693 164.253 20.6182 164.253 21.2952Z" fill="white"/>
<path d="M204.507 66.4325H209.497L209.96 59.6807L210.752 53.7384L210.556 44.1934L215.36 49.344C215.795 49.988 216.061 50.7317 216.134 51.5056L216.961 69.7506L217.183 77.5521L208.421 83.2543V73.9672L206.366 71.7699C205.089 70.2933 204.423 68.3834 204.507 66.4325Z" fill="#E8D0B4"/>
<path d="M215.235 59.6716C214.048 57.6665 212.681 55.7726 211.152 54.0139C210.685 53.4117 210.097 52.9153 209.426 52.5551C208.733 52.2019 207.9 52.2784 207.282 52.7508C206.683 53.4055 206.555 54.3645 206.962 55.1526C207.378 55.9114 207.912 56.5999 208.546 57.1897C209.182 57.7848 209.619 58.5614 209.8 59.4136C209.808 60.2285 209.672 61.0389 209.4 61.8066C208.816 64.4495 209.637 67.2071 211.57 69.101" fill="#E8D0B4"/>
<path d="M211.57 69.1007C211.57 69.1007 211.294 68.7804 210.867 68.2111C210.264 67.3545 209.835 66.3866 209.604 65.3645C209.436 64.6662 209.37 63.9465 209.409 63.2296C209.473 62.404 209.635 61.5892 209.889 60.801C210.018 60.3349 210.057 59.8492 210.004 59.3688C209.923 58.8662 209.728 58.3885 209.435 57.9722C208.875 57.1271 208.074 56.4955 207.514 55.686C207.231 55.308 207.047 54.8641 206.98 54.3962C206.805 53.5439 207.354 52.7122 208.205 52.537C208.667 52.4418 209.149 52.5592 209.515 52.8572C210.198 53.3002 210.8 53.8571 211.294 54.5029C211.81 55.0989 212.273 55.6682 212.682 56.1931C213.509 57.2517 214.123 58.1412 214.55 58.7639C214.749 59.0966 214.975 59.4124 215.226 59.7069C215.088 59.3404 214.91 58.9917 214.693 58.6661C214.146 57.7462 213.552 56.8558 212.913 55.9974C212.513 55.4547 212.024 54.8676 211.552 54.2182C211.04 53.5164 210.404 52.9132 209.675 52.4391C209.242 52.1954 208.748 52.0806 208.252 52.11C207.707 52.1295 207.199 52.3902 206.864 52.8216C206.298 53.7904 206.397 55.0091 207.113 55.8728C207.727 56.7624 208.528 57.3851 209.044 58.159C209.302 58.5193 209.475 58.9321 209.551 59.3688C209.602 59.7949 209.569 60.2273 209.453 60.6409C209.205 61.4593 209.055 62.3044 209.008 63.1584C208.949 65.0016 209.548 66.8056 210.698 68.2467C210.88 68.4753 211.079 68.6897 211.294 68.8872C211.463 69.0473 211.57 69.1007 211.57 69.1007Z" fill="#7F6360"/>
<path d="M247.446 292.116L251.076 309.907C251.076 309.907 234.227 319.568 234.583 322.921L269.276 317.113L264.757 289.18L247.446 292.116Z" fill="#009476"/>
<path d="M247.446 292.116L251.076 309.907C251.076 309.907 234.227 319.568 234.583 322.921L269.276 317.113L264.757 289.18L247.446 292.116Z" stroke="#263238" stroke-linejoin="round"/>
<path d="M261.564 306.616C262.292 306.706 262.833 307.333 262.818 308.066C262.735 308.785 262.109 309.317 261.386 309.284C260.612 309.188 260.04 308.516 260.069 307.736C260.222 306.979 260.944 306.478 261.706 306.598" fill="#DEDEDE"/>
<path d="M269.303 317.104L268.743 314.311L235.66 320.92C235.66 320.92 234.227 321.854 234.583 322.913L269.303 317.104Z" fill="#2E353A"/>
<path d="M250.489 309.818C250.489 309.987 251.378 309.916 252.268 310.325C253.157 310.734 253.762 311.366 253.905 311.277C254.047 311.188 253.638 310.245 252.508 309.774C251.378 309.302 250.426 309.667 250.489 309.818Z" fill="#2E353A"/>
<path d="M247.099 311.953C247.099 312.131 247.864 312.291 248.567 312.914C249.27 313.537 249.555 314.266 249.724 314.231C249.893 314.195 249.839 313.217 248.959 312.452C248.078 311.687 247.073 311.767 247.099 311.953Z" fill="#2E353A"/>
<path d="M245.756 316.632C245.916 316.632 246.014 315.743 245.418 314.907C244.822 314.071 243.977 313.813 243.924 313.964C243.87 314.115 244.457 314.533 244.929 315.245C245.4 315.956 245.587 316.65 245.756 316.632Z" fill="#2E353A"/>
<path d="M250.106 305.672C250.204 305.815 250.942 305.45 251.885 305.352C252.828 305.254 253.664 305.432 253.718 305.272C253.771 305.112 252.962 304.632 251.823 304.756C250.684 304.881 249.999 305.548 250.106 305.672Z" fill="#2E353A"/>
<path d="M258.886 296.19L259.509 314.328C259.509 314.328 241.291 321.053 241.077 324.416L276.286 324.469L276.473 296.172L258.886 296.19Z" fill="#009476"/>
<path d="M258.886 296.19L259.509 314.328C259.509 314.328 241.291 321.053 241.077 324.416L276.286 324.469L276.473 296.172L258.886 296.19Z" stroke="#263238" stroke-linejoin="round"/>
<path d="M276.286 324.469L276.197 321.613L242.474 322.627C242.474 322.627 240.899 323.303 241.077 324.406L276.286 324.469Z" fill="#2E353A"/>
<path d="M258.94 314.15C258.94 314.319 259.829 314.399 260.648 314.951C261.466 315.502 261.946 316.232 262.106 316.16C262.267 316.089 262.009 315.102 260.977 314.452C259.945 313.803 258.904 313.99 258.94 314.15Z" fill="#2E353A"/>
<path d="M255.248 315.671C255.203 315.84 255.951 316.134 256.538 316.854C257.125 317.575 257.285 318.358 257.427 318.349C257.57 318.34 257.712 317.37 256.974 316.481C256.235 315.591 255.248 315.511 255.248 315.671Z" fill="#2E353A"/>
<path d="M253.14 320.083C253.3 320.128 253.54 319.265 253.14 318.304C252.739 317.343 251.894 316.988 251.823 317.13C251.752 317.272 252.241 317.779 252.588 318.553C252.935 319.327 252.971 320.065 253.14 320.083Z" fill="#2E353A"/>
<path d="M259.26 309.996C259.331 310.156 260.149 309.916 261.092 309.996C262.035 310.076 262.818 310.37 262.871 310.227C262.925 310.085 262.231 309.462 261.092 309.4C259.954 309.338 259.171 309.863 259.26 309.996Z" fill="#2E353A"/>
<path d="M281.339 154.917L281.17 172.868L276.811 228.68C276.811 228.68 278.955 255.794 280.289 271.094C281.446 284.376 279.177 307.505 279.177 307.505L256.769 307.3L249.421 230.112L244.893 181.969L236.887 156.892L281.339 154.917Z" fill="#2E353A"/>
<path d="M226.044 159.926L225.866 232.826C225.852 236.542 226.518 240.229 227.832 243.705L247.98 296.99L248.994 300.549L262.409 297.426L253.469 155.389L226.044 159.926Z" fill="#2E353A"/>
<path d="M245.036 172.487C245.026 172.605 245.026 172.724 245.036 172.843V173.866C245.036 174.755 245.08 176.116 245.107 177.815C245.169 181.24 245.347 186.195 245.614 192.324C246.183 204.565 247.286 221.466 249.083 240.067C250.88 258.668 252.837 275.481 254.269 287.641C255.008 293.699 255.604 298.61 256.049 302.026C256.262 303.707 256.431 305.014 256.547 305.94C256.6 306.367 256.653 306.705 256.68 306.954C256.707 307.203 256.742 307.301 256.742 307.301C256.752 307.182 256.752 307.063 256.742 306.945C256.742 306.696 256.689 306.358 256.644 305.922C256.547 305.032 256.404 303.689 256.226 302.008C255.844 298.583 255.292 293.664 254.607 287.597C253.229 275.427 251.289 258.632 249.528 240.023C247.767 221.413 246.575 204.538 245.97 192.306C245.658 186.186 245.436 181.231 245.329 177.806C245.258 176.116 245.205 174.791 245.169 173.866C245.169 173.43 245.169 173.092 245.116 172.834C245.102 172.715 245.074 172.6 245.036 172.487Z" fill="#4D5A64"/>
<path d="M264.375 159.837C264.361 160.115 264.391 160.394 264.464 160.664C264.6 161.405 264.805 162.132 265.078 162.835C266.884 167.623 271.111 171.083 276.162 171.908C276.905 172.034 277.659 172.091 278.412 172.077C278.688 172.097 278.965 172.07 279.231 171.997C279.231 171.926 278.056 171.997 276.215 171.615C271.332 170.658 267.253 167.318 265.353 162.719C264.624 160.958 264.455 159.783 264.375 159.837Z" fill="#4D5A64"/>
<path d="M243.701 163.013C243.697 163.652 244.21 164.173 244.849 164.179C245.488 164.183 246.009 163.67 246.014 163.031C246.019 162.392 245.505 161.871 244.867 161.866C244.228 161.86 243.707 162.375 243.701 163.013Z" fill="#4D5A64"/>
<path d="M225.67 171.935C226.269 171.527 226.806 171.032 227.262 170.467C228.429 169.155 229.394 167.678 230.126 166.082C230.856 164.487 231.348 162.793 231.585 161.056C231.717 160.343 231.741 159.614 231.657 158.894C231.585 158.894 231.532 159.712 231.292 161.011C230.666 164.403 229.204 167.586 227.04 170.272C226.212 171.304 225.625 171.882 225.67 171.935Z" fill="#4D5A64"/>
<path d="M239.147 67.7314C239.147 67.7314 232.92 72.7397 230.509 78.3351C228.391 82.8914 225.994 87.3117 223.33 91.5718L218.518 75.275L206.34 81.3329C206.34 81.3329 210.547 106.908 211.508 109.897C212.824 114.033 215.876 117.716 220.546 117.2C225.216 116.684 227.947 114.532 230.945 110.084L234.966 102.531L239.147 67.7314Z" fill="#009476"/>
<path d="M239.147 67.7314C239.147 67.7314 232.92 72.7397 230.509 78.3351C228.391 82.8914 225.994 87.3117 223.33 91.5718L218.518 75.275L206.34 81.3329C206.34 81.3329 210.547 106.908 211.508 109.897C212.824 114.033 215.876 117.716 220.546 117.2C225.216 116.684 227.947 114.532 230.945 110.084L234.966 102.531L239.147 67.7314Z" stroke="#263238" stroke-linejoin="round"/>
<path d="M269.481 56.5044C269.481 56.5044 287.166 64.8663 290.919 69.9368C295.474 76.0927 283.492 96.1969 282.638 101.152C282.22 103.527 279.586 121.398 281.205 135.427C282.26 144.759 282.768 154.145 282.727 163.537L226.043 159.925C225.874 150.051 228.303 142.392 229.788 129.831L233.347 88.858L239.147 67.7307L247.829 63.8878L269.481 56.5044Z" fill="#009476"/>
<path d="M269.481 56.5044C269.481 56.5044 287.166 64.8663 290.919 69.9368C295.474 76.0927 283.492 96.1969 282.638 101.152C282.22 103.527 279.586 121.398 281.205 135.427C282.26 144.759 282.768 154.145 282.727 163.537L226.043 159.925C225.874 150.051 228.303 142.392 229.788 129.831L233.347 88.858L239.147 67.7307L247.829 63.8878L269.481 56.5044Z" stroke="#263238" stroke-linejoin="round"/>
<path d="M234.272 81.9375C234.22 82.0745 234.19 82.2186 234.183 82.3645C234.13 82.7025 234.076 83.1206 234.005 83.6188C233.854 84.7041 233.667 86.2875 233.445 88.2357C233 92.1319 232.439 97.5316 231.915 103.501C231.39 109.47 231.025 114.878 230.758 118.792C230.634 120.749 230.554 122.351 230.509 123.436C230.509 123.943 230.509 124.325 230.465 124.699C230.449 124.847 230.449 124.996 230.465 125.144C230.513 125.003 230.54 124.856 230.545 124.708C230.545 124.37 230.616 123.952 230.669 123.445C230.767 122.288 230.901 120.723 231.061 118.819C231.399 114.843 231.852 109.478 232.35 103.536C232.849 97.5939 233.382 92.2387 233.747 88.2712C233.916 86.3587 234.058 84.793 234.165 83.6366C234.165 83.1295 234.236 82.747 234.263 82.3734C234.29 82.2293 234.292 82.0825 234.272 81.9375Z" fill="#2E353A"/>
<path d="M276.98 85.3798C277.06 85.3798 276.98 84.2056 277.318 82.3642C278.195 77.5054 281.439 73.4045 285.965 71.4314C287.673 70.6842 288.838 70.4885 288.82 70.4084C288.544 70.4004 288.269 70.4333 288.002 70.5063C287.266 70.6522 286.545 70.8665 285.849 71.1468C281.109 73.014 277.735 77.2786 277.007 82.3197C276.896 83.0616 276.854 83.8115 276.882 84.5614C276.875 84.8372 276.908 85.113 276.98 85.3798Z" fill="#2E353A"/>
<path d="M239.698 133.595C240.071 133.571 240.44 133.511 240.801 133.417C241.794 133.212 242.774 132.951 243.737 132.634C245.173 132.164 246.578 131.606 247.945 130.962C249.609 130.159 251.214 129.241 252.748 128.213C254.271 127.162 255.716 126.003 257.072 124.743C258.174 123.715 259.208 122.616 260.167 121.452C260.805 120.667 261.398 119.847 261.946 118.997C262.171 118.699 262.363 118.377 262.516 118.036C262.445 118.036 261.564 119.317 259.892 121.247C258.911 122.375 257.866 123.445 256.76 124.45C254.06 126.919 251.019 128.989 247.731 130.597C246.389 131.265 245.011 131.859 243.604 132.376C241.228 133.15 239.672 133.515 239.698 133.595Z" fill="#2E353A"/>
<g opacity="0.300003">
<path d="M279.836 97.2026C283.847 118.846 282.38 141.806 277.167 163.182L275.717 163.084C274.142 141.156 275.939 118.855 279.836 97.2026Z" fill="black"/>
</g>
<path d="M278.955 167.461L278.617 172.407C278.617 172.407 274.854 174.453 273.52 175.858C272.185 177.264 268.333 184.71 268.333 184.71C269.071 185.397 270.195 185.457 271.002 184.852C272.013 183.601 272.925 182.275 273.733 180.884C274.881 180.637 276.012 181.367 276.259 182.515C276.324 182.81 276.324 183.116 276.259 183.411C275.788 185.626 275.245 188.206 275.236 188.553C275.228 188.899 273.066 191.052 271.429 192.6C270.865 193.14 270.846 194.036 271.386 194.6C271.705 194.932 272.166 195.089 272.621 195.02C272.746 194.994 272.86 194.932 272.95 194.842C272.95 194.842 272.799 197.199 276.002 195.269C276.002 195.269 278.875 195.918 280.254 194.264C280.254 194.264 283.812 193.712 285.022 192.671C286.232 191.63 288.882 180.92 288.882 180.92L290.332 169.534L278.955 167.461Z" fill="#E8D0B4"/>
<path d="M279.533 184.566C279.626 185.21 279.626 185.862 279.533 186.506C279.442 188.07 278.988 189.593 278.208 190.953C277.302 192.241 276.075 193.268 274.649 193.934C274.097 194.265 273.497 194.511 272.87 194.663C273.357 194.257 273.888 193.908 274.454 193.622C275.758 192.896 276.885 191.891 277.754 190.678C278.494 189.359 278.968 187.909 279.151 186.408C279.21 185.782 279.339 185.164 279.533 184.566Z" fill="#7F6360"/>
<path d="M281.988 185.821C282.158 186.4 282.186 187.01 282.068 187.6C282.006 188.239 281.896 188.873 281.739 189.495C281.564 190.279 281.235 191.02 280.77 191.675C280.238 192.266 279.642 192.795 278.99 193.249L277.487 194.352C277.047 194.722 276.551 195.023 276.019 195.242C275.975 195.189 276.455 194.735 277.265 194.041C277.665 193.694 278.154 193.276 278.706 192.84C279.3 192.388 279.848 191.878 280.343 191.319C280.762 190.717 281.063 190.041 281.232 189.326C281.428 188.65 281.561 188.027 281.659 187.503C281.917 186.524 281.917 185.83 281.988 185.821Z" fill="#7F6360"/>
<path d="M284.701 187.502C284.897 187.502 284.435 189.46 283.732 191.71C283.628 192.02 283.447 192.298 283.207 192.52C283.014 192.718 282.808 192.906 282.593 193.08C282.235 193.372 281.85 193.632 281.446 193.854C280.752 194.236 280.263 194.325 280.236 194.263C280.209 194.201 280.645 193.996 281.259 193.552C281.618 193.295 281.962 193.02 282.291 192.724C282.478 192.555 282.673 192.377 282.851 192.182C283.034 192.008 283.173 191.795 283.26 191.559C283.607 190.411 283.963 189.406 284.221 188.668C284.331 188.26 284.493 187.869 284.701 187.502Z" fill="#7F6360"/>
<path d="M290.92 69.9375C290.92 69.9375 297.885 78.2994 298.036 85.2113C298.187 92.1233 300.385 136.806 300.385 136.806L291.489 174.168L276.206 170.61L280.956 131.246L279.853 97.2027L290.92 69.9375Z" fill="#009476"/>
<path d="M290.92 69.9375C290.92 69.9375 297.885 78.2994 298.036 85.2113C298.187 92.1233 300.385 136.806 300.385 136.806L291.489 174.168L276.206 170.61L280.956 131.246L279.853 97.2027L290.92 69.9375Z" stroke="#263238" stroke-linejoin="round"/>
<path d="M291.48 174.15C291.398 174.11 291.311 174.081 291.222 174.061L290.43 173.857L287.388 173.092L276.233 170.423L276.357 170.61L280.182 140.89C280.52 138.176 280.859 135.552 281.179 132.972C280.814 122.298 280.494 112.868 280.289 106.099C280.156 102.763 280.049 100.067 279.978 98.1725C279.933 97.283 279.898 96.5624 279.871 96.0465V95.4949C279.883 95.4335 279.883 95.3695 279.871 95.3081C279.863 95.3703 279.863 95.4326 279.871 95.4949V96.0465V98.1814C279.916 100.076 279.987 102.763 280.058 106.107C280.254 112.886 280.529 122.289 280.832 132.981C280.503 135.534 280.165 138.194 279.818 140.907C278.394 152.329 277.096 162.764 276.108 170.637V170.788H276.251L287.45 173.35L290.501 174.017L291.302 174.186C291.362 174.177 291.421 174.166 291.48 174.15Z" fill="#2E353A"/>
<g opacity="0.300003">
<path d="M255.159 134.689C249.272 137.235 242.952 138.63 236.54 138.799C237.537 140.249 239.387 140.578 241.139 140.667C242.871 140.789 244.61 140.593 246.272 140.089C249.483 139.048 253.255 137.42 255.168 134.689" fill="black"/>
</g>
<g opacity="0.300003">
<path d="M223.339 91.6064C224.168 95.726 224.334 99.9515 223.828 104.123C223.812 104.645 223.639 105.151 223.33 105.573C223.04 105.969 222.483 106.055 222.087 105.765C222.048 105.736 222.012 105.705 221.978 105.671C221.767 105.283 221.75 104.818 221.934 104.416C223.145 100.261 223.621 95.9253 223.339 91.6064Z" fill="black"/>
</g>
<path d="M232.591 23.1731C233.391 21.2516 235.642 19.8016 235.784 19.1967C236.167 17.6044 234.761 15.9142 235.242 14.3575C236.38 10.6924 239.36 11.1194 239.36 11.1194C240.686 9.45594 242.483 7.2587 245.436 6.4403C248.647 5.55074 253.38 4.85687 256.271 6.49367C259.162 8.13048 261.297 9.22465 262.275 12.4093L242.572 48.4635C240.232 47.4227 238.738 45.0653 237.839 42.6635C236.941 40.2617 236.505 37.7086 235.517 35.3423C234.779 33.5632 235.517 30.7433 233.898 29.7203C231.888 28.4304 231.852 24.9344 232.591 23.1731Z" fill="#2E353A"/>
<path d="M239.262 26.2682C239.639 18.1117 246.224 11.6152 254.385 11.3501H255.194C263.948 11.5636 268.663 19.116 268.2 27.8605L269.445 56.5312L254.839 66.7168C249.902 70.5508 247.856 67.6063 247.793 63.9146L247.651 55.7217C247.651 55.7217 239.209 54.6987 238.818 46.3101C238.613 42.227 238.907 33.8473 239.262 26.2682Z" fill="#E8D0B4"/>
<path d="M239.262 26.2682C239.639 18.1117 246.224 11.6152 254.385 11.3501H255.194C263.948 11.5636 268.663 19.116 268.2 27.8605L269.445 56.5312L254.839 66.7168C249.902 70.5508 247.856 67.6063 247.793 63.9146L247.651 55.7217C247.651 55.7217 239.209 54.6987 238.818 46.3101C238.613 42.227 238.907 33.8473 239.262 26.2682Z" stroke="#263238" stroke-linejoin="round"/>
<path d="M241.976 33.438C241.995 34.0892 242.525 34.6078 243.176 34.6123C243.81 34.6372 244.343 34.1434 244.368 33.5101C244.368 33.5012 244.368 33.4914 244.368 33.4825C244.354 32.8349 243.824 32.3172 243.176 32.3172C242.543 32.2878 242.006 32.7771 241.976 33.4096L241.976 33.438Z" fill="#2E353A"/>
<path d="M241.077 30.7519C241.237 30.9031 242.118 30.2003 243.408 30.1648C244.698 30.1292 245.667 30.7341 245.801 30.574C245.934 30.4139 245.703 30.227 245.285 29.9335C244.714 29.5661 244.042 29.3864 243.363 29.4175C242.691 29.4353 242.042 29.6693 241.513 30.0847C241.13 30.396 241.006 30.6896 241.077 30.7519Z" fill="#2E353A"/>
<path d="M253.584 33.438C253.604 34.0892 254.134 34.6078 254.785 34.6123C255.419 34.6372 255.952 34.1434 255.976 33.5101C255.977 33.5012 255.977 33.4914 255.977 33.4825C255.968 32.8322 255.436 32.3118 254.785 32.3172C254.152 32.2878 253.615 32.7771 253.585 33.4096L253.584 33.438Z" fill="#2E353A"/>
<path d="M253.575 30.7342C253.727 30.8854 254.634 30.2093 255.924 30.2004C257.214 30.1915 258.166 30.832 258.308 30.6719C258.45 30.5118 258.219 30.325 257.81 30.0314C257.249 29.6427 256.58 29.4407 255.897 29.4532C255.224 29.4559 254.569 29.6738 254.029 30.0759C253.638 30.3783 253.504 30.663 253.575 30.7342Z" fill="#2E353A"/>
<path d="M249.537 39.852C248.85 39.6617 248.141 39.5602 247.429 39.5496C247.1 39.5496 246.788 39.4695 246.726 39.2471C246.682 38.9064 246.748 38.5612 246.913 38.2597C247.188 37.4502 247.491 36.6051 247.802 35.7155C249.03 32.1039 249.91 29.1327 249.768 29.0793C249.626 29.026 248.505 31.926 247.269 35.5465L246.423 38.0996C246.229 38.5034 246.182 38.9633 246.29 39.3983C246.392 39.6332 246.6 39.8049 246.85 39.8609C247.033 39.9098 247.222 39.9303 247.411 39.9232C248.12 39.9899 248.834 39.9659 249.537 39.852Z" fill="#2E353A"/>
<path d="M253.495 26.1971C253.673 26.5262 254.928 26.1971 256.449 26.1259C257.97 26.0547 259.251 26.3038 259.402 25.9658C259.464 25.7968 259.207 25.5032 258.673 25.2452C257.963 24.9196 257.184 24.7702 256.404 24.8093C255.622 24.8342 254.857 25.0442 254.172 25.4231C253.656 25.7256 253.38 26.0369 253.495 26.1971Z" fill="#2E353A"/>
<path d="M240.926 26.4465C241.193 26.7312 242.189 26.3931 243.399 26.3308C244.609 26.2686 245.641 26.4554 245.863 26.144C245.961 25.9928 245.792 25.6993 245.338 25.4413C244.063 24.7981 242.541 24.8897 241.353 25.6815C240.926 26.0017 240.784 26.3041 240.926 26.4465Z" fill="#2E353A"/>
<path d="M261.635 11.8133C261.718 15.3155 258.946 18.2217 255.444 18.3044C255.041 18.3133 254.639 18.2849 254.243 18.2182C252.819 17.9869 251.245 17.3286 250.035 18.0758C248.825 18.8231 248.727 20.8424 247.598 21.8565C245.987 23.3065 243.354 22.0166 241.29 22.666C239.689 23.173 238.711 24.7209 237.661 26.0375C236.611 27.354 235.037 28.5994 233.427 28.1457C233.453 26.6975 233.64 25.2555 233.987 23.8491C234.347 22.4231 235.189 21.1653 236.371 20.2908C237.021 19.8461 237.795 19.5703 238.399 19.0632C239.716 17.9602 239.992 16.0832 240.792 14.562C241.86 12.5845 243.812 11.2413 246.041 10.9504C247.873 10.7369 249.759 11.2528 251.538 10.7725C252.846 10.4166 253.985 9.54487 255.319 9.2691C257.908 8.72647 260.354 10.5501 262.275 12.3826" fill="#2E353A"/>
<path d="M253.38 15.6564C254.536 15.3005 256.938 14.5088 257.516 13.4858C258.755 11.2503 261.099 9.85194 263.654 9.8208C266.245 9.9916 268.415 11.8446 268.992 14.3754C272.09 14.435 274.908 16.1821 276.34 18.93C277.812 21.8033 277.772 25.2183 276.233 28.0569C275.748 28.7214 275.442 29.4998 275.343 30.3164C275.343 31.3483 276.126 32.1578 276.686 32.9851C278.199 35.298 278.136 38.5005 277.042 41.0624C275.948 43.6244 275.156 44.5317 273.546 45.0655C270.397 46.1152 270.041 50.5452 268.832 51.7906L266.99 33.6434C266.84 33.7342 266.674 33.7973 266.501 33.8302C263.387 34.5953 262.88 28.4928 263.548 26.7137C262.349 25.7752 261.276 24.6872 260.354 23.4757C259.325 21.54 258.793 19.3792 258.806 17.1864C257.694 17.311 252.873 15.8076 253.38 15.6564Z" fill="#2E353A"/>
<path d="M266.563 33.7936C266.706 33.7224 272.274 31.8899 272.292 37.6365C272.31 43.3831 266.528 42.2089 266.519 42.0843C266.51 41.9598 266.563 33.7936 266.563 33.7936Z" fill="#E8D0B4"/>
<path d="M268.271 39.8612C268.271 39.8612 268.369 39.9323 268.538 40.0124C268.778 40.1076 269.045 40.1076 269.285 40.0124C270.042 39.5338 270.481 38.6825 270.433 37.7885C270.443 37.2965 270.346 36.8073 270.148 36.3562C270.036 35.9933 269.754 35.7078 269.392 35.5912C269.155 35.5254 268.905 35.6428 268.805 35.867C268.725 36.0271 268.805 36.1427 268.734 36.1516C268.663 36.1606 268.609 36.0538 268.654 35.8225C268.687 35.6802 268.765 35.5521 268.876 35.4578C269.023 35.3439 269.206 35.287 269.392 35.2977C269.871 35.3955 270.266 35.7309 270.442 36.1872C270.687 36.6845 270.809 37.2342 270.798 37.7885C270.857 38.8364 270.282 39.8184 269.339 40.2792C269.034 40.3602 268.71 40.305 268.449 40.128C268.28 40.0035 268.253 39.87 268.271 39.8612Z" fill="#2E353A"/>
<path d="M252.891 40.6343C252.677 40.6343 252.722 42.0487 251.547 43.0984C250.373 44.1481 248.879 44.0413 248.879 44.2459C248.879 44.4505 249.225 44.5039 249.866 44.5039C250.7 44.4817 251.5 44.1667 252.125 43.6143C252.723 43.0859 253.093 42.3458 253.157 41.5505C253.157 40.9367 252.988 40.6343 252.891 40.6343Z" fill="#2E353A"/>
<path d="M247.099 32.4504C247.055 32.4504 247.099 31.9967 246.85 31.2228C246.542 30.1527 245.888 29.2142 244.991 28.5541C242.824 26.9315 239.752 27.3719 238.13 29.5389C236.507 31.705 236.948 34.7775 239.114 36.4001C240.856 37.7051 243.249 37.7051 244.991 36.4001C245.889 35.7409 246.543 34.8024 246.85 33.7314C247.064 32.9664 247.055 32.5127 247.099 32.5127C247.144 32.5127 247.099 32.6194 247.099 32.8418C247.103 33.1567 247.067 33.4698 246.993 33.7759C246.74 34.9341 246.088 35.9669 245.151 36.6937C242.855 38.479 239.547 38.0663 237.761 35.7703C237.733 35.7347 237.706 35.6982 237.679 35.6618C236.291 33.7919 236.291 31.2335 237.679 29.3636C239.405 27.0223 242.701 26.5232 245.043 28.2499C245.079 28.2766 245.116 28.3041 245.151 28.3317C246.086 29.0567 246.737 30.086 246.993 31.2406C247.067 31.5493 247.102 31.866 247.099 32.1835C247.153 32.3348 247.153 32.4504 247.099 32.4504Z" fill="#4D5A64"/>
<path d="M260.425 32.54C260.372 32.54 260.425 32.0596 260.167 31.259C259.852 30.1275 259.166 29.1338 258.219 28.4391C255.957 26.7391 252.745 27.1955 251.045 29.4577C249.345 31.7198 249.801 34.9321 252.063 36.632C253.887 38.002 256.395 38.002 258.219 36.632C259.166 35.9373 259.852 34.9436 260.167 33.8121C260.39 33.0115 260.372 32.5311 260.425 32.54C260.479 32.5489 260.425 32.6556 260.425 32.878C260.429 33.2072 260.392 33.5354 260.319 33.8566C260.05 35.0628 259.37 36.1374 258.397 36.8989C255.987 38.7616 252.523 38.3187 250.66 35.9088C248.797 33.499 249.241 30.035 251.65 28.1722C253.637 26.6359 256.411 26.6359 258.397 28.1722C259.37 28.9337 260.05 30.0083 260.319 31.2145C260.392 31.5357 260.429 31.8639 260.425 32.1931C260.496 32.4155 260.443 32.54 260.425 32.54Z" fill="#4D5A64"/>
<path d="M249.759 32.7268C249.67 32.8246 249.137 32.451 248.38 32.4777C247.624 32.5044 247.099 32.8602 247.011 32.7713C246.922 32.6823 247.011 32.5578 247.286 32.371C247.946 31.92 248.814 31.92 249.475 32.371C249.715 32.5133 249.822 32.6823 249.759 32.7268Z" fill="#4D5A64"/>
<path d="M266.198 33.8652C265.198 33.8981 264.2 33.7477 263.254 33.4204C262.279 33.2389 261.329 32.94 260.425 32.5308C261.425 32.4926 262.424 32.6402 263.37 32.9667C264.346 33.1473 265.297 33.4488 266.198 33.8652Z" fill="#4D5A64"/>
<path d="M265.38 43.5166C265.38 43.5166 265.086 51.2113 259.519 53.373C255.698 54.8559 253.157 54.8461 253.157 54.8461" fill="#E8D0B4"/>
<path d="M265.38 43.5166C265.38 43.5166 265.086 51.2113 259.519 53.373C255.698 54.8559 253.157 54.8461 253.157 54.8461" stroke="#263238" stroke-linejoin="round"/>
</svg>
