<svg width="339" height="340" viewBox="0 0 339 340" fill="none" xmlns="http://www.w3.org/2000/svg">
<g clip-path="url(#clip0_1_8205)">
<path d="M332.508 145.331C321.468 91.7771 286.342 46.2812 237.302 22.025C232.133 19.463 226.655 16.901 220.866 14.3184C148.36 -17.8923 106.618 9.91757 85.3651 42.1283C64.1117 74.3391 37.7517 129.959 20.9226 157.046C4.09357 184.132 -17.9041 241.219 24.582 280.744C67.0681 320.269 107.342 307.087 135.17 296.116C162.998 285.145 190.826 294.649 242.099 294.649C293.371 294.649 335.837 255.124 338.773 206.095C339.848 188.141 336.788 166.075 332.508 145.351V145.331Z" fill="#92E3A9"/>
<path opacity="0.7" d="M332.508 145.331C321.468 91.7771 286.342 46.2812 237.302 22.025C232.133 19.463 226.655 16.901 220.866 14.3184C148.36 -17.8923 106.618 9.91757 85.3651 42.1283C64.1117 74.3391 37.7517 129.959 20.9226 157.046C4.09357 184.132 -17.9041 241.219 24.582 280.744C67.0681 320.269 107.342 307.087 135.17 296.116C162.998 285.145 190.826 294.649 242.099 294.649C293.371 294.649 335.837 255.124 338.773 206.095C339.848 188.141 336.788 166.075 332.508 145.351V145.331Z" fill="white"/>
<path d="M66.5513 225.434C90.541 225.434 109.988 205.999 109.988 182.025C109.988 158.051 90.541 138.616 66.5513 138.616C42.5616 138.616 23.1141 158.051 23.1141 182.025C23.1141 205.999 42.5616 225.434 66.5513 225.434Z" fill="white"/>
<mask id="mask0_1_8205" style="mask-type:luminance" maskUnits="userSpaceOnUse" x="23" y="138" width="87" height="88">
<path d="M66.5513 225.434C90.541 225.434 109.988 205.999 109.988 182.025C109.988 158.051 90.541 138.616 66.5513 138.616C42.5616 138.616 23.1141 158.051 23.1141 182.025C23.1141 205.999 42.5616 225.434 66.5513 225.434Z" fill="white"/>
</mask>
<g mask="url(#mask0_1_8205)">
<path d="M49.7016 163.843C49.7016 163.843 48.6265 163.306 45.484 163.843C42.3414 164.38 37.7103 166.033 37.8551 167.252C37.9998 168.471 41.3904 169.835 43.8507 170.124C45.546 170.248 47.262 170.062 48.8952 169.587L49.7016 163.864V163.843Z" fill="#263238" stroke="#263238" stroke-width="0.35" stroke-miterlimit="10"/>
<path d="M49.3087 166.55L49.7016 163.822C49.7016 163.822 48.6265 163.285 45.484 163.822C42.3414 164.359 37.7103 166.012 37.8551 167.231C37.8551 167.231 45.3186 165.372 49.3087 166.55Z" fill="#92E3A9" stroke="#263238" stroke-width="0.35" stroke-miterlimit="10"/>
<path d="M129.422 221.57C129.753 223.595 129.836 225.64 129.691 227.707C129.422 230.847 127.644 231.529 127.644 231.529C127.644 231.529 127.086 236.302 125.742 237.789C124.399 239.277 121.649 240.103 121.649 240.103C121.194 241.467 120.388 242.686 119.333 243.636C117.555 245.269 111.849 246.219 111.849 246.219C110.361 247.045 108.81 247.789 107.218 248.409C105.585 248.967 101.078 248.678 101.078 248.678C99.217 249.421 97.2116 249.711 95.2268 249.483C91.5675 249.215 85.6959 248.388 85.6959 248.388C84.3727 248.802 82.9875 249.029 81.6023 249.07C79.5556 249.07 76.8265 247.169 76.8265 247.169C74.9451 247.169 73.0844 246.963 71.2444 246.612C68.6601 246.074 65.3935 243.492 65.3935 243.492C63.4915 243.285 61.6101 242.872 59.8114 242.252C56.2761 241.157 53.4023 235.31 53.4023 235.31C53.4023 235.31 52.1618 234.773 49.4535 231.777C46.7451 228.781 46.7244 226.322 46.7244 226.322C45.3806 224.483 44.5536 222.314 44.2642 220.062C43.9954 216.653 46.4557 212.583 46.4557 212.583C46.0008 211.343 45.6287 210.062 45.3599 208.76C44.8224 206.302 49.867 199.628 49.867 199.628C49.867 199.628 48.089 196.901 46.0422 190.227C43.9954 183.554 48.6265 173.616 48.6265 173.616C48.6265 173.616 51.769 168.161 61.8168 167.087C71.8646 165.992 75.9789 173.884 77.4881 177.169C78.4391 179.463 78.9974 181.901 79.1214 184.38C80.0931 184.711 80.9201 185.393 81.4369 186.281C82.1399 187.355 82.7188 188.492 83.1943 189.69C83.1943 189.69 87.9701 188.595 90.2856 189.566C92.6012 190.537 93.5522 190.93 93.5522 190.93C93.5522 190.93 98.1833 188.471 101.863 188.058C105.543 187.645 109.099 189.69 109.099 189.69C109.099 189.69 115.901 187.376 120.822 191.054C125.742 194.731 125.866 196.219 125.866 196.219C125.866 196.219 130.911 199.752 132.007 205.888C133.103 212.025 132.958 213.657 133.247 214.607" fill="white"/>
<path d="M129.422 221.57C129.753 223.595 129.836 225.64 129.691 227.707C129.422 230.847 127.644 231.529 127.644 231.529C127.644 231.529 127.086 236.302 125.742 237.789C124.399 239.277 121.649 240.103 121.649 240.103C121.194 241.467 120.388 242.686 119.333 243.636C117.555 245.269 111.849 246.219 111.849 246.219C110.361 247.045 108.81 247.789 107.218 248.409C105.585 248.967 101.078 248.678 101.078 248.678C99.217 249.421 97.2116 249.711 95.2268 249.483C91.5675 249.215 85.6959 248.388 85.6959 248.388C84.3727 248.802 82.9875 249.029 81.6023 249.07C79.5556 249.07 76.8265 247.169 76.8265 247.169C74.9451 247.169 73.0844 246.963 71.2444 246.612C68.6601 246.074 65.3935 243.492 65.3935 243.492C63.4915 243.285 61.6101 242.872 59.8114 242.252C56.2761 241.157 53.4023 235.31 53.4023 235.31C53.4023 235.31 52.1618 234.773 49.4535 231.777C46.7451 228.781 46.7244 226.322 46.7244 226.322C45.3806 224.483 44.5536 222.314 44.2642 220.062C43.9954 216.653 46.4557 212.583 46.4557 212.583C46.0008 211.343 45.6287 210.062 45.3599 208.76C44.8224 206.302 49.867 199.628 49.867 199.628C49.867 199.628 48.089 196.901 46.0422 190.227C43.9954 183.554 48.6265 173.616 48.6265 173.616C48.6265 173.616 51.769 168.161 61.8168 167.087C71.8646 165.992 75.9789 173.884 77.4881 177.169C78.4391 179.463 78.9974 181.901 79.1214 184.38C80.0931 184.711 80.9201 185.393 81.4369 186.281C82.1399 187.355 82.7188 188.492 83.1943 189.69C83.1943 189.69 87.9701 188.595 90.2856 189.566C92.6012 190.537 93.5522 190.93 93.5522 190.93C93.5522 190.93 98.1833 188.471 101.863 188.058C105.543 187.645 109.099 189.69 109.099 189.69C109.099 189.69 115.901 187.376 120.822 191.054C125.742 194.731 125.866 196.219 125.866 196.219C125.866 196.219 130.911 199.752 132.007 205.888C133.103 212.025 132.958 213.657 133.247 214.607" stroke="#263238" stroke-width="0.35" stroke-miterlimit="10"/>
<path d="M72.4642 163.843C72.4642 163.843 73.5392 163.306 76.6818 163.843C79.8243 164.38 84.4554 166.033 84.3107 167.252C84.1659 168.471 80.7753 169.835 78.3151 170.124C76.6198 170.248 74.9038 170.062 73.2705 169.587L72.4642 163.864V163.843Z" fill="#263238" stroke="#263238" stroke-width="0.35" stroke-miterlimit="10"/>
<path d="M72.8364 166.55L72.4435 163.822C72.4435 163.822 73.5186 163.285 76.6611 163.822C79.8037 164.359 84.4348 166.012 84.29 167.231C84.29 167.231 76.8265 165.372 72.8364 166.55Z" fill="#92E3A9" stroke="#263238" stroke-width="0.35" stroke-miterlimit="10"/>
<path d="M49.9703 162.603C49.9703 162.603 47.5101 168.45 48.6058 173.636C49.7016 178.822 55.139 179.215 55.2837 181.942C55.4284 184.669 52.6994 186.715 54.1879 190.517C55.6765 194.318 60.7418 197.314 62.9126 196.508C65.0834 195.702 68.9082 191.612 68.7635 188.595C68.6188 185.578 66.7167 184.236 67.6677 181.921C68.6188 179.607 75.5861 177.521 75.5861 171.839C75.524 168.14 73.9321 164.649 71.1824 162.169C70.6862 161.632 49.9497 162.583 49.9497 162.583L49.9703 162.603Z" fill="#92E3A9" stroke="#263238" stroke-width="0.35" stroke-miterlimit="10"/>
<path d="M55.2837 159.194C53.5884 158.244 51.4796 158.657 50.2391 160.145C47.9236 162.727 50.3632 165.455 51.707 165.992C52.534 166.322 53.4023 166.467 54.2913 166.405C54.7875 167.459 55.7385 168.203 56.8756 168.451C58.3228 168.74 59.8321 168.636 61.238 168.182C61.238 168.182 63.14 170.083 65.3315 168.719L67.523 167.355C67.523 167.355 71.4718 167.769 72.1541 164.628C72.8364 161.488 71.2031 158.781 69.4251 157.955C68.0192 157.417 66.5306 157.149 65.0214 157.149C63.2847 155.372 60.7004 154.732 58.3435 155.517C54.1673 156.756 55.263 159.194 55.263 159.194H55.2837Z" fill="white" stroke="#263238" stroke-width="0.35" stroke-miterlimit="10"/>
<path d="M68.6394 175.806C69.1647 175.806 69.5905 174.862 69.5905 173.698C69.5905 172.534 69.1647 171.591 68.6394 171.591C68.1142 171.591 67.6884 172.534 67.6884 173.698C67.6884 174.862 68.1142 175.806 68.6394 175.806Z" fill="#263238"/>
<path d="M53.2369 175.806C53.7622 175.806 54.1879 174.862 54.1879 173.698C54.1879 172.534 53.7622 171.591 53.2369 171.591C52.7117 171.591 52.2859 172.534 52.2859 173.698C52.2859 174.862 52.7117 175.806 53.2369 175.806Z" fill="#263238"/>
<path d="M63.4708 185.744C63.4708 185.744 56.3794 185.062 57.4752 186.426C58.5709 187.789 61.3 189.008 63.6155 187.892C65.931 186.777 64.8766 186.012 63.4915 185.744H63.4708Z" fill="#263238" stroke="#263238" stroke-width="0.35" stroke-miterlimit="10"/>
<path d="M61.424 188.74L61.1346 192.562" stroke="#263238" stroke-width="0.35" stroke-miterlimit="10"/>
<path d="M56.917 190.93C56.917 190.93 60.7418 194.587 65.3522 190.661" stroke="#263238" stroke-width="0.35" stroke-miterlimit="10"/>
</g>
<path d="M66.5513 225.434C90.541 225.434 109.988 205.999 109.988 182.025C109.988 158.051 90.541 138.616 66.5513 138.616C42.5616 138.616 23.1141 158.051 23.1141 182.025C23.1141 205.999 42.5616 225.434 66.5513 225.434Z" stroke="#070707" stroke-width="0.27" stroke-miterlimit="10"/>
<path d="M276.418 116.261C300.408 116.261 319.855 96.8256 319.855 72.8515C319.855 48.8773 300.408 29.4424 276.418 29.4424C252.429 29.4424 232.981 48.8773 232.981 72.8515C232.981 96.8256 252.429 116.261 276.418 116.261Z" fill="white"/>
<mask id="mask1_1_8205" style="mask-type:luminance" maskUnits="userSpaceOnUse" x="232" y="29" width="88" height="88">
<path d="M276.418 116.261C300.408 116.261 319.855 96.8256 319.855 72.8515C319.855 48.8773 300.408 29.4424 276.418 29.4424C252.429 29.4424 232.981 48.8773 232.981 72.8515C232.981 96.8256 252.429 116.261 276.418 116.261Z" fill="white"/>
</mask>
<g mask="url(#mask1_1_8205)">
<path d="M255.454 147.128C253.532 148.471 251.547 149.814 249.293 150.434C247.04 151.054 244.435 150.847 242.615 149.38C240.279 147.48 239.866 144.091 240.134 141.095C240.651 135 243.236 128.946 242.057 122.955C241.168 118.554 238.356 114.794 234.387 112.686C230.397 110.641 225.724 110.455 221.589 112.19C219.067 113.285 216.69 115.372 216.379 118.12C217.206 120.661 220.99 122.769 223.512 123.657C226.034 124.546 228.826 125.517 230.066 127.872C231.162 129.918 230.748 132.376 230.479 134.69C230.066 138.595 230.211 142.541 230.934 146.405C231.472 149.298 232.361 152.232 234.304 154.442C237.343 157.893 242.388 158.926 246.957 158.451C251.526 157.975 255.847 156.199 260.271 154.876L255.434 147.17L255.454 147.128Z" fill="#009476" stroke="#1A2E35" stroke-width="0.35" stroke-linecap="round" stroke-linejoin="round"/>
<path d="M241.685 125.124C241.871 124.628 242.037 124.112 242.14 123.574C242.099 123.347 242.078 123.14 242.037 122.913C241.148 118.512 238.336 114.752 234.366 112.645C230.376 110.599 225.704 110.413 221.569 112.149C219.046 113.244 216.669 115.331 216.359 118.079C217.186 120.62 220.969 122.727 223.491 123.616C226.014 124.504 228.805 125.475 230.045 127.831C230.79 129.215 230.831 130.785 230.707 132.376C231.162 132.438 231.637 132.459 232.092 132.417C236.31 132.149 240.155 129.091 241.664 125.124H241.685Z" fill="white"/>
<path d="M269.513 92.8723C269.513 93.4301 266.205 101.447 258.039 107.934C249.872 114.422 243.091 122.046 243.236 132.128C243.38 142.211 249.603 153.285 249.603 153.285L256.033 158.347L279.747 158.533C279.747 158.533 290.684 155.909 292.069 146.922C293.454 137.934 290.684 133.657 290.684 133.657L291.097 124.67C291.097 124.67 297.589 112.645 298.023 108.781C298.457 104.918 294.839 90.8062 294.839 90.8062L269.534 92.8723H269.513Z" fill="#009476" stroke="#1A2E35" stroke-width="0.35" stroke-linecap="round" stroke-linejoin="round"/>
<path d="M285.474 60.5991C285.474 60.5991 275.157 62.19 272.945 63.0785C270.733 63.9669 261.719 68.6156 260.292 73.0785C260.292 73.0785 259.589 78.0991 261.801 84.2561C262.608 86.5082 269.161 94.1115 270.712 94.9793C272.263 95.8471 295.067 91.7975 295.067 91.7975C296.431 89.938 300.38 83.4917 300.339 78.657C300.297 72.5826 298.126 65.7644 298.126 65.7644L285.474 60.5991Z" fill="#009476" stroke="#1A2E35" stroke-width="0.35" stroke-linecap="round" stroke-linejoin="round"/>
<path d="M293.433 50.1241C293.206 50.0828 290.477 50.1242 288.389 54.8349C287.107 57.7068 285.639 60.496 283.964 63.1613L298.209 66.4671C298.209 66.4671 297.403 58.7812 296.617 56.0952C295.832 53.4093 295.025 50.3927 293.433 50.1241Z" fill="#009476" stroke="#1A2E35" stroke-width="0.35" stroke-linecap="round" stroke-linejoin="round"/>
<path d="M289.03 79.3801C284.419 77.5826 279.127 78.3677 274.64 80.4132C272.139 81.5495 269.678 83.1818 268.562 85.7024C266.743 89.8347 269.223 94.7107 272.697 97.5619C276.17 100.413 280.532 101.963 284.295 104.442C288.058 106.921 291.387 110.971 290.89 115.434L291.118 124.628C291.49 123.946 297.61 112.521 298.023 108.76C298.375 105.455 295.811 94.7107 295.046 91.6322C295.377 91.219 295.894 90.3512 296.514 89.5454C296.576 85.0826 293.247 81.033 289.03 79.3801Z" fill="white"/>
<path d="M284.254 77.624C284.357 77.2314 284.13 76.8182 283.737 76.7149C283.696 76.7149 283.654 76.7149 283.613 76.6942C282.434 76.5496 281.256 76.6942 280.181 77.1694C279.933 77.2314 279.726 77.4174 279.623 77.6447C279.581 77.9132 279.664 78.1818 279.85 78.3678C280.76 79.4628 282.393 79.6075 283.489 78.6984C283.778 78.4504 284.006 78.1612 284.171 77.8099C284.192 77.748 284.233 77.686 284.254 77.624Z" fill="#263238"/>
<path d="M284.626 82.748C284.337 83.1613 283.882 83.4299 283.386 83.5125C282.91 83.6778 282.372 83.6158 281.938 83.3885C282.414 83.4092 282.869 83.3885 283.344 83.3059C283.799 83.1613 284.233 82.9753 284.626 82.748Z" fill="#263238"/>
<path d="M260.561 74.0084C260.561 74.0084 255.702 57.1902 257.77 55.7646C259.837 54.339 261.739 56.0332 261.739 56.0332L272.469 64.1737L260.54 74.0291L260.561 74.0084Z" fill="#009476" stroke="#1A2E35" stroke-width="0.35" stroke-linecap="round" stroke-linejoin="round"/>
<path d="M261.905 70.5995C263.745 68.0582 266.164 66.0127 268.975 64.6285L261.615 58.864C261.326 58.5541 260.892 58.3888 260.458 58.4094C260.065 58.5541 259.775 58.8847 259.713 59.2979C259.444 60.3103 259.713 61.9632 259.92 63.0169C260.52 65.7442 261.16 68.3475 261.905 70.6408" fill="white"/>
<path d="M295.749 64.2769C293.123 62.7687 290.187 61.9422 287.169 61.8389C288.554 59.1736 289.96 56.5083 291.345 53.843C291.531 53.4711 291.779 53.0786 292.172 52.9959C292.565 52.9546 292.958 53.1406 293.185 53.4711C293.826 54.2563 294.26 55.8059 294.467 56.8182C295.025 59.4422 295.501 61.9835 295.749 64.2769Z" fill="white"/>
<path d="M297.155 88.2646C297.155 88.2646 297.093 88.4299 297.051 88.5126C296.969 88.6985 296.865 88.9258 296.721 89.2151C296.307 90.0622 295.79 90.8886 295.191 91.6324C294.281 92.7275 293.165 93.6365 291.924 94.3184C291.573 94.5043 291.2 94.6696 290.808 94.8349C290.394 95.0002 289.981 95.1241 289.567 95.2481C289.133 95.3514 288.699 95.4547 288.265 95.5167C287.81 95.5787 287.355 95.62 286.9 95.62C286.094 95.6407 285.267 95.5787 284.481 95.4341L284.543 95.2275C285.68 95.7027 286.693 96.4258 287.562 97.3142L287.706 97.4795H287.479C285.722 97.4795 283.985 97.2109 282.31 96.6531C281.835 96.5084 281.38 96.3225 280.925 96.1159C280.76 96.0539 280.656 95.9919 280.574 95.9506C280.532 95.9506 280.491 95.9093 280.45 95.8886C280.615 95.9506 280.781 96.0126 280.946 96.0746C281.256 96.1985 281.732 96.3638 282.331 96.5498C283.985 97.0663 285.722 97.3142 287.479 97.2729L287.417 97.4382C286.569 96.5704 285.577 95.8886 284.461 95.4134L283.53 95.0208L284.523 95.2068C285.308 95.3514 286.115 95.4134 286.9 95.3927C287.355 95.3927 287.81 95.3308 288.244 95.2894C288.678 95.2275 289.112 95.1448 289.526 95.0208C289.939 94.9175 290.332 94.7936 290.725 94.6489C291.097 94.5043 291.469 94.3184 291.821 94.1531C293.061 93.4919 294.157 92.6035 295.067 91.5498C295.666 90.8266 296.204 90.0415 296.638 89.1944C296.783 88.9051 296.907 88.6779 296.989 88.5126C297.031 88.4299 297.093 88.3473 297.134 88.2646H297.155Z" fill="#263238"/>
<path d="M290.932 114.194C290.973 114.36 290.994 114.504 290.994 114.67C291.014 114.979 291.056 115.434 291.076 115.971C291.138 117.087 291.201 118.616 291.221 120.31C291.242 122.004 291.221 123.533 291.221 124.649C291.221 125.207 291.18 125.661 291.159 125.951C291.159 126.116 291.159 126.281 291.097 126.426C291.076 126.26 291.056 126.095 291.056 125.951V124.649C291.056 123.492 291.035 121.984 291.014 120.31C290.994 118.636 290.952 117.149 290.932 115.992C290.932 115.475 290.932 115.041 290.911 114.67C290.89 114.504 290.89 114.339 290.911 114.194H290.932Z" fill="#263238"/>
<path d="M275.219 76.653C275.219 77.686 274.392 78.5125 273.358 78.5125C272.325 78.5125 271.498 77.686 271.498 76.653C271.498 75.6199 272.325 74.7935 273.358 74.7935C274.392 74.7935 275.219 75.6199 275.219 76.653Z" fill="#263238"/>
<path d="M290.994 73.8019C290.994 74.8349 290.167 75.6614 289.133 75.6614C288.099 75.6614 287.272 74.8349 287.272 73.8019C287.272 72.7688 288.099 71.9424 289.133 71.9424C290.167 71.9424 290.994 72.7688 290.994 73.8019Z" fill="#263238"/>
<path d="M287.893 78.0991C287.893 78.3057 287.893 78.533 287.851 78.7396C287.769 79.3181 287.562 79.876 287.272 80.3925C287.169 80.5578 287.045 80.7231 286.9 80.8677C286.735 81.0123 286.549 81.1363 286.363 81.219C285.928 81.4256 285.412 81.4462 284.957 81.3016C284.709 81.2396 284.481 81.1156 284.254 80.971C284.026 80.8264 283.82 80.6818 283.613 80.5165C283.179 80.1652 282.807 79.7727 282.455 79.3181L282.641 79.2768L282.6 79.3801C282.331 80.4545 281.628 81.3636 280.656 81.9008C280.222 82.128 279.726 82.2107 279.251 82.1694C278.837 82.128 278.444 81.9834 278.093 81.7561C277.597 81.4256 277.183 80.971 276.894 80.4545C276.811 80.3099 276.749 80.1652 276.687 80.0206C276.646 79.9173 276.625 79.8553 276.646 79.8553C276.666 79.8553 276.749 80.0619 276.956 80.4132C277.245 80.909 277.659 81.3429 278.155 81.6528C278.486 81.8595 278.858 82.0041 279.251 82.0454C279.705 82.0867 280.14 82.0041 280.553 81.7975C281.463 81.2809 282.124 80.4132 282.372 79.3801V79.2768L282.455 79.0702L282.579 79.2355C282.91 79.6694 283.282 80.0413 283.696 80.3925C283.882 80.5578 284.088 80.7024 284.316 80.8471C284.502 80.9917 284.729 81.095 284.957 81.157C285.763 81.4256 286.652 81.095 287.086 80.3719C287.376 79.876 287.603 79.3595 287.706 78.8016C287.789 78.3677 287.81 78.1404 287.831 78.1404L287.893 78.0991Z" fill="#263238"/>
<g opacity="0.6">
<path d="M279.705 61.5705L277.08 62.0663C277.266 63.1614 277.659 64.1944 278.217 65.1448C278.424 65.4754 278.713 65.8473 279.106 65.806C279.333 65.7853 279.54 65.6407 279.664 65.4341C279.788 65.2275 279.85 65.0209 279.892 64.7936C280.078 63.7192 280.016 62.6035 279.726 61.5498L279.705 61.5705Z" fill="white"/>
</g>
<path d="M303.812 80.8678C303.626 80.8678 303.46 80.8058 303.295 80.7645L301.889 80.4132C300.711 80.124 299.057 79.7521 297.196 79.4628C295.335 79.1736 293.681 79.0083 292.441 78.905L290.994 78.8017C290.808 78.8017 290.642 78.781 290.456 78.7397C290.642 78.719 290.808 78.6983 290.994 78.719C291.345 78.719 291.821 78.719 292.441 78.7603C295.646 78.905 298.809 79.4215 301.91 80.2686C302.509 80.4339 302.985 80.5785 303.295 80.6818C303.46 80.7231 303.626 80.7851 303.791 80.8678H303.812Z" fill="#263238"/>
<path d="M305.259 77.5C305.073 77.5206 304.887 77.5413 304.701 77.5H303.192C301.91 77.5 300.153 77.5 298.209 77.5413C296.266 77.5826 294.488 77.6859 293.227 77.7686L291.717 77.8719C291.531 77.8719 291.345 77.8719 291.159 77.8719C291.345 77.8099 291.531 77.7892 291.717 77.7686C292.069 77.7273 292.586 77.6653 293.227 77.6033C294.488 77.4793 296.266 77.3553 298.209 77.314C300.153 77.2727 301.931 77.2934 303.212 77.3347C303.853 77.3554 304.37 77.3967 304.722 77.4173C304.908 77.4173 305.094 77.438 305.28 77.4793L305.259 77.5Z" fill="#263238"/>
<path d="M305.094 85.6819C304.908 85.5992 304.722 85.5166 304.556 85.3926C304.225 85.186 303.729 84.9174 303.13 84.5662C301.558 83.6984 299.925 82.9133 298.271 82.2108C296.597 81.529 294.901 80.9505 293.165 80.434C292.503 80.248 291.965 80.0827 291.593 79.9794C291.407 79.9381 291.2 79.8761 291.014 79.7935C291.221 79.7935 291.407 79.8348 291.614 79.8968C291.986 79.9794 292.544 80.1034 293.206 80.2687C296.7 81.1984 300.07 82.6034 303.192 84.4216C303.791 84.7728 304.267 85.0827 304.577 85.2893C304.742 85.3926 304.908 85.4959 305.073 85.6406L305.094 85.6819Z" fill="#263238"/>
<path d="M272.531 83.2852C272.387 83.4091 272.242 83.5124 272.077 83.5951L270.836 84.3595C269.761 85 268.293 85.9298 266.701 87.0042C265.109 88.0785 263.724 89.1116 262.732 89.8554L261.533 90.7645C261.388 90.8885 261.243 90.9918 261.078 91.0744C261.202 90.9298 261.347 90.8058 261.491 90.7025C261.76 90.4752 262.153 90.1447 262.628 89.7521C263.6 88.967 264.985 87.9132 266.577 86.8389C268.169 85.7645 269.658 84.8554 270.753 84.2562C271.312 83.9463 271.746 83.6984 272.056 83.5537C272.201 83.4504 272.366 83.3678 272.531 83.3058V83.2852Z" fill="#263238"/>
<path d="M272.242 81.8389C272.242 81.8389 272.139 81.9215 272.077 81.9422L271.56 82.1901L269.658 83.0579C268.045 83.781 265.833 84.8141 263.414 85.9918C260.995 87.1694 258.824 88.2851 257.253 89.0909L255.392 90.062L254.875 90.3099C254.875 90.3099 254.751 90.3719 254.689 90.3926C254.731 90.3513 254.793 90.3099 254.855 90.2893L255.351 90C255.764 89.7521 256.405 89.4008 257.17 88.9876C258.721 88.1405 260.892 87.0042 263.311 85.8265C265.73 84.6488 267.962 83.657 269.575 82.9339C270.402 82.5827 271.043 82.3141 271.498 82.1281L272.035 81.9215C272.035 81.9215 272.159 81.8802 272.221 81.8802L272.242 81.8389Z" fill="#263238"/>
<path d="M269.947 81.2192C269.74 81.3019 269.513 81.3639 269.286 81.4052C268.872 81.5085 268.231 81.6738 267.487 81.8804C265.978 82.2936 263.889 82.9341 261.636 83.7606C259.382 84.587 257.398 85.4961 255.971 86.1779C255.268 86.5292 254.689 86.7977 254.297 87.0044C254.09 87.1077 253.883 87.211 253.676 87.2936C253.862 87.149 254.048 87.0457 254.255 86.9424C254.627 86.7151 255.206 86.4259 255.909 86.0539C259.589 84.1944 263.455 82.7482 267.466 81.7564C268.231 81.5705 268.851 81.4258 269.286 81.3432C269.513 81.2812 269.72 81.2606 269.947 81.2399V81.2192Z" fill="#263238"/>
<path d="M292.09 56.4878C292.131 56.6118 292.172 56.7564 292.172 56.901C292.214 57.1903 292.255 57.6035 292.276 58.0994C292.338 59.4423 292.234 60.806 291.986 62.1283L291.924 62.4175L291.779 62.1696C291.697 62.0043 291.593 61.839 291.49 61.6737L290.022 59.0498H290.187C290.001 59.7729 289.898 60.558 289.877 61.3432C289.877 61.901 289.877 62.2316 289.857 62.2316C289.836 62.149 289.815 62.0663 289.815 62.0043C289.795 61.777 289.774 61.5704 289.774 61.3432C289.774 60.558 289.836 59.7729 290.022 58.9878L290.084 58.7605L290.208 58.9671L291.697 61.5704L291.986 62.0663L291.779 62.1076C292.028 60.7853 292.152 59.463 292.131 58.12C292.131 57.1283 292.048 56.5085 292.09 56.5085V56.4878Z" fill="#263238"/>
<path d="M265.047 65.7024C264.53 64.9173 263.931 64.1942 263.269 63.533L263.435 63.471C263.352 64.1735 263.269 64.9586 263.187 65.7851C263.187 65.8884 263.166 66.0124 263.145 66.1157L263.104 66.5082L262.938 66.157C262.38 64.9173 261.884 63.8223 261.553 63.0165C261.346 62.6033 261.181 62.1487 261.036 61.7148C261.284 62.1074 261.512 62.5206 261.698 62.9545C262.07 63.7396 262.587 64.8347 263.145 66.0743L262.938 66.1157L262.98 65.7851C263.083 64.9586 263.166 64.1735 263.249 63.471V63.2851L263.393 63.4297C263.889 63.9049 264.324 64.4421 264.675 65.0413C264.84 65.2479 264.965 65.4958 265.047 65.7438V65.7024Z" fill="#263238"/>
</g>
<path d="M276.418 116.261C300.408 116.261 319.855 96.8256 319.855 72.8515C319.855 48.8773 300.408 29.4424 276.418 29.4424C252.429 29.4424 232.981 48.8773 232.981 72.8515C232.981 96.8256 252.429 116.261 276.418 116.261Z" stroke="#070707" stroke-width="0.27" stroke-miterlimit="10"/>
<path d="M232.009 90.4134C238.929 90.4134 244.538 84.8077 244.538 77.8927C244.538 70.9778 238.929 65.3721 232.009 65.3721C225.09 65.3721 219.481 70.9778 219.481 77.8927C219.481 84.8077 225.09 90.4134 232.009 90.4134Z" fill="white" stroke="#263238" stroke-width="0.35" stroke-miterlimit="10"/>
<path d="M226.965 74.8141L232.34 80.6612L243.07 65.062" stroke="#263238" stroke-width="1.06" stroke-linecap="round" stroke-linejoin="round"/>
<path d="M22.866 188.513C29.7855 188.513 35.3948 182.907 35.3948 175.992C35.3948 169.077 29.7855 163.471 22.866 163.471C15.9466 163.471 10.3373 169.077 10.3373 175.992C10.3373 182.907 15.9466 188.513 22.866 188.513Z" fill="white" stroke="#263238" stroke-width="0.35" stroke-miterlimit="10"/>
<path d="M17.8215 172.913L23.1968 178.76L33.9269 163.161" stroke="#263238" stroke-width="1.06" stroke-linecap="round" stroke-linejoin="round"/>
<path d="M272.49 236.488C296.48 236.488 315.927 217.053 315.927 193.079C315.927 169.104 296.48 149.669 272.49 149.669C248.5 149.669 229.053 169.104 229.053 193.079C229.053 217.053 248.5 236.488 272.49 236.488Z" fill="white"/>
<mask id="mask2_1_8205" style="mask-type:luminance" maskUnits="userSpaceOnUse" x="229" y="149" width="87" height="88">
<path d="M272.49 236.488C296.48 236.488 315.927 217.053 315.927 193.079C315.927 169.104 296.48 149.669 272.49 149.669C248.5 149.669 229.053 169.104 229.053 193.079C229.053 217.053 248.5 236.488 272.49 236.488Z" fill="white"/>
</mask>
<g mask="url(#mask2_1_8205)">
<path d="M303.274 189.215C306.004 186.301 307.802 179.049 306.004 176.322C304.205 173.595 294.426 177.438 290.89 181.157C287.355 184.876 285.949 187.19 285.949 187.19C281.959 186.611 274.909 186.715 272.552 186.756C270.175 186.694 263.042 186.591 259.052 187.19C259.052 187.19 257.646 184.876 254.111 181.157C250.575 177.438 240.817 173.615 238.997 176.322C237.178 179.029 238.997 186.281 241.726 189.215C244.455 192.148 249.79 198.574 250.492 199.277C251.195 199.979 249.996 208.243 250.182 218.698C250.368 229.153 250.596 237.81 251.898 242.644C253.201 247.479 255.434 253.822 255.434 255.62C255.434 257.479 254.896 259.277 253.924 260.867C252.911 262.582 250.596 263.285 250.306 265.289C250.017 267.293 250.927 268.409 253.635 269.111C256.343 269.814 257.667 269.814 259.569 268.615C261.471 267.417 262.897 265.289 262.897 265.289L273.172 265.496L283.448 265.289C283.448 265.289 284.854 267.396 286.776 268.615C288.699 269.834 290.001 269.814 292.73 269.111C295.46 268.409 296.349 267.293 296.059 265.289C295.77 263.285 293.433 262.562 292.441 260.867C291.469 259.297 290.952 257.479 290.932 255.62C290.932 253.801 293.144 247.458 294.467 242.644C295.79 237.83 294.674 229.153 294.86 218.698C295.046 208.243 293.847 199.979 294.55 199.277C295.253 198.574 300.607 192.128 303.337 189.215H303.274Z" fill="#009476" stroke="#1A2E35" stroke-width="0.35" stroke-linecap="round" stroke-linejoin="round"/>
<path d="M256.509 269.752C255.516 269.711 254.545 269.545 253.594 269.277C250.823 268.553 249.831 267.396 250.162 265.268C250.348 264.029 251.278 263.264 252.167 262.52C252.808 262.045 253.366 261.467 253.821 260.785C254.772 259.235 255.289 257.458 255.31 255.62C255.31 254.463 254.359 251.322 253.346 248.016C252.808 246.219 252.229 244.359 251.774 242.686C250.43 237.706 250.224 228.471 250.058 218.698C249.955 213.409 250.224 208.677 250.41 205.206C250.575 202.128 250.72 199.669 250.41 199.38C250.1 199.091 249.087 197.872 247.784 196.343C245.882 194.111 243.277 191.053 241.644 189.318C238.956 186.425 237.054 179.049 238.915 176.239C239.287 175.682 239.969 175.351 240.941 175.268C244.476 174.958 251.319 177.934 254.255 181.053C257.377 184.359 258.866 186.57 259.155 187.025C263.207 186.446 270.443 186.57 272.573 186.611C274.682 186.57 281.835 186.446 285.887 187.025C286.197 186.57 287.665 184.339 290.787 181.053C293.723 177.954 300.566 174.979 304.101 175.268C305.073 175.351 305.755 175.682 306.128 176.239C307.988 179.029 306.086 186.405 303.399 189.318C301.765 191.053 299.16 194.111 297.258 196.343C295.956 197.892 294.901 199.091 294.633 199.38C294.364 199.669 294.467 202.128 294.633 205.206C294.819 208.657 295.087 213.409 294.984 218.698C294.901 222.582 295.025 226.26 295.108 229.483C295.273 235.144 295.418 239.607 294.57 242.665C294.116 244.339 293.557 246.198 292.999 247.996C291.986 251.322 291.035 254.442 291.035 255.599C291.035 257.417 291.573 259.215 292.524 260.764C292.979 261.425 293.537 262.004 294.178 262.5C295.067 263.244 295.997 264.008 296.183 265.248C296.493 267.376 295.501 268.533 292.751 269.256C290.125 269.938 288.72 270.02 286.694 268.739C284.957 267.644 283.634 265.826 283.365 265.434L273.193 265.64L263.001 265.434C262.732 265.826 261.429 267.624 259.672 268.739C258.742 269.38 257.646 269.752 256.529 269.752H256.509ZM241.416 175.558C241.251 175.558 241.086 175.558 240.941 175.558C240.052 175.64 239.452 175.909 239.142 176.384C237.343 179.091 239.225 186.239 241.851 189.07C243.484 190.806 246.089 193.884 247.991 196.115C249.293 197.665 250.327 198.863 250.616 199.132C250.989 199.504 250.927 201.26 250.699 205.206C250.513 208.657 250.244 213.388 250.348 218.677C250.534 228.43 250.72 237.644 252.064 242.603C252.519 244.277 253.077 246.136 253.614 247.934C254.627 251.281 255.578 254.421 255.578 255.64C255.578 257.52 255.02 259.359 254.028 260.95C253.573 261.653 252.994 262.252 252.312 262.748C251.423 263.492 250.596 264.194 250.43 265.31C250.12 267.272 251.051 268.285 253.635 268.967C256.219 269.649 257.563 269.69 259.465 268.491C261.367 267.293 262.752 265.227 262.752 265.206C262.794 265.165 262.835 265.144 262.876 265.144L273.152 265.351L283.427 265.144C283.427 265.144 283.53 265.165 283.551 265.206C283.551 265.227 284.957 267.314 286.838 268.491C288.72 269.669 290.022 269.669 292.668 268.967C295.315 268.264 296.162 267.272 295.873 265.31C295.708 264.194 294.86 263.492 293.992 262.748C293.33 262.252 292.73 261.632 292.276 260.95C291.283 259.359 290.746 257.52 290.725 255.64C290.725 254.442 291.676 251.281 292.689 247.934C293.227 246.136 293.806 244.277 294.24 242.603C295.067 239.587 294.922 235.144 294.757 229.504C294.674 226.26 294.55 222.582 294.633 218.677C294.736 213.388 294.467 208.677 294.281 205.206C294.074 201.281 293.992 199.525 294.364 199.132C294.633 198.843 295.666 197.644 296.989 196.115C298.891 193.884 301.496 190.826 303.13 189.07C305.755 186.239 307.637 179.07 305.838 176.384C305.528 175.909 304.908 175.62 304.039 175.558C300.649 175.268 293.806 178.244 290.973 181.239C287.5 184.896 286.073 187.231 286.053 187.252C286.011 187.314 285.949 187.334 285.908 187.314C281.897 186.735 274.661 186.839 272.531 186.901C270.381 186.859 263.063 186.735 259.052 187.314C258.99 187.314 258.928 187.314 258.907 187.252C258.907 187.231 257.46 184.896 253.986 181.239C251.299 178.388 244.952 175.558 241.416 175.558Z" fill="#263237"/>
<path d="M284.502 239.483C280.367 240.475 280.595 239.297 280.243 234.752C279.892 230.206 284.605 227.975 288.306 225.806C292.007 223.636 294.467 217.314 293.578 216.24C292.689 215.165 283.944 215.888 283.262 214.277C282.579 212.665 282.311 207.624 282.311 207.624L272.842 204.958L262.98 207.624C262.98 207.624 263.104 212.665 262.422 214.277C261.739 215.888 253.015 215.165 252.126 216.24C251.237 217.314 253.697 223.636 257.398 225.806C261.098 227.975 265.792 230.186 265.461 234.752C265.13 239.318 265.357 240.475 261.202 239.483C257.046 238.492 253.697 236.26 253.697 239.669C253.697 243.078 254.483 247.789 256.943 249.483C259.403 251.178 261.533 250.289 262.876 253.409C264.22 256.529 264.055 262.066 262.504 264.814C262.442 264.938 262.401 265.062 262.36 265.186C262.525 264.959 262.628 264.814 262.628 264.814L272.904 265.02L283.179 264.814C281.628 262.066 281.463 256.529 282.807 253.409C284.151 250.289 286.28 251.178 288.74 249.483C291.201 247.789 291.986 243.058 291.986 239.669C291.986 236.281 288.637 238.512 284.481 239.483H284.502Z" fill="white"/>
<path d="M287.045 187.417C287.045 187.417 287.996 190.826 289.443 193.223C290.89 195.62 292.255 197.459 294.384 196.632C296.514 195.806 303.068 188.781 304.308 185.62C305.549 182.459 306.293 177.562 304.515 176.322C302.737 175.082 292.4 177.892 287.066 187.397L287.045 187.417Z" fill="#009476" stroke="#1A2E35" stroke-width="0.35" stroke-linecap="round" stroke-linejoin="round"/>
<path d="M257.749 187.417C257.749 187.417 256.798 190.826 255.351 193.223C253.904 195.62 252.539 197.459 250.41 196.632C248.28 195.806 241.726 188.781 240.486 185.62C239.246 182.459 238.522 177.562 240.279 176.322C242.037 175.082 252.395 177.892 257.729 187.397L257.749 187.417Z" fill="#009476" stroke="#1A2E35" stroke-width="0.35" stroke-linecap="round" stroke-linejoin="round"/>
<path d="M270.237 208.533H275.757V215.805C275.757 217.19 274.64 218.305 273.255 218.305H272.718C271.332 218.305 270.216 217.19 270.216 215.805V208.533H270.237Z" fill="#91E1A7"/>
<path d="M273.255 218.45H272.718C271.25 218.45 270.071 217.272 270.071 215.806V208.533C270.071 208.533 270.133 208.388 270.216 208.388H275.736C275.736 208.388 275.881 208.45 275.881 208.533V215.806C275.881 217.272 274.702 218.45 273.234 218.45H273.255ZM270.381 208.677V215.806C270.381 217.087 271.436 218.14 272.718 218.14H273.255C274.537 218.14 275.591 217.087 275.591 215.806V208.677H270.381Z" fill="#263237"/>
<path d="M272.904 214.545C272.904 214.545 272.759 214.483 272.759 214.401V210.041C272.759 210.041 272.821 209.896 272.904 209.896C272.986 209.896 273.048 209.958 273.048 210.041V214.401C273.048 214.401 272.986 214.545 272.904 214.545Z" fill="#263237"/>
<path d="M275.509 200.475C274.702 198.367 275.819 194.442 275.198 192.52C274.578 190.599 273.379 191.012 273.379 191.012L272.883 191.115L272.387 191.012C272.387 191.012 271.188 190.619 270.567 192.52C269.947 194.421 271.064 198.367 270.257 200.475C269.451 202.582 263.207 206.322 263.207 208.119C263.207 209.917 266.536 212.748 267.942 213.367C269.348 213.987 272.883 210.041 272.883 210.041C272.883 210.041 276.418 213.967 277.824 213.367C279.23 212.768 282.559 209.938 282.559 208.119C282.559 206.301 276.315 202.582 275.529 200.475H275.509Z" fill="white"/>
<path d="M277.493 213.574C276.025 213.574 273.524 210.95 272.883 210.268C272.201 211.033 269.265 214.091 267.88 213.512C266.432 212.892 263.042 210.041 263.042 208.14C263.042 207.107 264.779 205.62 266.619 204.049C268.169 202.748 269.74 201.384 270.113 200.434C270.526 199.339 270.423 197.727 270.299 196.157C270.195 194.752 270.113 193.409 270.402 192.479C270.629 191.715 271.002 191.219 271.477 190.971C271.767 190.826 272.097 190.785 272.407 190.868L272.862 190.95L273.338 190.847C273.648 190.764 273.979 190.806 274.268 190.971C274.744 191.219 275.095 191.715 275.343 192.479C275.633 193.409 275.55 194.731 275.447 196.157C275.343 197.706 275.219 199.339 275.653 200.434C276.025 201.384 277.597 202.748 279.127 204.049C280.987 205.62 282.703 207.107 282.703 208.14C282.703 210.062 279.313 212.892 277.865 213.512C277.741 213.554 277.617 213.595 277.473 213.595L277.493 213.574ZM272.118 191.157C271.953 191.157 271.787 191.198 271.642 191.281C271.25 191.487 270.94 191.921 270.712 192.603C270.443 193.471 270.526 194.773 270.629 196.157C270.733 197.748 270.857 199.401 270.423 200.558C270.03 201.591 268.479 202.913 266.846 204.297C265.13 205.764 263.373 207.252 263.373 208.14C263.373 209.897 266.66 212.665 268.004 213.223C269.079 213.678 271.808 211.012 272.759 209.938C272.821 209.876 272.924 209.876 272.986 209.938C273.958 211.012 276.687 213.678 277.741 213.223C279.085 212.644 282.373 209.897 282.373 208.14C282.373 207.252 280.615 205.744 278.899 204.297C277.266 202.913 275.715 201.591 275.323 200.558C274.888 199.401 274.992 197.748 275.116 196.157C275.219 194.773 275.302 193.471 275.033 192.603C274.826 191.921 274.516 191.487 274.103 191.281C273.896 191.157 273.648 191.136 273.4 191.198L272.883 191.302C272.883 191.302 272.842 191.302 272.821 191.302L272.325 191.198C272.325 191.198 272.201 191.178 272.118 191.178V191.157Z" fill="#263237"/>
<path d="M276.728 205.723C275.736 204.731 274.413 204.153 273.028 204.112C270.505 204.07 268.562 205.103 268.769 206.012C268.975 206.921 271.601 208.822 272.594 209.132C273.586 209.442 276.522 207.128 276.728 205.702V205.723Z" fill="#263237"/>
<path d="M277.907 200.434C278.512 200.434 279.003 199.74 279.003 198.884C279.003 198.028 278.512 197.334 277.907 197.334C277.302 197.334 276.811 198.028 276.811 198.884C276.811 199.74 277.302 200.434 277.907 200.434Z" fill="#263237"/>
<path d="M278.134 198.574C278.294 198.574 278.424 198.445 278.424 198.285C278.424 198.125 278.294 197.996 278.134 197.996C277.974 197.996 277.845 198.125 277.845 198.285C277.845 198.445 277.974 198.574 278.134 198.574Z" fill="white"/>
<path d="M268.293 198.884C268.293 199.731 267.797 200.434 267.197 200.434C266.598 200.434 266.102 199.731 266.102 198.884C266.102 198.037 266.598 197.334 267.197 197.334C267.797 197.334 268.293 198.016 268.293 198.884Z" fill="#263237"/>
<path d="M267.487 198.574C267.647 198.574 267.776 198.445 267.776 198.285C267.776 198.125 267.647 197.996 267.487 197.996C267.327 197.996 267.197 198.125 267.197 198.285C267.197 198.445 267.327 198.574 267.487 198.574Z" fill="white"/>
</g>
<path d="M272.49 236.488C296.48 236.488 315.927 217.053 315.927 193.079C315.927 169.104 296.48 149.669 272.49 149.669C248.5 149.669 229.053 169.104 229.053 193.079C229.053 217.053 248.5 236.488 272.49 236.488Z" stroke="#070707" stroke-width="0.27" stroke-miterlimit="10"/>
<path d="M143.481 80.7437C143.481 80.7437 131.531 88.471 135.067 97.5825C138.602 106.673 160.29 110.847 167.154 108.202C174.017 105.558 172.012 94.7106 171.557 94.0495C171.102 93.3883 179.744 83.6569 179.744 82.5412C179.744 81.4255 180.633 75.0206 180.633 75.0206C180.633 75.0206 186.608 74.3594 189.255 69.7106C191.901 65.0619 187.063 54.6693 181.936 50.6817C176.809 46.6941 170.648 43.1611 157.809 46.4875C144.97 49.8139 133.743 61.7148 135.067 69.0288C136.39 76.3429 143.481 80.7437 143.481 80.7437Z" fill="#263238" stroke="#263238" stroke-width="0.35" stroke-linecap="round" stroke-linejoin="round"/>
<path d="M134.157 181.57C134.157 181.57 129.836 194.545 129.319 206.529C128.802 218.512 139.264 236.818 139.264 241.157C139.264 245.496 139.512 246.756 139.512 252.603C139.512 258.45 137.217 263.058 141.042 278.326C144.866 293.595 151.234 319.318 151.234 320.599C151.234 321.88 149.208 329.773 147.657 331.798C146.107 333.822 143.585 336.384 145.114 337.913C146.644 339.442 158.615 339.69 160.145 338.678C161.675 337.665 161.923 332.314 161.923 327.975C161.923 323.636 160.641 316.26 160.641 312.19C160.641 308.12 163.184 264.07 163.184 264.07L166.244 217.459C166.244 217.459 171.847 260.248 172.839 269.669C173.831 279.091 183.3 312.955 183.817 315.496C184.334 318.037 186.112 335.599 186.36 336.88C186.608 338.161 188.138 338.926 189.42 338.926C190.702 338.926 200.398 340.95 201.411 337.893C202.424 334.835 198.103 329.236 197.338 325.93C196.573 322.624 194.278 318.306 194.278 314.959C194.278 311.612 198.868 280.083 197.338 268.616C195.808 257.149 192.5 243.657 192.997 240.868C193.493 238.078 199.633 212.314 198.599 202.169C197.566 192.025 196.16 183.802 196.16 183.802L194.01 179.773L137.444 176.715L134.136 181.591L134.157 181.57Z" fill="#E8D0B4" stroke="#263238" stroke-width="0.35" stroke-linecap="round" stroke-linejoin="round"/>
<path d="M156.32 318.554C153.777 316.777 150.965 322.624 150.965 322.624H150.862C150.2 325.496 148.794 330.248 147.657 331.756C146.127 333.802 143.585 336.343 145.114 337.872C146.644 339.401 158.615 339.649 160.145 338.637C161.675 337.624 161.923 332.273 161.923 327.934C161.923 326.715 161.819 325.248 161.675 323.678L160.641 324.112C160.641 324.112 158.863 320.31 156.32 318.533V318.554Z" fill="#263238" stroke="#263238" stroke-width="0.35" stroke-linecap="round" stroke-linejoin="round"/>
<path d="M195.498 320.372C194.32 319.132 192.087 317.438 189.957 319.587C186.898 322.645 186.65 324.174 186.65 324.174L184.892 323.76C185.554 329.504 186.257 336.136 186.401 336.942C186.65 338.223 188.179 338.988 189.461 338.988C190.743 338.988 200.439 341.012 201.453 337.955C202.466 334.897 198.145 329.298 197.38 325.992C196.987 324.277 196.201 322.335 195.519 320.372H195.498Z" fill="#263238" stroke="#263238" stroke-width="0.35" stroke-linecap="round" stroke-linejoin="round"/>
<path d="M195.87 299.834C197.028 289.029 198.227 275.372 197.338 268.657C195.808 257.19 192.5 243.698 192.997 240.909C193.493 238.119 199.633 212.355 198.599 202.21C197.566 192.066 196.16 183.843 196.16 183.843L194.01 179.814L137.444 176.756L134.136 181.591C134.136 181.591 129.815 194.566 129.298 206.549C128.782 218.533 139.243 236.839 139.243 241.177C139.243 245.516 139.491 246.777 139.491 252.624C139.491 258.471 137.196 263.078 141.021 278.347C142.613 284.752 144.68 292.996 146.5 300.475C151.275 301.57 156.175 302.066 161.075 301.942C161.799 287.686 163.163 264.132 163.163 264.132L166.223 217.5C166.223 217.5 171.826 260.289 172.818 269.71C173.439 275.351 177.057 289.793 179.992 300.991C184.996 301.487 190.95 301.529 195.85 299.876L195.87 299.834Z" fill="#263238" stroke="#263238" stroke-width="0.35" stroke-linecap="round" stroke-linejoin="round"/>
<path d="M158.201 91.3638C158.201 91.3638 157.829 102.5 157.643 104.38C157.457 106.26 154.811 107.583 150.324 107.955C145.838 108.327 133.888 106.818 130.125 110.227C126.363 113.636 114.268 139.856 114.826 141.694C115.384 143.533 119.354 146.591 123.696 144.339C128.037 142.087 137.858 133.203 137.858 133.203L142.096 159.525L133.723 183.616C133.723 183.616 153.364 188.513 169.221 187.376C178.297 186.777 187.311 185.579 196.222 183.802C196.222 183.802 192.294 167.748 190.04 164.732C187.787 161.715 185.843 154.938 185.843 154.938L191.136 132.108C191.136 132.108 210.963 147.19 211.686 147.397C212.41 147.603 222.644 150.227 222.83 143.244C223.016 136.26 218.964 133.306 218.964 133.306C218.964 133.306 200.543 112.087 196.387 110.227C192.232 108.368 176.746 108.141 174.865 106.839C172.984 105.537 173.356 98.5332 173.356 98.5332L158.222 91.3638H158.201Z" fill="#E8D0B4" stroke="#263238" stroke-width="0.35" stroke-linecap="round" stroke-linejoin="round"/>
<path d="M169.51 106.364C171.02 106.136 172.467 105.579 173.749 104.752C173.377 102.707 173.232 100.641 173.335 98.5745L158.201 91.3638C158.201 91.3638 158.098 94.4836 157.974 97.6861C160.765 101.488 165.417 106.839 169.51 106.343V106.364Z" fill="#263238"/>
<path d="M196.367 110.248C193.1 108.781 182.866 108.326 177.697 107.583C175.692 111.178 171.702 116.735 166.347 116.859C159.669 117.025 153.136 110.083 151.234 107.892C150.924 107.934 150.614 107.975 150.304 107.996C145.776 108.368 133.868 106.859 130.105 110.268C128.265 111.921 124.502 118.925 121.132 125.93C122.248 126.24 123.592 126.611 125.184 127.045C129.629 128.388 133.64 130.847 136.845 134.194C137.465 133.636 137.837 133.306 137.837 133.306L142.096 159.566L133.723 183.657C133.723 183.657 153.364 188.554 169.221 187.417C178.297 186.818 187.311 185.62 196.222 183.843C196.222 183.843 192.294 167.789 190.04 164.773C187.787 161.756 185.843 154.979 185.843 154.979L191.136 132.149C191.136 132.149 194.361 134.607 198.269 137.541L210.963 124.525C206.27 118.822 198.951 111.405 196.408 110.248H196.367Z" fill="#009476" stroke="#263238" stroke-width="0.35" stroke-linecap="round" stroke-linejoin="round"/>
<path d="M170.896 153.285C166.492 157.727 159.917 164.153 154.707 168.326" stroke="#263238" stroke-width="0.35" stroke-linecap="round" stroke-linejoin="round"/>
<path d="M175.775 148.264C175.775 148.264 174.72 149.401 172.984 151.198" stroke="#263238" stroke-width="0.35" stroke-linecap="round" stroke-linejoin="round"/>
<path d="M157.685 161.653C157.685 161.653 149.746 167.851 145.755 171.074" stroke="#263238" stroke-width="0.35" stroke-linecap="round" stroke-linejoin="round"/>
<path d="M210.591 139.298C210.591 139.298 191.984 166.55 191.487 168.079C190.991 169.607 192.211 171.653 192.769 173.203C193.327 174.752 194.547 182.376 197.09 182.376C199.633 182.376 204.223 180.599 204.471 179.318C204.719 178.037 204.223 176.012 203.458 176.012C202.693 176.012 202.445 177.541 202.445 177.541L202.197 178.554L200.419 177.273C200.419 177.273 201.184 176.55 201.452 173.203C201.721 169.855 198.91 167.355 198.91 167.355C198.91 167.355 226.179 145.971 226.179 142.397C226.179 138.822 218.984 133.347 218.984 133.347" fill="#E8D0B4"/>
<path d="M210.591 139.298C210.591 139.298 191.984 166.55 191.487 168.079C190.991 169.607 192.211 171.653 192.769 173.203C193.327 174.752 194.547 182.376 197.09 182.376C199.633 182.376 204.223 180.599 204.471 179.318C204.719 178.037 204.223 176.012 203.458 176.012C202.693 176.012 202.445 177.541 202.445 177.541L202.197 178.554L200.419 177.273C200.419 177.273 201.184 176.55 201.452 173.203C201.721 169.855 198.91 167.355 198.91 167.355C198.91 167.355 226.179 145.971 226.179 142.397C226.179 138.822 218.984 133.347 218.984 133.347" stroke="#263238" stroke-width="0.35" stroke-linecap="round" stroke-linejoin="round"/>
<path d="M172.384 61.5703C169.118 65.3926 165.644 69.0497 162.005 72.5207C158.677 75.5579 154.935 78.0992 150.883 80.0621L151.606 81.3844C151.606 81.3844 147.265 79.8761 147.451 82.8926C147.637 85.9092 151.42 88.0166 152.164 88.1819C152.661 88.2852 153.177 88.3472 153.674 88.3678C154.004 88.3678 156.609 92.4794 157.147 93.0579C159.959 96.1571 163.453 99.3389 167.484 100.703C177.16 103.967 182.37 92.0249 182.37 84.2149C182.37 80.062 182.556 72.3348 182.556 72.3348C182.556 72.3348 174.059 63.6571 172.363 61.591L172.384 61.5703Z" fill="#E8D0B4" stroke="#263238" stroke-width="0.35" stroke-linecap="round" stroke-linejoin="round"/>
<path d="M172.963 73.6362C172.963 73.6362 172.591 77.3966 173.687 78.9255C174.782 80.4544 177.284 80.6197 176.519 81.942C175.754 83.2643 173.501 84.0288 173.501 84.0288" stroke="#263238" stroke-width="0.35" stroke-linecap="round" stroke-linejoin="round"/>
<path d="M163.887 84.4009C163.887 84.4009 166.719 88.1819 172.756 86.4877" stroke="#263238" stroke-width="0.35" stroke-linecap="round" stroke-linejoin="round"/>
<path d="M166.161 77.0453C166.161 77.975 165.727 78.7395 165.21 78.7395C164.693 78.7395 164.259 78.0164 164.259 77.0453C164.259 76.0742 164.693 75.3511 165.21 75.3511C165.727 75.3511 166.161 76.1155 166.161 77.0453Z" fill="#263238"/>
<path d="M176.933 76.4667C176.933 77.4171 176.498 78.1609 175.981 78.1609C175.465 78.1609 175.03 77.4377 175.03 76.4667C175.03 75.4956 175.444 74.7725 175.981 74.7725C176.519 74.7725 176.933 75.5369 176.933 76.4667Z" fill="#263238"/>
<path d="M160.496 74.1939C160.496 74.1939 163.143 69.2972 168.229 71.1774" stroke="#263238" stroke-width="0.35" stroke-linecap="round" stroke-linejoin="round"/>
<path d="M172.384 69.6695C172.384 69.6695 175.589 66.2811 180.116 69.6695" stroke="#263238" stroke-width="0.35" stroke-linecap="round" stroke-linejoin="round"/>
<path d="M164.342 104.814C164.342 104.814 167.153 101.591 169.51 100.723C171.867 99.8554 173.17 97.7066 172.301 97.2934C171.433 96.8802 171.02 96.219 166.926 98.1612C162.832 100.103 160.248 102.252 160.248 104.607C160.248 106.963 158.098 116.88 157.436 118.388C156.775 119.897 154.645 124.835 143.233 129.153C131.821 133.471 121.69 133.45 116.956 136.26C112.221 139.07 109.41 147.459 112.015 150.682C114.62 153.905 123.654 152.19 127.086 150.909C130.518 149.628 146.913 138.202 151.42 134.339C155.927 130.475 160.889 125.289 160.889 125.289C160.889 125.289 163.68 124.628 165.189 123.347C166.368 122.19 167.381 120.888 168.208 119.483C168.766 120 169.614 119.959 170.131 119.401C170.234 119.298 170.317 119.174 170.379 119.05C171.226 117.541 172.736 113.017 172.736 110.434C172.88 108.45 171.474 106.674 169.51 106.343C167.753 105.95 166.037 105.455 164.342 104.835V104.814Z" fill="#E8D0B4" stroke="#263238" stroke-width="0.35" stroke-linecap="round" stroke-linejoin="round"/>
<path d="M165.83 113.12C165.83 113.12 168.766 113.016 169.903 113.12C171.04 113.223 171.847 113.223 171.847 114.442" fill="#E8D0B4"/>
<path d="M165.83 113.12C165.83 113.12 168.766 113.016 169.903 113.12C171.04 113.223 171.847 113.223 171.847 114.442" stroke="#263238" stroke-width="0.35" stroke-linecap="round" stroke-linejoin="round"/>
<path d="M165.127 109.256C165.127 109.256 171.661 109.359 172.074 109.979C172.363 110.516 172.57 111.115 172.694 111.715" fill="#E8D0B4"/>
<path d="M165.127 109.256C165.127 109.256 171.661 109.359 172.074 109.979C172.363 110.516 172.57 111.115 172.694 111.715" stroke="#263238" stroke-width="0.35" stroke-linecap="round" stroke-linejoin="round"/>
<path d="M168.208 119.463L168.291 117.81" stroke="#263238" stroke-width="0.35" stroke-linecap="round" stroke-linejoin="round"/>
</g>
<defs>
<clipPath id="clip0_1_8205">
<rect width="339" height="340" fill="white"/>
</clipPath>
</defs>
</svg>
