<svg width="359" height="560" viewBox="0 0 359 560" fill="none" xmlns="http://www.w3.org/2000/svg">
<path d="M37.7899 141.5C37.7899 63.3517 101.142 0 179.29 0C257.438 0 320.79 63.3517 320.79 141.5V418.5C320.79 496.648 257.438 560 179.29 560C101.142 560 37.7899 496.648 37.7899 418.5V141.5Z" fill="#DEF7E5"/>
<path d="M18.8636 177.484C10.5196 201.284 -1.82603 217.928 6.55294 244.568C13.464 266.525 26.9455 267.582 40.2435 282.19C52.0475 295.156 53.2095 317.235 67.2676 328.13C85.9914 342.643 103.247 330.411 122.408 326.916C143.106 323.168 153.687 329.887 172.909 340.817C208.627 361.148 256.454 381.759 296.103 356.544C319.231 341.857 324.473 311.119 333.21 286.55C340.82 265.197 356.215 239.85 358.129 217.028C362.497 164.929 305.234 131.116 262.701 122.204C242.728 117.992 219.33 120.282 200.859 112.505C181.174 104.214 171.144 83.5505 155.068 70.567C113.898 37.2871 61.7195 55.9497 39.9814 105.516C29.7414 128.835 27.2076 153.684 18.8636 177.484Z" fill="#92E3A9"/>
<path d="M18.8636 177.484C10.5196 201.284 -1.82603 217.928 6.55294 244.568C13.464 266.525 26.9455 267.582 40.2435 282.19C52.0475 295.156 53.2095 317.235 67.2676 328.13C85.9914 342.643 103.247 330.411 122.408 326.916C143.106 323.168 153.687 329.887 172.909 340.817C208.627 361.148 256.454 381.759 296.103 356.544C319.231 341.857 324.473 311.119 333.21 286.55C340.82 265.197 356.215 239.85 358.129 217.028C362.497 164.929 305.234 131.116 262.701 122.204C242.728 117.992 219.33 120.282 200.859 112.505C181.174 104.214 171.144 83.5505 155.068 70.567C113.898 37.2871 61.7195 55.9497 39.9814 105.516C29.7414 128.835 27.2076 153.684 18.8636 177.484Z" fill="#92E3A9"/>
<path d="M135.059 381.172C209.651 381.172 270.119 384.939 270.119 389.586C270.119 394.234 209.651 398 135.059 398C60.4683 398 0 394.234 0 389.586C0 384.939 60.4683 381.172 135.059 381.172Z" fill="#92E3A9"/>
<path d="M135.059 381.172C209.651 381.172 270.119 384.939 270.119 389.586C270.119 394.234 209.651 398 135.059 398C60.4683 398 0 394.234 0 389.586C0 384.939 60.4683 381.172 135.059 381.172Z" fill="#92E3A9"/>
<path d="M100.748 69.6392H236.551C245.926 69.6392 253.527 77.2396 253.527 86.6155V373.318C253.527 382.693 245.926 390.294 236.551 390.294H100.748C91.3726 390.294 83.7721 382.693 83.7721 373.318V86.6155C83.7721 77.2396 91.3726 69.6392 100.748 69.6392Z" fill="#263238"/>
<rect x="91.3124" y="104.85" width="154.666" height="250.233" fill="white"/>
<rect x="91.3124" y="104.85" width="154.666" height="250.233" stroke="#263238" stroke-width="1.337"/>
<path d="M144.944 158.765C158.036 145.674 179.263 145.674 192.354 158.765C205.447 171.857 205.447 193.084 192.354 206.176C179.263 219.269 158.036 219.269 144.944 206.176C131.852 193.084 131.852 171.857 144.944 158.765Z" fill="#92E3A9"/>
<path d="M212.663 339.347H124.645C123.815 339.353 123.138 338.683 123.133 337.853V337.845C123.128 337.015 123.797 336.338 124.627 336.333H124.645H212.663C213.493 336.333 214.166 337.006 214.166 337.836V337.845C214.166 338.675 213.493 339.347 212.663 339.347Z" fill="#92E3A9"/>
<path d="M121.77 234.842H215.529C217.464 234.842 219.033 236.41 219.033 238.345V249.398C219.033 251.333 217.464 252.902 215.529 252.902H121.77C119.835 252.902 118.267 251.333 118.267 249.398V238.345C118.267 236.41 119.835 234.842 121.77 234.842Z" fill="#92E3A9"/>
<path d="M121.77 268.62H215.529C217.464 268.62 219.033 270.188 219.033 272.123V283.176C219.033 285.111 217.464 286.68 215.529 286.68H121.77C119.835 286.68 118.267 285.111 118.267 283.176V272.123C118.267 270.188 119.835 268.62 121.77 268.62Z" fill="#92E3A9"/>
<path d="M185.342 199.194L175.478 193.515V188.823C176.906 187.095 177.941 185.077 178.509 182.908C178.849 183.029 179.207 183.091 179.567 183.092C180.79 183.092 181.567 179.3 181.698 176.591C183.123 173.577 181.183 171.812 181.183 171.812C181.183 171.812 181.987 171.008 182.52 167.784C183.053 164.56 180.641 165.906 178.763 162.952C176.884 159.999 175.539 156.784 169.37 156.784C165.892 156.669 162.698 158.693 161.315 161.886C159.78 161.892 158.25 162.071 156.754 162.419C154.867 162.952 154.334 169.13 155.941 171.55C156.661 172.873 157.045 174.352 157.06 175.857C156.632 175.333 156.186 175.193 155.941 176.381C155.408 179.064 157.558 182.821 157.558 182.821L158.667 182.506C159.226 184.823 160.305 186.984 161.821 188.823V193.515L151.957 199.194C149.613 200.548 148.168 203.048 148.165 205.756V209.006C160.231 218.327 177.068 218.327 189.134 209.006V205.756C189.136 203.047 187.689 200.545 185.342 199.194Z" fill="#263238"/>
<g style="mix-blend-mode:multiply">
<rect x="91.3124" y="105.182" width="154.666" height="9.68954" fill="#92E3A9"/>
</g>
<path d="M185.464 87.332H151.826C150.562 87.332 149.537 86.3071 149.537 85.0428C149.537 83.7785 150.562 82.7537 151.826 82.7537H185.464C186.728 82.7537 187.753 83.7785 187.753 85.0428C187.753 86.3071 186.728 87.332 185.464 87.332Z" fill="#92E3A9"/>
<path d="M185.464 87.332H151.826C150.562 87.332 149.537 86.3071 149.537 85.0428C149.537 83.7785 150.562 82.7537 151.826 82.7537H185.464C186.728 82.7537 187.753 83.7785 187.753 85.0428C187.753 86.3071 186.728 87.332 185.464 87.332Z" stroke="#263238" stroke-width="1.337" stroke-linecap="round" stroke-linejoin="round"/>
<path d="M177.819 369.22C177.824 364.153 173.721 360.042 168.654 360.037C163.587 360.032 159.476 364.136 159.471 369.202C159.466 374.269 163.57 378.38 168.636 378.385H168.654C173.714 378.38 177.814 374.28 177.819 369.22Z" fill="#92E3A9"/>
<rect x="164.006" y="364.572" width="9.29637" height="9.29637" fill="#92E3A9"/>
<rect x="164.006" y="364.572" width="9.29637" height="9.29637" stroke="#263238" stroke-width="1.337" stroke-linecap="round" stroke-linejoin="round"/>
<path d="M57.0713 275.637C55.3151 280.835 52.9648 276.877 52.0474 255.594C51.6106 245.633 51.1126 225.197 62.401 229.032C73.2438 232.711 61.0642 263.658 61.0642 263.658L57.0713 275.637ZM72.3876 277.777C72.3876 277.777 93.951 252.439 84.8905 245.45C75.4543 238.154 69.3034 257.594 66.4725 267.205C60.4351 287.642 61.3787 292.167 64.7251 287.799L72.3876 277.777ZM78.5124 298.956C78.5124 298.956 98.669 282.731 92.754 276.056C86.5943 269.136 79.0715 283.124 75.5155 290.035C67.9404 304.793 68.0015 308.366 71.1906 305.535L78.5124 298.956ZM85.5283 320.074C85.5283 320.074 105.624 303.849 99.7437 297.156C93.584 290.228 86.0613 304.225 82.5052 311.136C74.9301 325.884 74.9913 329.466 78.1803 326.627L85.5283 320.074ZM46.2023 279.149C46.2023 279.149 15.8493 265.563 11.6816 276.231C7.33051 287.336 27.7406 287.79 37.7359 287.79C59.0459 287.851 63.1 285.684 57.9974 283.692L46.2023 279.149ZM51.3485 295.811C51.3485 295.811 18.8985 288.524 16.9327 299.812C14.8794 311.52 34.9662 307.894 44.7606 305.928C65.66 301.752 69.2073 298.816 63.8077 297.882L51.3485 295.811ZM59.7274 313.713C59.7274 313.713 32.1179 308.279 30.72 317.89C29.2521 327.876 46.1586 324.338 54.3977 322.45C71.9682 318.431 74.9039 315.871 70.3081 315.207L59.7274 313.713ZM64.8736 328.645C64.8736 328.645 37.998 320.336 35.5778 329.72C33.0703 339.497 50.2563 337.767 58.644 336.771C76.5552 334.639 79.7443 332.402 75.2447 331.258L64.8736 328.645ZM42.7336 252.806C42.7336 252.806 28.5182 216.215 15.2988 223.799C1.52902 231.689 18.916 247.538 27.5833 255.113C46.0887 271.259 51.5319 272.15 48.9108 266.279L42.7336 252.806ZM68.1501 348.409C68.1501 348.409 51.8989 337.924 47.9322 342.904C43.8345 348.077 55.953 350.698 61.9117 351.877C74.6156 354.411 77.3328 353.782 74.5631 352.166L68.1501 348.409Z" fill="#92E3A9"/>
<g opacity="0.300003">
<path d="M57.0713 275.637C55.3151 280.835 52.9648 276.877 52.0474 255.594C51.6106 245.633 51.1126 225.197 62.401 229.032C73.2438 232.711 61.0642 263.658 61.0642 263.658L57.0713 275.637ZM72.3876 277.777C72.3876 277.777 93.951 252.439 84.8905 245.45C75.4543 238.154 69.3034 257.594 66.4725 267.205C60.4351 287.642 61.3787 292.167 64.7251 287.799L72.3876 277.777ZM78.5124 298.956C78.5124 298.956 98.669 282.731 92.754 276.056C86.5943 269.136 79.0715 283.124 75.5155 290.035C67.9404 304.793 68.0015 308.366 71.1906 305.535L78.5124 298.956ZM85.5283 320.074C85.5283 320.074 105.624 303.849 99.7437 297.156C93.584 290.228 86.0613 304.225 82.5052 311.136C74.9301 325.884 74.9913 329.466 78.1803 326.627L85.5283 320.074ZM46.2023 279.149C46.2023 279.149 15.8493 265.563 11.6816 276.231C7.33051 287.336 27.7406 287.79 37.7359 287.79C59.0459 287.851 63.1 285.684 57.9974 283.692L46.2023 279.149ZM51.3485 295.811C51.3485 295.811 18.8985 288.524 16.9327 299.812C14.8794 311.52 34.9662 307.894 44.7606 305.928C65.66 301.752 69.2073 298.816 63.8077 297.882L51.3485 295.811ZM59.7274 313.713C59.7274 313.713 32.1179 308.279 30.72 317.89C29.2521 327.876 46.1586 324.338 54.3977 322.45C71.9682 318.431 74.9039 315.871 70.3081 315.207L59.7274 313.713ZM64.8736 328.645C64.8736 328.645 37.998 320.336 35.5778 329.72C33.0703 339.497 50.2563 337.767 58.644 336.771C76.5552 334.639 79.7443 332.402 75.2447 331.258L64.8736 328.645ZM42.7336 252.806C42.7336 252.806 28.5182 216.215 15.2988 223.799C1.52902 231.689 18.916 247.538 27.5833 255.113C46.0887 271.259 51.5319 272.15 48.9108 266.279L42.7336 252.806ZM68.1501 348.409C68.1501 348.409 51.8989 337.924 47.9322 342.904C43.8345 348.077 55.953 350.698 61.9117 351.877C74.6156 354.411 77.3328 353.782 74.5631 352.166L68.1501 348.409Z" fill="white"/>
</g>
<path d="M57.8139 242.741L55.6908 278.066L57.8139 242.741ZM75.83 259.342L62.4097 289.721L75.83 259.342ZM59.9371 285.501L27.7755 280.888L59.9371 285.501ZM86.7777 283.754L69.3645 306.095L86.7777 283.754ZM42.3142 300.45L66.3065 299.245L42.3142 300.45ZM53.6376 318.196L71.9856 316.378L53.6376 318.196ZM85.5283 313.556L76.4154 327.265L85.5283 313.556ZM55.8918 332.306L77.4639 332.105L55.8918 332.306ZM82.3829 372.06C83.7808 350.96 75.9174 317.829 62.899 289.459C54.6598 271.6 22.507 236.678 22.1837 236.328L22.1811 236.325C21.9688 236.115 21.6254 236.116 21.4148 236.328C21.2008 236.543 21.2008 236.891 21.4148 237.106C21.7556 237.455 53.7774 272.247 61.9466 289.948C74.7291 317.645 82.6974 351.388 81.3257 371.99C81.3056 372.292 81.5319 372.552 81.8325 372.576C82.1217 372.572 82.3602 372.349 82.3829 372.06ZM55.6995 278.59C55.9887 278.59 56.2273 278.364 56.2412 278.074L58.3644 242.75C58.3792 242.449 58.1494 242.192 57.8489 242.173L57.8384 242.172C57.5396 242.159 57.2862 242.39 57.2722 242.689L55.184 278.031C55.1692 278.331 55.399 278.589 55.6995 278.607V278.59ZM62.1825 290.219C62.2638 290.258 62.3546 290.276 62.4446 290.271C62.6613 290.269 62.8562 290.139 62.9427 289.939L76.363 259.56C76.4836 259.285 76.3586 258.964 76.0834 258.844C75.8082 258.723 75.4875 258.848 75.3669 259.123L61.9379 289.503C61.8208 289.778 61.9449 290.096 62.2175 290.219H62.1825ZM59.972 286.025C60.2708 286.044 60.5294 285.817 60.5487 285.518C60.5679 285.22 60.3407 284.961 60.0419 284.942L27.8978 280.346C27.8567 280.336 27.8148 280.329 27.772 280.329C27.4679 280.322 27.2163 280.564 27.2102 280.868C27.2041 281.172 27.4452 281.423 27.7493 281.429L59.8934 286.025H59.972ZM69.0237 306.531C69.119 306.621 69.243 306.674 69.3732 306.68C69.541 306.68 69.6991 306.602 69.8014 306.47L87.2582 284.051C87.4444 283.809 87.3989 283.463 87.1578 283.277C86.9166 283.091 86.5706 283.137 86.3845 283.378L68.9626 305.763C68.7782 306.002 68.821 306.345 69.0587 306.531H69.0237ZM41.7987 300.477C41.8127 300.777 42.066 301.01 42.3666 301.001L66.3589 299.786C66.6105 299.744 66.8001 299.536 66.8176 299.281C66.8386 298.978 66.6096 298.715 66.3065 298.694L42.3579 299.909C42.0573 299.923 41.824 300.176 41.8336 300.477H41.7987ZM53.0959 318.248C53.1238 318.541 53.3798 318.757 53.6725 318.737H53.7249L72.073 316.92C72.3701 316.888 72.5876 316.624 72.5623 316.326L72.5614 316.321C72.5317 316.023 72.2661 315.806 71.9682 315.836L53.6201 317.645L53.6052 317.647C53.3082 317.682 53.0959 317.951 53.1308 318.248H53.0959ZM76.1183 327.719C76.2153 327.788 76.3324 327.821 76.4503 327.815C76.6356 327.814 76.8077 327.723 76.9134 327.571L85.9826 313.862C86.1478 313.608 86.0779 313.269 85.8253 313.102C85.5728 312.939 85.2373 313.005 85.0652 313.25L75.996 326.959C75.83 327.212 75.9008 327.552 76.1533 327.719H76.1183ZM55.3064 332.306L55.3072 332.324C55.3212 332.628 55.579 332.863 55.883 332.848L77.4551 332.647H77.4813C77.7758 332.637 78.0064 332.391 77.9968 332.096C77.9968 331.798 77.7539 331.555 77.4551 331.555L55.883 331.756C55.5842 331.765 55.3457 332.007 55.3413 332.306H55.3064ZM84.2527 364.564C84.3409 364.787 84.5646 364.925 84.8031 364.905H84.9778C85.2609 364.801 85.4121 364.492 85.3186 364.206C85.2749 364.101 81.4043 353.398 69.7402 350.846C69.4466 350.786 69.1583 350.967 69.0849 351.257C69.0202 351.554 69.2072 351.847 69.5043 351.912C80.5656 354.333 84.2439 364.468 84.2876 364.564H84.2527ZM81.8325 372.576C82.1217 372.572 82.3602 372.349 82.3829 372.06C83.7808 350.96 75.9174 317.829 62.899 289.459C54.6598 271.6 22.507 236.678 22.1837 236.328L22.1811 236.325C21.9688 236.115 21.6254 236.116 21.4148 236.328C21.2008 236.543 21.2008 236.891 21.4148 237.106C21.7556 237.455 53.7774 272.247 61.9466 289.948C74.7291 317.645 82.6974 351.388 81.3257 371.99C81.3056 372.292 81.5319 372.552 81.8325 372.576ZM55.6995 278.59C55.9887 278.59 56.2273 278.364 56.2412 278.074L58.3644 242.75C58.3792 242.449 58.1494 242.192 57.8489 242.173L57.8384 242.172C57.5396 242.159 57.2862 242.39 57.2722 242.689L55.184 278.031C55.1692 278.331 55.399 278.589 55.6995 278.607V278.59ZM62.1825 290.219C62.2638 290.258 62.3546 290.276 62.4446 290.271C62.6613 290.269 62.8562 290.139 62.9427 289.939L76.363 259.56C76.4836 259.285 76.3586 258.964 76.0834 258.844C75.8082 258.723 75.4875 258.848 75.3669 259.123L61.9379 289.503C61.8208 289.778 61.9449 290.096 62.2175 290.219H62.1825ZM59.972 286.025C60.2708 286.044 60.5294 285.817 60.5487 285.518C60.5679 285.22 60.3407 284.961 60.0419 284.942L27.8978 280.346C27.8567 280.336 27.8148 280.329 27.772 280.329C27.4679 280.322 27.2163 280.564 27.2102 280.868C27.2041 281.172 27.4452 281.423 27.7493 281.429L59.8934 286.025H59.972ZM69.0237 306.531C69.119 306.621 69.243 306.674 69.3732 306.68C69.541 306.68 69.6991 306.602 69.8014 306.47L87.2582 284.051C87.4444 283.809 87.3989 283.463 87.1578 283.277C86.9166 283.091 86.5706 283.137 86.3845 283.378L68.9626 305.763C68.7782 306.002 68.821 306.345 69.0587 306.531H69.0237ZM41.7987 300.477C41.8127 300.777 42.066 301.01 42.3666 301.001L66.3589 299.786C66.6105 299.744 66.8001 299.536 66.8176 299.281C66.8386 298.978 66.6096 298.715 66.3065 298.694L42.3579 299.909C42.0573 299.923 41.824 300.176 41.8336 300.477H41.7987ZM53.0959 318.248C53.1238 318.541 53.3798 318.757 53.6725 318.737H53.7249L72.073 316.92C72.3701 316.888 72.5876 316.624 72.5623 316.326L72.5614 316.321C72.5317 316.023 72.2661 315.806 71.9682 315.836L53.6201 317.645L53.6052 317.647C53.3082 317.682 53.0959 317.951 53.1308 318.248H53.0959ZM76.1183 327.719C76.2153 327.788 76.3324 327.821 76.4503 327.815C76.6356 327.814 76.8077 327.723 76.9134 327.571L85.9826 313.862C86.1478 313.608 86.0779 313.269 85.8253 313.102C85.5728 312.939 85.2373 313.005 85.0652 313.25L75.996 326.959C75.83 327.212 75.9008 327.552 76.1533 327.719H76.1183ZM55.3064 332.306L55.3072 332.324C55.3212 332.628 55.579 332.863 55.883 332.848L77.4551 332.647H77.4813C77.7758 332.637 78.0064 332.391 77.9968 332.096C77.9968 331.798 77.7539 331.555 77.4551 331.555L55.883 331.756C55.5842 331.765 55.3457 332.007 55.3413 332.306H55.3064ZM84.2527 364.564C84.3409 364.787 84.5646 364.925 84.8031 364.905H84.9778C85.2609 364.801 85.4121 364.492 85.3186 364.206C85.2749 364.101 81.4043 353.398 69.7402 350.846C69.4466 350.786 69.1583 350.967 69.0849 351.257C69.0202 351.554 69.2072 351.847 69.5043 351.912C80.5656 354.333 84.2439 364.468 84.2876 364.564H84.2527Z" fill="#92E3A9"/>
<g opacity="0.199997">
<path d="M57.8139 242.741L55.6908 278.066L57.8139 242.741ZM75.83 259.342L62.4097 289.721L75.83 259.342ZM59.9371 285.501L27.7755 280.888L59.9371 285.501ZM86.7777 283.754L69.3645 306.095L86.7777 283.754ZM42.3142 300.45L66.3065 299.245L42.3142 300.45ZM53.6376 318.196L71.9856 316.378L53.6376 318.196ZM85.5283 313.556L76.4154 327.265L85.5283 313.556ZM55.8918 332.306L77.4639 332.105L55.8918 332.306ZM82.3829 372.06C83.7808 350.96 75.9174 317.829 62.899 289.459C54.6598 271.6 22.507 236.678 22.1837 236.328L22.1811 236.325C21.9688 236.115 21.6254 236.116 21.4148 236.328C21.2008 236.543 21.2008 236.891 21.4148 237.106C21.7556 237.455 53.7774 272.247 61.9466 289.948C74.7291 317.645 82.6974 351.388 81.3257 371.99C81.3056 372.292 81.5319 372.552 81.8325 372.576C82.1217 372.572 82.3602 372.349 82.3829 372.06ZM55.6995 278.59C55.9887 278.59 56.2273 278.364 56.2412 278.074L58.3644 242.75C58.3792 242.449 58.1494 242.192 57.8489 242.173L57.8384 242.172C57.5396 242.159 57.2862 242.39 57.2722 242.689L55.184 278.031C55.1692 278.331 55.399 278.589 55.6995 278.607V278.59ZM62.1825 290.219C62.2638 290.258 62.3546 290.276 62.4446 290.271C62.6613 290.269 62.8562 290.139 62.9427 289.939L76.363 259.56C76.4836 259.285 76.3586 258.964 76.0834 258.844C75.8082 258.723 75.4875 258.848 75.3669 259.123L61.9379 289.503C61.8208 289.778 61.9449 290.096 62.2175 290.219H62.1825ZM59.972 286.025C60.2708 286.044 60.5294 285.817 60.5487 285.518C60.5679 285.22 60.3407 284.961 60.0419 284.942L27.8978 280.346C27.8567 280.336 27.8148 280.329 27.772 280.329C27.4679 280.322 27.2163 280.564 27.2102 280.868C27.2041 281.172 27.4452 281.423 27.7493 281.429L59.8934 286.025H59.972ZM69.0237 306.531C69.119 306.621 69.243 306.674 69.3732 306.68C69.541 306.68 69.6991 306.602 69.8014 306.47L87.2582 284.051C87.4444 283.809 87.3989 283.463 87.1578 283.277C86.9166 283.091 86.5706 283.137 86.3845 283.378L68.9626 305.763C68.7782 306.002 68.821 306.345 69.0587 306.531H69.0237ZM41.7987 300.477C41.8127 300.777 42.066 301.01 42.3666 301.001L66.3589 299.786C66.6105 299.744 66.8001 299.536 66.8176 299.281C66.8386 298.978 66.6096 298.715 66.3065 298.694L42.3579 299.909C42.0573 299.923 41.824 300.176 41.8336 300.477H41.7987ZM53.0959 318.248C53.1238 318.541 53.3798 318.757 53.6725 318.737H53.7249L72.073 316.92C72.3701 316.888 72.5876 316.624 72.5623 316.326L72.5614 316.321C72.5317 316.023 72.2661 315.806 71.9682 315.836L53.6201 317.645L53.6052 317.647C53.3082 317.682 53.0959 317.951 53.1308 318.248H53.0959ZM76.1183 327.719C76.2153 327.788 76.3324 327.821 76.4503 327.815C76.6356 327.814 76.8077 327.723 76.9134 327.571L85.9826 313.862C86.1478 313.608 86.0779 313.269 85.8253 313.102C85.5728 312.939 85.2373 313.005 85.0652 313.25L75.996 326.959C75.83 327.212 75.9008 327.552 76.1533 327.719H76.1183ZM55.3064 332.306L55.3072 332.324C55.3212 332.628 55.579 332.863 55.883 332.848L77.4551 332.647H77.4813C77.7758 332.637 78.0064 332.391 77.9968 332.096C77.9968 331.798 77.7539 331.555 77.4551 331.555L55.883 331.756C55.5842 331.765 55.3457 332.007 55.3413 332.306H55.3064ZM84.2527 364.564C84.3409 364.787 84.5646 364.925 84.8031 364.905H84.9778C85.2609 364.801 85.4121 364.492 85.3186 364.206C85.2749 364.101 81.4043 353.398 69.7402 350.846C69.4466 350.786 69.1583 350.967 69.0849 351.257C69.0202 351.554 69.2072 351.847 69.5043 351.912C80.5656 354.333 84.2439 364.468 84.2876 364.564H84.2527ZM81.8325 372.576C82.1217 372.572 82.3602 372.349 82.3829 372.06C83.7808 350.96 75.9174 317.829 62.899 289.459C54.6598 271.6 22.507 236.678 22.1837 236.328L22.1811 236.325C21.9688 236.115 21.6254 236.116 21.4148 236.328C21.2008 236.543 21.2008 236.891 21.4148 237.106C21.7556 237.455 53.7774 272.247 61.9466 289.948C74.7291 317.645 82.6974 351.388 81.3257 371.99C81.3056 372.292 81.5319 372.552 81.8325 372.576ZM55.6995 278.59C55.9887 278.59 56.2273 278.364 56.2412 278.074L58.3644 242.75C58.3792 242.449 58.1494 242.192 57.8489 242.173L57.8384 242.172C57.5396 242.159 57.2862 242.39 57.2722 242.689L55.184 278.031C55.1692 278.331 55.399 278.589 55.6995 278.607V278.59ZM62.1825 290.219C62.2638 290.258 62.3546 290.276 62.4446 290.271C62.6613 290.269 62.8562 290.139 62.9427 289.939L76.363 259.56C76.4836 259.285 76.3586 258.964 76.0834 258.844C75.8082 258.723 75.4875 258.848 75.3669 259.123L61.9379 289.503C61.8208 289.778 61.9449 290.096 62.2175 290.219H62.1825ZM59.972 286.025C60.2708 286.044 60.5294 285.817 60.5487 285.518C60.5679 285.22 60.3407 284.961 60.0419 284.942L27.8978 280.346C27.8567 280.336 27.8148 280.329 27.772 280.329C27.4679 280.322 27.2163 280.564 27.2102 280.868C27.2041 281.172 27.4452 281.423 27.7493 281.429L59.8934 286.025H59.972ZM69.0237 306.531C69.119 306.621 69.243 306.674 69.3732 306.68C69.541 306.68 69.6991 306.602 69.8014 306.47L87.2582 284.051C87.4444 283.809 87.3989 283.463 87.1578 283.277C86.9166 283.091 86.5706 283.137 86.3845 283.378L68.9626 305.763C68.7782 306.002 68.821 306.345 69.0587 306.531H69.0237ZM41.7987 300.477C41.8127 300.777 42.066 301.01 42.3666 301.001L66.3589 299.786C66.6105 299.744 66.8001 299.536 66.8176 299.281C66.8386 298.978 66.6096 298.715 66.3065 298.694L42.3579 299.909C42.0573 299.923 41.824 300.176 41.8336 300.477H41.7987ZM53.0959 318.248C53.1238 318.541 53.3798 318.757 53.6725 318.737H53.7249L72.073 316.92C72.3701 316.888 72.5876 316.624 72.5623 316.326L72.5614 316.321C72.5317 316.023 72.2661 315.806 71.9682 315.836L53.6201 317.645L53.6052 317.647C53.3082 317.682 53.0959 317.951 53.1308 318.248H53.0959ZM76.1183 327.719C76.2153 327.788 76.3324 327.821 76.4503 327.815C76.6356 327.814 76.8077 327.723 76.9134 327.571L85.9826 313.862C86.1478 313.608 86.0779 313.269 85.8253 313.102C85.5728 312.939 85.2373 313.005 85.0652 313.25L75.996 326.959C75.83 327.212 75.9008 327.552 76.1533 327.719H76.1183ZM55.3064 332.306L55.3072 332.324C55.3212 332.628 55.579 332.863 55.883 332.848L77.4551 332.647H77.4813C77.7758 332.637 78.0064 332.391 77.9968 332.096C77.9968 331.798 77.7539 331.555 77.4551 331.555L55.883 331.756C55.5842 331.765 55.3457 332.007 55.3413 332.306H55.3064ZM84.2527 364.564C84.3409 364.787 84.5646 364.925 84.8031 364.905H84.9778C85.2609 364.801 85.4121 364.492 85.3186 364.206C85.2749 364.101 81.4043 353.398 69.7402 350.846C69.4466 350.786 69.1583 350.967 69.0849 351.257C69.0202 351.554 69.2072 351.847 69.5043 351.912C80.5656 354.333 84.2439 364.468 84.2876 364.564H84.2527Z" fill="black"/>
</g>
<path d="M67.5647 362.293H69.7228L74.1875 390.225H85.6769L90.1416 362.293H92.2997V357.173H67.5647V362.293Z" fill="#92E3A9"/>
<g opacity="0.300003">
<path d="M67.5647 362.293H69.7228L74.1875 390.225H85.6769L90.1416 362.293H92.2997V357.173H67.5647V362.293Z" fill="white"/>
</g>
<path d="M290.031 213.245L320.122 197.527L323.416 195.884L336.766 186.195L338.042 184.001L327.435 186.011L321.59 186.195L319.03 192.957L290.258 202.35L290.031 213.245Z" fill="white"/>
<path d="M290.031 213.245L320.122 197.527L323.416 195.884L336.766 186.195L338.042 184.001L327.435 186.011L321.59 186.195L319.03 192.957L290.258 202.35L290.031 213.245Z" stroke="#263238" stroke-width="1.004"/>
<path d="M328.902 187.654L329.811 186.562L324.333 184.552L321.589 186.195L328.902 187.654Z" fill="white"/>
<path d="M328.902 187.654L329.811 186.562L324.333 184.552L321.589 186.195L328.902 187.654Z" stroke="#263238" stroke-width="1.004" stroke-linejoin="round"/>
<path d="M290.031 213.245L320.122 197.527L323.416 195.884L336.766 186.195L338.042 184.001L327.435 186.011L321.59 186.195L319.03 192.957L290.258 202.35L290.031 213.245Z" fill="#E8D0B4"/>
<g opacity="0.5">
<path d="M290.031 213.245L320.122 197.527L323.416 195.884L336.766 186.195L338.042 184.001L327.435 186.011L321.59 186.195L319.03 192.957L290.258 202.35L290.031 213.245Z" stroke="#E8D0B4" stroke-width="1.004"/>
</g>
<path d="M290.031 213.245L320.122 197.527L323.416 195.884L336.766 186.195L338.042 184.001L327.435 186.011L321.59 186.195L319.03 192.957L290.258 202.35L290.031 213.245Z" stroke="#263238" stroke-width="1.004"/>
<path d="M328.902 187.654L329.811 186.562L324.333 184.552L321.589 186.195L328.902 187.654Z" fill="white"/>
<g opacity="0.5">
<path d="M328.902 187.654L329.811 186.562L324.333 184.552L321.589 186.195L328.902 187.654Z" fill="#F4E8DA"/>
<path d="M328.902 187.654L329.811 186.562L324.333 184.552L321.589 186.195L328.902 187.654Z" stroke="#F4E8DA" stroke-width="1.004" stroke-linejoin="round"/>
</g>
<path d="M328.902 187.654L329.811 186.562L324.333 184.552L321.589 186.195L328.902 187.654Z" fill="#E8D0B4" stroke="#263238" stroke-width="1.004" stroke-linejoin="round"/>
<path d="M292.434 143.932C295.396 148.729 294.303 155.422 293.395 156.977C292.486 158.532 287.716 168.143 287.716 168.143L276.217 158.925C276.217 158.925 282.377 150.372 283.487 147.847C284.596 145.322 284.151 141.39 284.151 141.39C285.208 137.843 289.472 139.136 292.434 143.932Z" fill="#F4E8DA"/>
<g style="mix-blend-mode:multiply" opacity="0.5">
<path d="M292.739 159.197L287.724 168.152L285.068 164.369L290.057 154.024L292.739 159.197Z" fill="#92E3A9"/>
</g>
<path d="M292.434 143.932C295.396 148.729 294.303 155.422 293.395 156.977C292.486 158.532 287.716 168.143 287.716 168.143L276.217 158.925C276.217 158.925 282.377 150.372 283.487 147.847C284.596 145.322 284.151 141.39 284.151 141.39C285.208 137.843 289.472 139.136 292.434 143.932Z" fill="#E8D0B4" stroke="#E8D0B4" stroke-width="1.004"/>
<path d="M294.22 121.777C298.976 121.986 301.325 122.892 303.389 124.018L303.798 124.247C305.58 125.296 307.242 126.539 308.753 127.951C310.704 130.292 311.958 131.715 312.656 133C313.322 134.227 313.47 135.313 313.115 136.998L313.101 137.059L313.104 137.123C313.163 138.477 312.951 139.83 312.48 141.102C311.286 144.29 310.494 146.298 309.504 147.75L309.383 147.926L309.427 148.135C309.585 148.873 309.868 150.213 310.118 151.479C310.352 152.669 310.544 153.743 310.588 154.215C310.582 154.217 310.576 154.22 310.57 154.221C310.39 154.263 310.088 154.267 309.685 154.225C308.897 154.143 307.927 153.911 307.253 153.741L306.844 153.637L306.673 154.022C305.452 156.756 303.717 159.078 302.113 160.77C301.311 161.616 300.546 162.299 299.901 162.794C299.323 163.238 298.872 163.508 298.589 163.625L298.479 163.665V163.666C298.017 163.81 297.437 163.743 296.746 163.446C296.059 163.15 295.313 162.647 294.559 162.006C293.24 160.885 291.95 159.388 290.964 157.993L290.562 157.402C289.608 155.95 289.481 154.399 289.608 153C289.671 152.298 289.798 151.645 289.912 151.062C290.007 150.574 290.104 150.093 290.125 149.702L290.129 149.54C290.127 149.235 290.004 148.941 289.852 148.685C289.696 148.422 289.482 148.152 289.236 147.884C288.743 147.349 288.081 146.777 287.38 146.231C286.151 145.274 284.758 144.359 283.837 143.808L283.472 143.595C283.143 143.407 282.772 143.02 282.411 142.428C282.055 141.844 281.73 141.095 281.474 140.233C280.963 138.506 280.743 136.37 281.08 134.271C281.417 132.186 282.801 128.956 285.081 126.293C287.285 123.719 290.265 121.742 293.87 121.768L294.22 121.777Z" fill="#E8D0B4" stroke="#E8D0B4"/>
<path d="M283.224 144.029C284.954 145.017 289.62 148.127 289.629 149.542C289.638 150.958 288.065 154.514 290.144 157.677C292.224 160.84 296.147 164.92 298.628 164.142C300.052 163.697 304.631 159.817 307.129 154.226C308.475 154.566 311.14 155.187 311.096 154.295C311.052 153.404 310.231 149.507 309.917 148.031C310.948 146.519 311.76 144.449 312.948 141.277C313.443 139.942 313.666 138.522 313.604 137.101C314.355 133.536 312.992 132.26 309.113 127.603C307.568 126.157 305.869 124.885 304.045 123.811C301.808 122.544 299.397 121.505 294.242 121.278C286.3 120.937 281.294 129.823 280.586 134.191C279.887 138.551 281.495 143.042 283.224 144.029Z" stroke="#263238"/>
<path d="M303.792 146.013C306.081 148.512 307.96 147.891 307.96 147.891L308.833 145.392" stroke="#263238" stroke-linecap="round"/>
<path d="M299.458 153.937C300.297 156.856 302.376 157.065 302.376 157.065" stroke="#263238" stroke-linecap="round"/>
<path d="M305.924 141.426C309.672 141.426 310.292 143.304 310.292 143.304" stroke="#263238" stroke-linecap="round"/>
<path d="M278.987 134.252C279.31 141.521 284.771 149.498 289.279 148.677C285.531 146.353 288.056 139.538 290.826 138.55C292.713 137.878 293.727 140.77 294.19 142.692C295.226 143.37 296.52 143.521 297.685 143.102C300.839 141.915 299.266 140.578 300.218 140.578C301.171 140.578 304.334 138.997 304.334 138.997C305.277 137.1 304.648 132.356 304.648 132.356C305.592 131.718 307.863 132.199 310.712 134.41C312.415 135.765 313.454 137.785 313.569 139.958C313.569 139.958 318.916 141.53 320.497 138.681C322.079 135.834 319.545 135.825 319.545 133.615C319.545 131.404 323.346 122.544 315.439 117.486C307.531 112.427 299.301 117.17 299.301 117.17C296.55 117.198 293.803 117.409 291.079 117.799C286.396 118.622 278.664 126.983 278.987 134.252Z" fill="#263238"/>
<path d="M283.609 134.942C290.948 136.908 296.488 133.334 299.336 130.662C302.184 127.988 304.508 129.237 304.508 129.237" stroke="#E8D0B4" stroke-width="0.5" stroke-linecap="round" stroke-linejoin="round"/>
<path d="M286.65 128.345C291.638 128.345 297.886 124.597 300.559 124.597C303.233 124.597 304.832 127.096 304.832 127.096" stroke="#E8D0B4" stroke-width="0.5" stroke-linecap="round" stroke-linejoin="round"/>
<path d="M313.569 137.1C313.569 137.1 315.377 134.234 312.529 131.202C309.681 128.171 306.649 131.911 306.649 131.911" stroke="#E8D0B4" stroke-width="0.5" stroke-linecap="round" stroke-linejoin="round"/>
<path d="M306.649 124.247C310.03 121.032 315.386 124.422 315.744 128.345C315.95 130.675 317.03 132.842 318.767 134.409" stroke="#E8D0B4" stroke-width="0.5" stroke-linecap="round" stroke-linejoin="round"/>
<path d="M303.434 121.565C307.89 114.97 313.245 120.142 313.245 120.142" stroke="#E8D0B4" stroke-width="0.5" stroke-linecap="round" stroke-linejoin="round"/>
<path d="M282.115 375.188L285.924 379.356L298.008 384.991C298.336 385.147 298.512 385.511 298.427 385.865L297.842 388.189C297.842 388.189 284.29 389.474 281.73 389.474C279.171 389.474 267.087 386.162 267.087 386.162L266.729 382.868C266.362 379.574 269.656 374.454 269.656 374.454L282.115 375.188Z" fill="#263238"/>
<path d="M282.115 375.188L285.924 379.356L298.008 384.991C298.336 385.147 298.512 385.511 298.427 385.865L297.842 388.189C297.842 388.189 284.29 389.474 281.73 389.474C279.171 389.474 267.087 386.162 267.087 386.162L266.729 382.868C266.362 379.574 269.656 374.454 269.656 374.454L282.115 375.188Z" stroke="#263238" stroke-width="1.004"/>
<path d="M298.261 386.53L297.842 388.19C297.842 388.19 284.29 389.474 281.731 389.474C279.171 389.474 267.043 386.163 267.043 386.163L266.79 383.874C270.398 385.149 276.619 387.15 279.896 386.897C284.229 386.565 296.094 386.539 298.261 386.53Z" fill="#263238"/>
<path d="M298.261 386.53L297.842 388.19C297.842 388.19 284.29 389.474 281.731 389.474C279.171 389.474 267.043 386.163 267.043 386.163L266.79 383.874C270.398 385.149 276.619 387.15 279.896 386.897C284.229 386.565 296.094 386.539 298.261 386.53Z" stroke="#263238" stroke-width="1.004"/>
<path d="M270.538 381.585C266.965 385.577 269.228 391.528 269.228 391.528C269.228 391.528 301.992 392.279 303.495 391.528C304.998 390.776 303.495 387.01 303.495 387.01L285.907 379.357C285.907 379.357 274.112 377.592 270.538 381.585Z" fill="#263238"/>
<path d="M270.538 381.585C266.965 385.577 269.228 391.528 269.228 391.528C269.228 391.528 301.992 392.279 303.495 391.528C304.998 390.776 303.495 387.01 303.495 387.01L285.907 379.357C285.907 379.357 274.112 377.592 270.538 381.585Z" stroke="#263238" stroke-width="1.004"/>
<path d="M268.651 389.099H304.08C304.246 390.103 304.22 391.161 303.495 391.528C301.992 392.279 269.228 391.528 269.228 391.528C268.959 390.738 268.767 389.924 268.651 389.099Z" fill="#263238"/>
<path d="M268.651 389.099H304.08C304.246 390.103 304.22 391.161 303.495 391.528C301.992 392.279 269.228 391.528 269.228 391.528C268.959 390.738 268.767 389.924 268.651 389.099Z" stroke="#263238" stroke-width="1.004"/>
<path d="M292.547 243.214L268.022 243.712C268.022 243.712 271.709 249.347 272.521 253.017C273.334 256.687 284.692 312.587 284.692 315.514C284.692 318.441 279.896 335.278 277.703 345.526C275.51 355.775 269.656 374.438 269.656 374.438L282.464 376.998L284.29 372.629C284.29 372.629 302.586 323.587 302.953 320.66C303.32 317.733 302.298 292.212 300.559 279.473C298.82 266.734 294.225 246.368 294.225 246.368L292.547 243.214Z" fill="#009476"/>
<path d="M292.547 243.214L268.022 243.712C268.022 243.712 271.709 249.347 272.521 253.017C273.334 256.687 284.692 312.587 284.692 315.514C284.692 318.441 279.896 335.278 277.703 345.526C275.51 355.775 269.656 374.438 269.656 374.438L282.464 376.998L284.29 372.629C284.29 372.629 302.586 323.587 302.953 320.66C303.32 317.733 302.298 292.212 300.559 279.473C298.82 266.734 294.225 246.368 294.225 246.368L292.547 243.214Z" stroke="#263238" stroke-width="1.004"/>
<path d="M263.129 242.313C260.071 249.146 264.614 262.522 266.694 268.839C268.773 275.156 272.434 308.995 271.272 317.767C270.11 326.54 267.777 348.19 267.777 358.71C267.777 369.229 270.582 381.575 270.582 381.575C272.591 381.648 274.602 381.43 276.549 380.929C278.236 380.448 285.95 379.347 285.95 379.347L285.557 375.319C285.557 375.319 284.736 369.824 285.321 358.719C285.697 351.03 292.311 326.557 292.311 322.459C292.311 318.362 294.696 290.831 295.806 277.9C296.916 264.969 294.225 246.367 294.225 246.367C294.225 246.367 266.187 235.481 263.129 242.313Z" fill="#009476"/>
<path d="M263.129 242.313C260.071 249.146 264.614 262.522 266.694 268.839C268.773 275.156 272.434 308.995 271.272 317.767C270.11 326.54 267.777 348.19 267.777 358.71C267.777 369.229 270.582 381.575 270.582 381.575C272.591 381.648 274.602 381.43 276.549 380.929C278.236 380.448 285.95 379.347 285.95 379.347L285.557 375.319C285.557 375.319 284.736 369.824 285.321 358.719C285.697 351.03 292.311 326.557 292.311 322.459C292.311 318.362 294.696 290.831 295.806 277.9C296.916 264.969 294.225 246.367 294.225 246.367C294.225 246.367 266.187 235.481 263.129 242.313Z" stroke="#263238" stroke-width="1.004"/>
<path d="M296.855 239.386L297.309 246.9C297.38 247.789 296.721 248.569 295.832 248.647C291.149 249.102 277.24 250.316 271.7 249.355C264.99 248.193 260.01 247.207 260.01 247.207L259.73 238.888L296.855 239.386Z" fill="#263238"/>
<path d="M256.83 197.264C257.852 207.277 259.407 230.265 259.774 238.888C259.853 240.723 259.914 243.056 261.749 243.169C263.269 243.265 272.556 245.266 275.667 245.109C284.186 244.681 293.613 244.096 295.544 242.488C297.475 240.88 296.898 239.412 296.898 239.412L294.216 217.753C293.368 210.877 296.374 195.901 295.264 189.523C294.155 183.145 292.984 175.046 290.022 169.76C287.06 164.474 279.197 155.973 279.197 155.973C266.248 157.134 254.724 176.845 256.83 197.264Z" fill="white"/>
<path d="M256.83 197.264C257.852 207.277 259.407 230.265 259.774 238.888C259.853 240.723 259.914 243.056 261.749 243.169C263.269 243.265 272.556 245.266 275.667 245.109C284.186 244.681 293.613 244.096 295.544 242.488C297.475 240.88 296.898 239.412 296.898 239.412L294.216 217.753C293.368 210.877 296.374 195.901 295.264 189.523C294.155 183.145 292.984 175.046 290.022 169.76C287.06 164.474 279.197 155.973 279.197 155.973C266.248 157.134 254.724 176.845 256.83 197.264Z" stroke="#263238" stroke-width="1.004"/>
<g style="mix-blend-mode:multiply">
<path d="M277.205 208.064L294.81 203.136C295.227 199.447 295.437 195.736 295.439 192.023L277.493 198.139L256.602 194.644C256.646 195.518 256.698 196.391 256.786 197.265C257.092 200.227 257.441 204.342 257.791 208.877L277.205 208.064Z" fill="#009476"/>
</g>
<g style="mix-blend-mode:multiply">
<path d="M268.135 175.412L272.504 177.16L285.767 163.679C283.522 160.83 281.163 158.148 279.974 156.829L268.135 175.412Z" fill="#009476"/>
</g>
<path d="M276.331 156.54L292.145 174.81C291.611 173.059 290.9 171.367 290.022 169.76C287.06 164.474 279.197 155.973 279.197 155.973C278.225 156.068 277.265 156.258 276.331 156.54Z" fill="#263238"/>
<g style="mix-blend-mode:multiply">
<path d="M291.892 174.138L276.873 180.944L260.071 174.208C258.135 179.035 256.982 184.141 256.655 189.332L277.493 191.726L294.653 186.081C294.043 182.034 293.12 178.041 291.892 174.138Z" fill="#009476"/>
</g>
<g style="mix-blend-mode:multiply">
<path d="M259.206 229.252C259.442 233.14 259.625 236.53 259.73 238.863C259.749 239.332 259.862 239.792 260.062 240.217L263.915 240.68C273.266 241.797 282.744 241.066 291.813 238.531L296.584 237.194L295.282 226.709L291.097 228.142C282.746 230.997 273.815 231.727 265.112 230.265L259.206 229.252Z" fill="#009476"/>
</g>
<g style="mix-blend-mode:multiply">
<path d="M258.228 215.219C258.498 218.897 258.752 222.619 258.97 226.114L261.591 226.429C270.939 227.542 280.415 226.809 289.48 224.271L294.793 222.786L294.172 217.744C293.988 215.845 293.962 213.934 294.094 212.03L288.764 213.856C280.416 216.722 271.484 217.455 262.78 215.988L258.228 215.219Z" fill="#009476"/>
</g>
<path d="M281.984 170.214C285.828 176.758 286.274 185.783 286.597 189.374C286.92 192.965 286.483 211.742 286.483 211.742L321.371 198.994L323.258 197.701L324.595 188.964L330.711 186.675L332.808 185.216L333.944 186.657L328.151 192.014L338.907 183.765L340.278 186.386L335.91 194.635L327.094 201.755L290.625 225.967C290.625 225.967 283.085 231.313 278.227 228.482C273.369 225.652 267.131 202.349 266.126 195.194C265.121 188.038 264.667 183.958 264.728 179.59C264.868 169.62 271.062 165.4 271.062 165.4" fill="#E8D0B4"/>
<g style="mix-blend-mode:multiply" opacity="0.5">
<path d="M277.5 228L282 229L286.51 228L324.805 203.232L327.024 201.755L335.84 194.591L340.209 186.343L338.907 183.765L328.151 192.013L333.927 186.683L332.791 185.242L330.703 186.727L324.587 189.016L323.25 197.753L321.363 199.046L286.51 211.742C286.51 211.742 278.5 217 272 220L277.5 228Z" fill="#E8D0B4"/>
</g>
<path d="M281.984 170.214C285.828 176.758 286.274 185.784 286.597 189.375C286.92 192.966 286.484 211.742 286.484 211.742L321.371 198.994L323.258 197.701L324.595 188.964L330.711 186.676L332.808 185.217L333.944 186.657L328.151 192.014L338.907 183.765L340.278 186.386L335.91 194.635L327.094 201.755L290.625 225.967C290.625 225.967 283.085 231.313 278.227 228.482C273.369 225.652 267.131 202.349 266.126 195.194C265.121 188.038 264.667 183.958 264.728 179.59C264.868 169.62 271.062 165.401 271.062 165.401" stroke="#263238" stroke-width="1.004"/>
<path d="M287.637 208.037C287.637 208.037 289.175 204.534 289.105 203.109C289.033 202.231 288.587 201.426 287.881 200.899C287.881 200.899 288.755 195.421 288.126 194.311C287.497 193.201 288.318 175.447 284.299 169.366C280.28 163.285 275.099 162.682 271.115 162.884C267.131 163.084 262.159 172.198 261.845 177.352C261.53 182.507 264.413 194.363 264.413 194.363C264.413 194.363 264.247 197.221 264.413 200.646C264.579 204.071 266.362 205.399 266.72 206.814C267.078 208.229 266.633 210.527 266.982 211.943C267.332 213.358 269.717 215.237 269.717 215.237L273.168 221.353L286.484 211.742L287.637 208.037Z" fill="white"/>
<path d="M287.637 208.037C287.637 208.037 289.175 204.534 289.105 203.109C289.033 202.231 288.587 201.426 287.881 200.899C287.881 200.899 288.755 195.421 288.126 194.311C287.497 193.201 288.318 175.447 284.299 169.366C280.28 163.285 275.099 162.682 271.115 162.884C267.131 163.084 262.159 172.198 261.845 177.352C261.53 182.507 264.413 194.363 264.413 194.363C264.413 194.363 264.247 197.221 264.413 200.646C264.579 204.071 266.362 205.399 266.72 206.814C267.078 208.229 266.633 210.527 266.982 211.943C267.332 213.358 269.717 215.237 269.717 215.237L273.168 221.353L286.484 211.742L287.637 208.037Z" stroke="#263238" stroke-width="1.004"/>
<g style="mix-blend-mode:multiply">
<path d="M263.837 191.655C264.186 193.263 264.44 194.32 264.44 194.32C264.44 194.32 264.265 197.186 264.44 200.602C264.47 201.231 264.57 201.856 264.737 202.463C272.49 203.639 280.409 203.041 287.899 200.715C288.039 199.798 288.677 195.298 288.117 194.302C287.863 192.799 287.75 191.275 287.777 189.75C279.928 191.524 271.867 192.165 263.837 191.655Z" fill="#009476"/>
</g>
<g style="mix-blend-mode:multiply">
<path d="M262.972 172.625C262.37 174.137 261.987 175.725 261.836 177.344C261.796 179.392 261.945 181.439 262.282 183.46C270.708 184.497 279.26 183.456 287.191 180.429C286.789 176.61 286.09 172.844 284.841 170.337C277.678 172.029 270.329 172.798 262.972 172.625Z" fill="#009476"/>
</g>
<path d="M266.895 211.191C266.908 211.445 266.946 211.696 267.008 211.943C267.358 213.358 269.743 215.237 269.743 215.237L273.194 221.353L286.51 211.742L287.637 208.133C280.884 210.042 273.912 211.07 266.895 211.191Z" fill="#263238"/>
<path d="M283.609 250.859C283.609 250.859 284.553 252.257 283.321 256.704C282.089 261.151 277.886 264.568 277.886 264.568C277.886 264.568 279.24 291.312 280.909 301.43C282.578 311.547 279.747 320.267 279.162 322.312C278.576 324.356 279.459 330.175 278.873 332.796C278.288 335.417 274.802 351.127 276.252 362.188C277.703 373.249 278 380.816 278 380.816" stroke="#263238" stroke-width="1.004"/>
<line x1="277.174" y1="260.305" x2="275.557" y2="251.358" stroke="#263238" stroke-width="1.004"/>
</svg>
