<svg width="188" height="42" viewBox="0 0 188 42" fill="none" xmlns="http://www.w3.org/2000/svg">
<g clip-path="url(#clip0_468_143)">
<path d="M23.0107 10.0488C21.0738 8.87305 18.7959 8.29883 16.1907 8.29883C14.6221 8.29883 13.149 8.59961 11.7577 9.21484C10.8574 9.61133 9.88899 9.81641 8.90691 9.70703L1.45948 8.8457C0.65472 8.8457 0 9.50195 0 10.3086V40.5645C0 41.3711 0.65472 42.0273 1.45948 42.0273H8.77051C9.57527 42.0273 10.23 41.3711 10.23 40.5645V34.4258C10.721 34.6992 11.2257 34.9453 11.785 35.1504C13.1762 35.6699 14.6494 35.9297 16.218 35.9297C18.8232 35.9297 21.0874 35.3418 23.0379 34.1523C24.9748 32.9629 26.4889 31.3359 27.5801 29.2715C28.6713 27.207 29.2169 24.8281 29.2169 22.1211C29.2169 19.4141 28.6713 17.0352 27.5801 14.9434C26.4889 12.8652 24.9748 11.2246 23.0379 10.0625L23.0107 10.0488ZM18.1003 24.4316C17.732 25.1152 17.2 25.6484 16.518 26.0449C15.836 26.4414 15.0722 26.6328 14.2129 26.6328C13.3536 26.6328 12.6034 26.4414 11.935 26.0449C11.2803 25.6484 10.762 25.1152 10.4073 24.4316C10.0527 23.748 9.87535 22.9688 9.87535 22.1074C9.87535 21.2461 10.0663 20.4121 10.4346 19.7285C10.8029 19.0449 11.3212 18.5117 11.9896 18.1426C12.6443 17.7598 13.4081 17.582 14.2674 17.582C15.1267 17.582 15.877 17.7734 16.5453 18.1699C17.2 18.5664 17.7183 19.0996 18.1003 19.7559C18.4685 20.4258 18.6595 21.2051 18.6595 22.1074C18.6595 23.0098 18.4685 23.748 18.1003 24.4316Z" fill="#164340"/>
<path d="M85.1817 15.8457C85.891 15.8457 86.7913 16.0234 87.8552 16.3652C88.5508 16.584 89.1919 16.9395 89.8193 17.4453C89.9557 17.5547 90.1058 17.6367 90.2695 17.6914C90.3922 15.1895 92.0017 12.5508 95.1526 11.4297C94.0477 10.459 92.7383 9.67969 91.1833 9.11914C89.0146 8.32617 86.764 7.92969 84.4452 7.92969C82.1264 7.92969 80.1622 8.3125 78.4299 9.0918C77.3524 9.57031 76.4522 10.1719 75.6747 10.8691V9.47461C75.6747 9.13281 75.4019 8.85938 75.0609 8.85938H70.6824C70.3414 8.85938 70.0686 8.58594 70.0686 8.24414V0.916016C70.0686 0.574219 69.7958 0.300781 69.4548 0.300781H60.2206C59.8796 0.300781 59.6068 0.574219 59.6068 0.916016V8.2168C59.6068 8.55859 59.334 8.83203 58.993 8.83203H54.6145C54.2735 8.83203 54.0007 9.10547 54.0007 9.44727V11.457C53.3051 10.8691 52.5685 10.3223 51.7228 9.87109C49.6223 8.73633 47.1944 8.17578 44.4527 8.17578C41.7111 8.17578 39.1741 8.77734 36.9644 9.98047C34.7547 11.1836 33.0224 12.8242 31.7539 14.916C30.4854 17.0078 29.8579 19.3867 29.8579 22.0938C29.8579 24.8008 30.5127 27.248 31.8085 29.3535C33.1043 31.459 34.9184 33.0996 37.2372 34.2617C39.556 35.4238 42.2431 36.0117 45.3121 36.0117C47.699 36.0117 49.8269 35.6289 51.6683 34.877C53.0459 34.3164 54.2735 33.5508 55.3511 32.5801C55.9785 32.0195 55.9922 31.0352 55.392 30.4473L52.2002 27.2617C51.6546 26.7148 50.7953 26.7148 50.2088 27.207C49.7041 27.6309 49.1585 27.959 48.5993 28.2188C47.6581 28.6289 46.5533 28.834 45.3121 28.834C44.0708 28.834 42.966 28.5879 42.1067 28.082C42.4067 26.9473 42.4613 26.7559 42.4749 26.7285C42.4749 26.7012 42.5431 26.4961 42.8432 25.375L56.8515 25.2793C57.5608 25.2793 58.1746 24.7461 58.2837 24.0488C58.3382 23.748 58.3655 23.4609 58.3928 23.2012C58.4474 22.6133 58.4746 22.0391 58.4746 21.5059C58.4746 20.0703 58.27 18.7168 57.9018 17.459H59.0066C59.3476 17.459 59.6204 17.7324 59.6204 18.0742V34.7402C59.6204 35.082 59.8932 35.3555 60.2342 35.3555H69.4685C69.8095 35.3555 70.0823 35.082 70.0823 34.7402V18.0742C70.0823 17.7324 70.3551 17.459 70.6961 17.459H73.0558C73.1376 18.7715 73.3968 19.8789 73.8742 20.7812C74.4471 21.8477 75.1973 22.668 76.1248 23.2559C77.0523 23.8438 78.0208 24.3223 79.0437 24.6641C80.0531 25.0059 81.0215 25.2793 81.9354 25.498C82.8493 25.7168 83.5859 25.9492 84.186 26.1953C84.7725 26.4414 85.0726 26.8242 85.0726 27.3301C85.0726 27.6172 84.9089 27.8496 84.5679 28C84.2269 28.1504 83.7632 28.2461 83.1494 28.2461C81.8263 28.2461 80.5714 28 79.3847 27.4941C78.6073 27.166 77.898 26.7559 77.2706 26.2773C76.684 25.8398 75.8793 25.9082 75.3746 26.4277L71.8828 30.0645C71.2826 30.6797 71.3372 31.6914 72.0192 32.2246C72.7148 32.7715 73.5059 33.291 74.3789 33.7559C75.7838 34.5078 77.3115 35.1094 78.9483 35.5332C80.5851 35.9707 82.2219 36.1758 83.8723 36.1758C85.9592 36.1758 87.7597 35.8613 89.3419 35.3145C87.9643 33.9473 87.3369 32.2246 87.3369 30.5293C87.3369 27.0977 89.2192 24.5684 92.2609 23.0234V22.8867C91.5925 22.1895 90.9787 21.123 90.6241 19.9473C90.2149 19.7422 89.8057 19.5508 89.3692 19.4004C88.3735 19.0449 87.4187 18.7578 86.5048 18.5391C85.5909 18.3203 84.8544 18.0879 84.2815 17.8418C83.7086 17.5957 83.4222 17.2676 83.4222 16.8711C83.4222 16.584 83.5586 16.3379 83.8177 16.1465C84.0905 15.9551 84.5543 15.8457 85.2363 15.8457H85.1817ZM42.6523 18.9082C41.8611 16.6523 42.5159 18.5254 41.7384 16.2695C41.7793 16.2422 41.8202 16.2012 41.8748 16.1738C42.6523 15.6406 43.5798 15.3672 44.6573 15.3672C45.7349 15.3672 46.5396 15.5996 47.2216 16.0645C47.9036 16.5293 48.4083 17.2266 48.7493 18.1426C48.8312 18.3613 48.8994 18.6074 48.9676 18.8535L42.6659 18.9082H42.6523Z" fill="#164340"/>
<path d="M96.9531 40.25C96.9531 41.0566 97.6078 41.7129 98.4125 41.7129H105.724C106.528 41.7129 107.183 41.0566 107.183 40.25V34.3574C104.141 37.0645 100.431 38.0762 96.9667 37.9941V40.2363L96.9531 40.25Z" fill="#2A9678"/>
<path d="M119.964 9.76172C118.027 8.58594 115.749 8.01172 113.144 8.01172C111.575 8.01172 110.102 8.3125 108.711 8.92773C107.81 9.32422 106.842 9.5293 105.874 9.40625L98.4262 8.54492C97.6214 8.54492 96.9667 9.20117 96.9667 10.0078V10.9922C97.4986 10.9102 98.0443 10.8691 98.6444 10.8691C103.009 10.8691 106.269 13.3574 106.269 17.2813C106.269 19.9063 104.741 22.2031 101.372 23.9395L101.345 24.1035C102.423 25.293 103.555 26.6738 104.564 27.7129C104.701 27.8496 104.919 27.8223 105.014 27.6582C105.887 26.168 106.569 24.1035 106.883 22.3398C106.883 22.3125 106.91 22.2988 106.924 22.2715C106.924 22.1211 106.869 21.9844 106.869 21.834C106.869 20.9316 107.06 20.1387 107.429 19.4551C107.797 18.7715 108.315 18.2383 108.984 17.8691C109.652 17.5 110.402 17.3086 111.261 17.3086C112.121 17.3086 112.871 17.5 113.539 17.8965C114.194 18.293 114.712 18.8262 115.094 19.4824C115.463 20.1523 115.653 20.9316 115.653 21.834C115.653 22.7363 115.463 23.4746 115.094 24.1582C114.726 24.8418 114.194 25.375 113.512 25.7715C113.103 26.0176 112.639 26.1543 112.162 26.25C111.07 29.791 109.379 32.375 107.401 34.2207C107.838 34.4531 108.274 34.6855 108.765 34.8633C110.157 35.3828 111.63 35.6426 113.198 35.6426C115.804 35.6426 118.068 35.0547 120.018 33.8652C121.969 32.6758 123.469 31.0488 124.56 28.9844C125.652 26.9199 126.197 24.541 126.197 21.834C126.197 19.127 125.652 16.748 124.56 14.6563C123.469 12.5781 121.955 10.9375 120.018 9.77539L119.964 9.76172Z" fill="#2A9678"/>
<path d="M98.4398 15.1621C97.7851 15.1621 97.2804 15.4629 96.9531 15.9004C96.653 16.2969 96.4893 16.8164 96.4893 17.3359C96.4893 17.9238 96.6393 18.498 96.9531 19.0996C97.2259 19.6191 97.6214 20.1387 98.1807 20.7129C99.7356 19.5098 100.363 18.6211 100.363 17.418C100.363 16.3379 99.722 15.1621 98.4398 15.1621Z" fill="#2A9678"/>
<path d="M96.9531 28.2461C96.4211 27.6445 95.8755 27.043 95.3299 26.4414C95.2753 26.4824 95.2481 26.5234 95.1935 26.5645C94.3615 27.2754 93.8431 28.1504 93.8431 29.3398C93.8431 30.0371 94.0341 30.6934 94.4024 31.2539C94.9207 32.0742 95.7936 32.6758 96.9667 32.8672C97.2258 32.9082 97.4987 32.9355 97.7851 32.9355C98.9991 32.9355 100.008 32.5391 100.581 32.0742C99.4355 30.9805 98.2216 29.627 96.9803 28.2324L96.9531 28.2461Z" fill="#2A9678"/>
<path d="M136.755 0H127.507C127.168 0 126.893 0.27545 126.893 0.615234V34.4668C126.893 34.8066 127.168 35.082 127.507 35.082H136.755C137.094 35.082 137.368 34.8066 137.368 34.4668V0.615234C137.368 0.27545 137.094 0 136.755 0Z" fill="#2A9678"/>
<path d="M164.471 10.0078C164.471 9.20117 163.816 8.54492 163.012 8.54492H155.441C154.637 8.54492 153.982 9.20117 153.982 10.0078V23.9805C153.982 24.8145 153.723 25.4844 153.204 26.0039C152.686 26.5234 152.059 26.7832 151.308 26.7832C150.776 26.7832 150.299 26.6738 149.89 26.4277C149.481 26.1953 149.153 25.8672 148.921 25.4297C148.69 24.9922 148.58 24.5137 148.58 23.9668V10.0078C148.58 9.20117 147.926 8.54492 147.121 8.54492H139.551C138.746 8.54492 138.091 9.20117 138.091 10.0078V23.8711C138.091 26.168 138.664 28.2187 139.796 30.0234C140.942 31.8281 142.497 33.2227 144.475 34.2344C146.453 35.2461 148.73 35.7383 151.295 35.7383C153.859 35.7383 156.137 35.2324 158.115 34.2344C160.093 33.2363 161.648 31.8281 162.766 30.0508C163.884 28.2734 164.444 26.209 164.444 23.8711V10.0078H164.471Z" fill="#2A9678"/>
<path d="M177.388 15.5586C178.097 15.5586 178.998 15.7363 180.062 16.0781C180.757 16.2969 181.398 16.6523 182.026 17.1582C182.626 17.6367 183.472 17.623 184.003 17.0762L187.591 13.3848C188.15 12.8105 188.15 11.8672 187.564 11.3066C186.431 10.2539 185.026 9.41992 183.376 8.81836C181.207 8.02539 178.957 7.62891 176.638 7.62891C174.319 7.62891 172.355 8.01172 170.623 8.79102C168.89 9.57031 167.554 10.6094 166.612 11.9219C165.671 13.2344 165.194 14.7383 165.194 16.4199C165.194 18.1016 165.48 19.4277 166.053 20.4941C166.626 21.5605 167.376 22.3809 168.304 22.9687C169.231 23.5566 170.2 24.0352 171.223 24.377C172.232 24.7188 173.201 24.9922 174.114 25.2109C175.028 25.4297 175.765 25.6621 176.365 25.9082C176.952 26.1543 177.252 26.5371 177.252 27.043C177.252 27.3301 177.088 27.5625 176.747 27.7129C176.406 27.877 175.942 27.959 175.328 27.959C174.005 27.959 172.75 27.7129 171.564 27.207C170.786 26.8789 170.077 26.4688 169.436 25.9902C168.849 25.5527 168.045 25.6211 167.54 26.1406L164.048 29.7773C163.448 30.3926 163.503 31.4043 164.185 31.9375C164.88 32.4844 165.671 33.0039 166.544 33.4688C167.949 34.2207 169.477 34.8223 171.114 35.2461C172.75 35.6836 174.387 35.8887 176.038 35.8887C179.53 35.8887 182.312 35.1094 184.372 33.5645C186.445 32.0195 187.468 29.9277 187.468 27.3027C187.468 25.6074 187.182 24.2402 186.609 23.1738C186.036 22.1074 185.299 21.2598 184.385 20.6172C183.472 19.9746 182.517 19.4687 181.521 19.1133C180.525 18.7578 179.57 18.4707 178.657 18.252C177.743 18.0332 177.006 17.8008 176.433 17.5547C175.86 17.3086 175.574 16.9805 175.574 16.584C175.574 16.2969 175.71 16.0508 175.97 15.8594C176.242 15.668 176.706 15.5586 177.388 15.5586Z" fill="#2A9678"/>
</g>
<defs>
<clipPath id="clip0_468_143">
<rect width="188" height="42" fill="white"/>
</clipPath>
</defs>
</svg>
